%TF.GenerationSoftware,KiCad,Pcbnew,8.0.6*%
%TF.CreationDate,2025-04-15T17:41:16+01:00*%
%TF.ProjectId,DeltaBot,44656c74-6142-46f7-942e-6b696361645f,rev?*%
%TF.SameCoordinates,Original*%
%TF.FileFunction,Drillmap*%
%TF.FilePolarity,Positive*%
%FSLAX45Y45*%
G04 Gerber Fmt 4.5, Leading zero omitted, Abs format (unit mm)*
G04 Created by KiCad (PCBNEW 8.0.6) date 2025-04-15 17:41:16*
%MOMM*%
%LPD*%
G01*
G04 APERTURE LIST*
%ADD10C,0.300000*%
%ADD11C,0.200000*%
%ADD12C,0.350000*%
%ADD13C,0.400000*%
G04 APERTURE END LIST*
D10*
X5200000Y-12650000D02*
X15300000Y-12650000D01*
X5200000Y-14650000D02*
X2700000Y-14650000D01*
X26850000Y-3600000D02*
X26850000Y-14650000D01*
X15300000Y-12650000D02*
X15300000Y-14650000D01*
X26850000Y-14650000D02*
X15300000Y-14650000D01*
X2700000Y-14650000D02*
X2700000Y-3600000D01*
X5200000Y-14650000D02*
X5200000Y-12650000D01*
X2700000Y-3600000D02*
X26850000Y-3600000D01*
D11*
D10*
X16450000Y-11650000D02*
X16750000Y-11950000D01*
X16750000Y-11650000D02*
X16450000Y-11950000D01*
X16650000Y-9150000D02*
X16950000Y-9450000D01*
X16950000Y-9150000D02*
X16650000Y-9450000D01*
X16900000Y-11650000D02*
X17200000Y-11950000D01*
X17200000Y-11650000D02*
X16900000Y-11950000D01*
X21250000Y-6250000D02*
X21550000Y-6550000D01*
X21550000Y-6250000D02*
X21250000Y-6550000D01*
X21250000Y-11550000D02*
X21550000Y-11850000D01*
X21550000Y-11550000D02*
X21250000Y-11850000D01*
X24250000Y-6250000D02*
X24550000Y-6550000D01*
X24550000Y-6250000D02*
X24250000Y-6550000D01*
X24250000Y-11550000D02*
X24550000Y-11850000D01*
X24550000Y-11550000D02*
X24250000Y-11850000D01*
D12*
X3525000Y-8500000D02*
G75*
G02*
X3175000Y-8500000I-175000J0D01*
G01*
X3175000Y-8500000D02*
G75*
G02*
X3525000Y-8500000I175000J0D01*
G01*
X3525000Y-9750000D02*
G75*
G02*
X3175000Y-9750000I-175000J0D01*
G01*
X3175000Y-9750000D02*
G75*
G02*
X3525000Y-9750000I175000J0D01*
G01*
X4625000Y-6125000D02*
G75*
G02*
X4275000Y-6125000I-175000J0D01*
G01*
X4275000Y-6125000D02*
G75*
G02*
X4625000Y-6125000I175000J0D01*
G01*
X4625000Y-12125000D02*
G75*
G02*
X4275000Y-12125000I-175000J0D01*
G01*
X4275000Y-12125000D02*
G75*
G02*
X4625000Y-12125000I175000J0D01*
G01*
X13825000Y-6125000D02*
G75*
G02*
X13475000Y-6125000I-175000J0D01*
G01*
X13475000Y-6125000D02*
G75*
G02*
X13825000Y-6125000I175000J0D01*
G01*
X13825000Y-12125000D02*
G75*
G02*
X13475000Y-12125000I-175000J0D01*
G01*
X13475000Y-12125000D02*
G75*
G02*
X13825000Y-12125000I175000J0D01*
G01*
X18925000Y-6350000D02*
G75*
G02*
X18575000Y-6350000I-175000J0D01*
G01*
X18575000Y-6350000D02*
G75*
G02*
X18925000Y-6350000I175000J0D01*
G01*
X18925000Y-11950000D02*
G75*
G02*
X18575000Y-11950000I-175000J0D01*
G01*
X18575000Y-11950000D02*
G75*
G02*
X18925000Y-11950000I175000J0D01*
G01*
X22375000Y-4350000D02*
G75*
G02*
X22025000Y-4350000I-175000J0D01*
G01*
X22025000Y-4350000D02*
G75*
G02*
X22375000Y-4350000I175000J0D01*
G01*
X22375000Y-13950000D02*
G75*
G02*
X22025000Y-13950000I-175000J0D01*
G01*
X22025000Y-13950000D02*
G75*
G02*
X22375000Y-13950000I175000J0D01*
G01*
X23625000Y-4350000D02*
G75*
G02*
X23275000Y-4350000I-175000J0D01*
G01*
X23275000Y-4350000D02*
G75*
G02*
X23625000Y-4350000I175000J0D01*
G01*
X23625000Y-13950000D02*
G75*
G02*
X23275000Y-13950000I-175000J0D01*
G01*
X23275000Y-13950000D02*
G75*
G02*
X23625000Y-13950000I175000J0D01*
G01*
X25925000Y-7150000D02*
G75*
G02*
X25575000Y-7150000I-175000J0D01*
G01*
X25575000Y-7150000D02*
G75*
G02*
X25925000Y-7150000I175000J0D01*
G01*
X25925000Y-11150000D02*
G75*
G02*
X25575000Y-11150000I-175000J0D01*
G01*
X25575000Y-11150000D02*
G75*
G02*
X25925000Y-11150000I175000J0D01*
G01*
D13*
X5607500Y-7225000D02*
X5607500Y-7625000D01*
X5407500Y-7425000D02*
X5807500Y-7425000D01*
X5607500Y-12125000D02*
X5607500Y-12525000D01*
X5407500Y-12325000D02*
X5807500Y-12325000D01*
X14992500Y-7225000D02*
X14992500Y-7625000D01*
X14792500Y-7425000D02*
X15192500Y-7425000D01*
X14992500Y-12125000D02*
X14992500Y-12525000D01*
X14792500Y-12325000D02*
X15192500Y-12325000D01*
D11*
X2945777Y-14976484D02*
X2945777Y-14776484D01*
X2945777Y-14776484D02*
X2993396Y-14776484D01*
X2993396Y-14776484D02*
X3021967Y-14786008D01*
X3021967Y-14786008D02*
X3041015Y-14805055D01*
X3041015Y-14805055D02*
X3050539Y-14824103D01*
X3050539Y-14824103D02*
X3060062Y-14862198D01*
X3060062Y-14862198D02*
X3060062Y-14890769D01*
X3060062Y-14890769D02*
X3050539Y-14928865D01*
X3050539Y-14928865D02*
X3041015Y-14947912D01*
X3041015Y-14947912D02*
X3021967Y-14966960D01*
X3021967Y-14966960D02*
X2993396Y-14976484D01*
X2993396Y-14976484D02*
X2945777Y-14976484D01*
X3145777Y-14976484D02*
X3145777Y-14843150D01*
X3145777Y-14881246D02*
X3155301Y-14862198D01*
X3155301Y-14862198D02*
X3164824Y-14852674D01*
X3164824Y-14852674D02*
X3183872Y-14843150D01*
X3183872Y-14843150D02*
X3202920Y-14843150D01*
X3269586Y-14976484D02*
X3269586Y-14843150D01*
X3269586Y-14776484D02*
X3260062Y-14786008D01*
X3260062Y-14786008D02*
X3269586Y-14795531D01*
X3269586Y-14795531D02*
X3279110Y-14786008D01*
X3279110Y-14786008D02*
X3269586Y-14776484D01*
X3269586Y-14776484D02*
X3269586Y-14795531D01*
X3393396Y-14976484D02*
X3374348Y-14966960D01*
X3374348Y-14966960D02*
X3364824Y-14947912D01*
X3364824Y-14947912D02*
X3364824Y-14776484D01*
X3498158Y-14976484D02*
X3479110Y-14966960D01*
X3479110Y-14966960D02*
X3469586Y-14947912D01*
X3469586Y-14947912D02*
X3469586Y-14776484D01*
X3726729Y-14976484D02*
X3726729Y-14776484D01*
X3726729Y-14776484D02*
X3793396Y-14919341D01*
X3793396Y-14919341D02*
X3860062Y-14776484D01*
X3860062Y-14776484D02*
X3860062Y-14976484D01*
X4041015Y-14976484D02*
X4041015Y-14871722D01*
X4041015Y-14871722D02*
X4031491Y-14852674D01*
X4031491Y-14852674D02*
X4012443Y-14843150D01*
X4012443Y-14843150D02*
X3974348Y-14843150D01*
X3974348Y-14843150D02*
X3955301Y-14852674D01*
X4041015Y-14966960D02*
X4021967Y-14976484D01*
X4021967Y-14976484D02*
X3974348Y-14976484D01*
X3974348Y-14976484D02*
X3955301Y-14966960D01*
X3955301Y-14966960D02*
X3945777Y-14947912D01*
X3945777Y-14947912D02*
X3945777Y-14928865D01*
X3945777Y-14928865D02*
X3955301Y-14909817D01*
X3955301Y-14909817D02*
X3974348Y-14900293D01*
X3974348Y-14900293D02*
X4021967Y-14900293D01*
X4021967Y-14900293D02*
X4041015Y-14890769D01*
X4136253Y-14843150D02*
X4136253Y-15043150D01*
X4136253Y-14852674D02*
X4155301Y-14843150D01*
X4155301Y-14843150D02*
X4193396Y-14843150D01*
X4193396Y-14843150D02*
X4212444Y-14852674D01*
X4212444Y-14852674D02*
X4221967Y-14862198D01*
X4221967Y-14862198D02*
X4231491Y-14881246D01*
X4231491Y-14881246D02*
X4231491Y-14938388D01*
X4231491Y-14938388D02*
X4221967Y-14957436D01*
X4221967Y-14957436D02*
X4212444Y-14966960D01*
X4212444Y-14966960D02*
X4193396Y-14976484D01*
X4193396Y-14976484D02*
X4155301Y-14976484D01*
X4155301Y-14976484D02*
X4136253Y-14966960D01*
X4317205Y-14957436D02*
X4326729Y-14966960D01*
X4326729Y-14966960D02*
X4317205Y-14976484D01*
X4317205Y-14976484D02*
X4307682Y-14966960D01*
X4307682Y-14966960D02*
X4317205Y-14957436D01*
X4317205Y-14957436D02*
X4317205Y-14976484D01*
X4317205Y-14852674D02*
X4326729Y-14862198D01*
X4326729Y-14862198D02*
X4317205Y-14871722D01*
X4317205Y-14871722D02*
X4307682Y-14862198D01*
X4307682Y-14862198D02*
X4317205Y-14852674D01*
X4317205Y-14852674D02*
X4317205Y-14871722D01*
X2485000Y-15205000D02*
X2685000Y-15405000D01*
X2685000Y-15205000D02*
X2485000Y-15405000D01*
X2926729Y-15196484D02*
X3050539Y-15196484D01*
X3050539Y-15196484D02*
X2983872Y-15272674D01*
X2983872Y-15272674D02*
X3012443Y-15272674D01*
X3012443Y-15272674D02*
X3031491Y-15282198D01*
X3031491Y-15282198D02*
X3041015Y-15291722D01*
X3041015Y-15291722D02*
X3050539Y-15310769D01*
X3050539Y-15310769D02*
X3050539Y-15358388D01*
X3050539Y-15358388D02*
X3041015Y-15377436D01*
X3041015Y-15377436D02*
X3031491Y-15386960D01*
X3031491Y-15386960D02*
X3012443Y-15396484D01*
X3012443Y-15396484D02*
X2955301Y-15396484D01*
X2955301Y-15396484D02*
X2936253Y-15386960D01*
X2936253Y-15386960D02*
X2926729Y-15377436D01*
X3136253Y-15377436D02*
X3145777Y-15386960D01*
X3145777Y-15386960D02*
X3136253Y-15396484D01*
X3136253Y-15396484D02*
X3126729Y-15386960D01*
X3126729Y-15386960D02*
X3136253Y-15377436D01*
X3136253Y-15377436D02*
X3136253Y-15396484D01*
X3269586Y-15196484D02*
X3288634Y-15196484D01*
X3288634Y-15196484D02*
X3307682Y-15206008D01*
X3307682Y-15206008D02*
X3317205Y-15215531D01*
X3317205Y-15215531D02*
X3326729Y-15234579D01*
X3326729Y-15234579D02*
X3336253Y-15272674D01*
X3336253Y-15272674D02*
X3336253Y-15320293D01*
X3336253Y-15320293D02*
X3326729Y-15358388D01*
X3326729Y-15358388D02*
X3317205Y-15377436D01*
X3317205Y-15377436D02*
X3307682Y-15386960D01*
X3307682Y-15386960D02*
X3288634Y-15396484D01*
X3288634Y-15396484D02*
X3269586Y-15396484D01*
X3269586Y-15396484D02*
X3250539Y-15386960D01*
X3250539Y-15386960D02*
X3241015Y-15377436D01*
X3241015Y-15377436D02*
X3231491Y-15358388D01*
X3231491Y-15358388D02*
X3221967Y-15320293D01*
X3221967Y-15320293D02*
X3221967Y-15272674D01*
X3221967Y-15272674D02*
X3231491Y-15234579D01*
X3231491Y-15234579D02*
X3241015Y-15215531D01*
X3241015Y-15215531D02*
X3250539Y-15206008D01*
X3250539Y-15206008D02*
X3269586Y-15196484D01*
X3460062Y-15196484D02*
X3479110Y-15196484D01*
X3479110Y-15196484D02*
X3498158Y-15206008D01*
X3498158Y-15206008D02*
X3507682Y-15215531D01*
X3507682Y-15215531D02*
X3517205Y-15234579D01*
X3517205Y-15234579D02*
X3526729Y-15272674D01*
X3526729Y-15272674D02*
X3526729Y-15320293D01*
X3526729Y-15320293D02*
X3517205Y-15358388D01*
X3517205Y-15358388D02*
X3507682Y-15377436D01*
X3507682Y-15377436D02*
X3498158Y-15386960D01*
X3498158Y-15386960D02*
X3479110Y-15396484D01*
X3479110Y-15396484D02*
X3460062Y-15396484D01*
X3460062Y-15396484D02*
X3441015Y-15386960D01*
X3441015Y-15386960D02*
X3431491Y-15377436D01*
X3431491Y-15377436D02*
X3421967Y-15358388D01*
X3421967Y-15358388D02*
X3412443Y-15320293D01*
X3412443Y-15320293D02*
X3412443Y-15272674D01*
X3412443Y-15272674D02*
X3421967Y-15234579D01*
X3421967Y-15234579D02*
X3431491Y-15215531D01*
X3431491Y-15215531D02*
X3441015Y-15206008D01*
X3441015Y-15206008D02*
X3460062Y-15196484D01*
X3650539Y-15196484D02*
X3669586Y-15196484D01*
X3669586Y-15196484D02*
X3688634Y-15206008D01*
X3688634Y-15206008D02*
X3698158Y-15215531D01*
X3698158Y-15215531D02*
X3707682Y-15234579D01*
X3707682Y-15234579D02*
X3717205Y-15272674D01*
X3717205Y-15272674D02*
X3717205Y-15320293D01*
X3717205Y-15320293D02*
X3707682Y-15358388D01*
X3707682Y-15358388D02*
X3698158Y-15377436D01*
X3698158Y-15377436D02*
X3688634Y-15386960D01*
X3688634Y-15386960D02*
X3669586Y-15396484D01*
X3669586Y-15396484D02*
X3650539Y-15396484D01*
X3650539Y-15396484D02*
X3631491Y-15386960D01*
X3631491Y-15386960D02*
X3621967Y-15377436D01*
X3621967Y-15377436D02*
X3612443Y-15358388D01*
X3612443Y-15358388D02*
X3602920Y-15320293D01*
X3602920Y-15320293D02*
X3602920Y-15272674D01*
X3602920Y-15272674D02*
X3612443Y-15234579D01*
X3612443Y-15234579D02*
X3621967Y-15215531D01*
X3621967Y-15215531D02*
X3631491Y-15206008D01*
X3631491Y-15206008D02*
X3650539Y-15196484D01*
X3802920Y-15396484D02*
X3802920Y-15263150D01*
X3802920Y-15282198D02*
X3812443Y-15272674D01*
X3812443Y-15272674D02*
X3831491Y-15263150D01*
X3831491Y-15263150D02*
X3860063Y-15263150D01*
X3860063Y-15263150D02*
X3879110Y-15272674D01*
X3879110Y-15272674D02*
X3888634Y-15291722D01*
X3888634Y-15291722D02*
X3888634Y-15396484D01*
X3888634Y-15291722D02*
X3898158Y-15272674D01*
X3898158Y-15272674D02*
X3917205Y-15263150D01*
X3917205Y-15263150D02*
X3945777Y-15263150D01*
X3945777Y-15263150D02*
X3964824Y-15272674D01*
X3964824Y-15272674D02*
X3974348Y-15291722D01*
X3974348Y-15291722D02*
X3974348Y-15396484D01*
X4069586Y-15396484D02*
X4069586Y-15263150D01*
X4069586Y-15282198D02*
X4079110Y-15272674D01*
X4079110Y-15272674D02*
X4098158Y-15263150D01*
X4098158Y-15263150D02*
X4126729Y-15263150D01*
X4126729Y-15263150D02*
X4145777Y-15272674D01*
X4145777Y-15272674D02*
X4155301Y-15291722D01*
X4155301Y-15291722D02*
X4155301Y-15396484D01*
X4155301Y-15291722D02*
X4164824Y-15272674D01*
X4164824Y-15272674D02*
X4183872Y-15263150D01*
X4183872Y-15263150D02*
X4212444Y-15263150D01*
X4212444Y-15263150D02*
X4231491Y-15272674D01*
X4231491Y-15272674D02*
X4241015Y-15291722D01*
X4241015Y-15291722D02*
X4241015Y-15396484D01*
X4631491Y-15186960D02*
X4460063Y-15444103D01*
X4888634Y-15196484D02*
X4907682Y-15196484D01*
X4907682Y-15196484D02*
X4926729Y-15206008D01*
X4926729Y-15206008D02*
X4936253Y-15215531D01*
X4936253Y-15215531D02*
X4945777Y-15234579D01*
X4945777Y-15234579D02*
X4955301Y-15272674D01*
X4955301Y-15272674D02*
X4955301Y-15320293D01*
X4955301Y-15320293D02*
X4945777Y-15358388D01*
X4945777Y-15358388D02*
X4936253Y-15377436D01*
X4936253Y-15377436D02*
X4926729Y-15386960D01*
X4926729Y-15386960D02*
X4907682Y-15396484D01*
X4907682Y-15396484D02*
X4888634Y-15396484D01*
X4888634Y-15396484D02*
X4869587Y-15386960D01*
X4869587Y-15386960D02*
X4860063Y-15377436D01*
X4860063Y-15377436D02*
X4850539Y-15358388D01*
X4850539Y-15358388D02*
X4841015Y-15320293D01*
X4841015Y-15320293D02*
X4841015Y-15272674D01*
X4841015Y-15272674D02*
X4850539Y-15234579D01*
X4850539Y-15234579D02*
X4860063Y-15215531D01*
X4860063Y-15215531D02*
X4869587Y-15206008D01*
X4869587Y-15206008D02*
X4888634Y-15196484D01*
X5041015Y-15377436D02*
X5050539Y-15386960D01*
X5050539Y-15386960D02*
X5041015Y-15396484D01*
X5041015Y-15396484D02*
X5031491Y-15386960D01*
X5031491Y-15386960D02*
X5041015Y-15377436D01*
X5041015Y-15377436D02*
X5041015Y-15396484D01*
X5241015Y-15396484D02*
X5126729Y-15396484D01*
X5183872Y-15396484D02*
X5183872Y-15196484D01*
X5183872Y-15196484D02*
X5164825Y-15225055D01*
X5164825Y-15225055D02*
X5145777Y-15244103D01*
X5145777Y-15244103D02*
X5126729Y-15253627D01*
X5431491Y-15396484D02*
X5317206Y-15396484D01*
X5374348Y-15396484D02*
X5374348Y-15196484D01*
X5374348Y-15196484D02*
X5355301Y-15225055D01*
X5355301Y-15225055D02*
X5336253Y-15244103D01*
X5336253Y-15244103D02*
X5317206Y-15253627D01*
X5545777Y-15282198D02*
X5526729Y-15272674D01*
X5526729Y-15272674D02*
X5517206Y-15263150D01*
X5517206Y-15263150D02*
X5507682Y-15244103D01*
X5507682Y-15244103D02*
X5507682Y-15234579D01*
X5507682Y-15234579D02*
X5517206Y-15215531D01*
X5517206Y-15215531D02*
X5526729Y-15206008D01*
X5526729Y-15206008D02*
X5545777Y-15196484D01*
X5545777Y-15196484D02*
X5583872Y-15196484D01*
X5583872Y-15196484D02*
X5602920Y-15206008D01*
X5602920Y-15206008D02*
X5612444Y-15215531D01*
X5612444Y-15215531D02*
X5621967Y-15234579D01*
X5621967Y-15234579D02*
X5621967Y-15244103D01*
X5621967Y-15244103D02*
X5612444Y-15263150D01*
X5612444Y-15263150D02*
X5602920Y-15272674D01*
X5602920Y-15272674D02*
X5583872Y-15282198D01*
X5583872Y-15282198D02*
X5545777Y-15282198D01*
X5545777Y-15282198D02*
X5526729Y-15291722D01*
X5526729Y-15291722D02*
X5517206Y-15301246D01*
X5517206Y-15301246D02*
X5507682Y-15320293D01*
X5507682Y-15320293D02*
X5507682Y-15358388D01*
X5507682Y-15358388D02*
X5517206Y-15377436D01*
X5517206Y-15377436D02*
X5526729Y-15386960D01*
X5526729Y-15386960D02*
X5545777Y-15396484D01*
X5545777Y-15396484D02*
X5583872Y-15396484D01*
X5583872Y-15396484D02*
X5602920Y-15386960D01*
X5602920Y-15386960D02*
X5612444Y-15377436D01*
X5612444Y-15377436D02*
X5621967Y-15358388D01*
X5621967Y-15358388D02*
X5621967Y-15320293D01*
X5621967Y-15320293D02*
X5612444Y-15301246D01*
X5612444Y-15301246D02*
X5602920Y-15291722D01*
X5602920Y-15291722D02*
X5583872Y-15282198D01*
X5812444Y-15396484D02*
X5698158Y-15396484D01*
X5755301Y-15396484D02*
X5755301Y-15196484D01*
X5755301Y-15196484D02*
X5736253Y-15225055D01*
X5736253Y-15225055D02*
X5717206Y-15244103D01*
X5717206Y-15244103D02*
X5698158Y-15253627D01*
X5888634Y-15196484D02*
X5888634Y-15234579D01*
X5964825Y-15196484D02*
X5964825Y-15234579D01*
X6260063Y-15472674D02*
X6250539Y-15463150D01*
X6250539Y-15463150D02*
X6231491Y-15434579D01*
X6231491Y-15434579D02*
X6221968Y-15415531D01*
X6221968Y-15415531D02*
X6212444Y-15386960D01*
X6212444Y-15386960D02*
X6202920Y-15339341D01*
X6202920Y-15339341D02*
X6202920Y-15301246D01*
X6202920Y-15301246D02*
X6212444Y-15253627D01*
X6212444Y-15253627D02*
X6221968Y-15225055D01*
X6221968Y-15225055D02*
X6231491Y-15206008D01*
X6231491Y-15206008D02*
X6250539Y-15177436D01*
X6250539Y-15177436D02*
X6260063Y-15167912D01*
X6317206Y-15196484D02*
X6450539Y-15196484D01*
X6450539Y-15196484D02*
X6364825Y-15396484D01*
X6679110Y-15396484D02*
X6679110Y-15196484D01*
X6764825Y-15396484D02*
X6764825Y-15291722D01*
X6764825Y-15291722D02*
X6755301Y-15272674D01*
X6755301Y-15272674D02*
X6736253Y-15263150D01*
X6736253Y-15263150D02*
X6707682Y-15263150D01*
X6707682Y-15263150D02*
X6688634Y-15272674D01*
X6688634Y-15272674D02*
X6679110Y-15282198D01*
X6888634Y-15396484D02*
X6869587Y-15386960D01*
X6869587Y-15386960D02*
X6860063Y-15377436D01*
X6860063Y-15377436D02*
X6850539Y-15358388D01*
X6850539Y-15358388D02*
X6850539Y-15301246D01*
X6850539Y-15301246D02*
X6860063Y-15282198D01*
X6860063Y-15282198D02*
X6869587Y-15272674D01*
X6869587Y-15272674D02*
X6888634Y-15263150D01*
X6888634Y-15263150D02*
X6917206Y-15263150D01*
X6917206Y-15263150D02*
X6936253Y-15272674D01*
X6936253Y-15272674D02*
X6945777Y-15282198D01*
X6945777Y-15282198D02*
X6955301Y-15301246D01*
X6955301Y-15301246D02*
X6955301Y-15358388D01*
X6955301Y-15358388D02*
X6945777Y-15377436D01*
X6945777Y-15377436D02*
X6936253Y-15386960D01*
X6936253Y-15386960D02*
X6917206Y-15396484D01*
X6917206Y-15396484D02*
X6888634Y-15396484D01*
X7069587Y-15396484D02*
X7050539Y-15386960D01*
X7050539Y-15386960D02*
X7041015Y-15367912D01*
X7041015Y-15367912D02*
X7041015Y-15196484D01*
X7221968Y-15386960D02*
X7202920Y-15396484D01*
X7202920Y-15396484D02*
X7164825Y-15396484D01*
X7164825Y-15396484D02*
X7145777Y-15386960D01*
X7145777Y-15386960D02*
X7136253Y-15367912D01*
X7136253Y-15367912D02*
X7136253Y-15291722D01*
X7136253Y-15291722D02*
X7145777Y-15272674D01*
X7145777Y-15272674D02*
X7164825Y-15263150D01*
X7164825Y-15263150D02*
X7202920Y-15263150D01*
X7202920Y-15263150D02*
X7221968Y-15272674D01*
X7221968Y-15272674D02*
X7231491Y-15291722D01*
X7231491Y-15291722D02*
X7231491Y-15310769D01*
X7231491Y-15310769D02*
X7136253Y-15329817D01*
X7307682Y-15386960D02*
X7326730Y-15396484D01*
X7326730Y-15396484D02*
X7364825Y-15396484D01*
X7364825Y-15396484D02*
X7383872Y-15386960D01*
X7383872Y-15386960D02*
X7393396Y-15367912D01*
X7393396Y-15367912D02*
X7393396Y-15358388D01*
X7393396Y-15358388D02*
X7383872Y-15339341D01*
X7383872Y-15339341D02*
X7364825Y-15329817D01*
X7364825Y-15329817D02*
X7336253Y-15329817D01*
X7336253Y-15329817D02*
X7317206Y-15320293D01*
X7317206Y-15320293D02*
X7307682Y-15301246D01*
X7307682Y-15301246D02*
X7307682Y-15291722D01*
X7307682Y-15291722D02*
X7317206Y-15272674D01*
X7317206Y-15272674D02*
X7336253Y-15263150D01*
X7336253Y-15263150D02*
X7364825Y-15263150D01*
X7364825Y-15263150D02*
X7383872Y-15272674D01*
X7460063Y-15472674D02*
X7469587Y-15463150D01*
X7469587Y-15463150D02*
X7488634Y-15434579D01*
X7488634Y-15434579D02*
X7498158Y-15415531D01*
X7498158Y-15415531D02*
X7507682Y-15386960D01*
X7507682Y-15386960D02*
X7517206Y-15339341D01*
X7517206Y-15339341D02*
X7517206Y-15301246D01*
X7517206Y-15301246D02*
X7507682Y-15253627D01*
X7507682Y-15253627D02*
X7498158Y-15225055D01*
X7498158Y-15225055D02*
X7488634Y-15206008D01*
X7488634Y-15206008D02*
X7469587Y-15177436D01*
X7469587Y-15177436D02*
X7460063Y-15167912D01*
X7821968Y-15472674D02*
X7812444Y-15463150D01*
X7812444Y-15463150D02*
X7793396Y-15434579D01*
X7793396Y-15434579D02*
X7783872Y-15415531D01*
X7783872Y-15415531D02*
X7774349Y-15386960D01*
X7774349Y-15386960D02*
X7764825Y-15339341D01*
X7764825Y-15339341D02*
X7764825Y-15301246D01*
X7764825Y-15301246D02*
X7774349Y-15253627D01*
X7774349Y-15253627D02*
X7783872Y-15225055D01*
X7783872Y-15225055D02*
X7793396Y-15206008D01*
X7793396Y-15206008D02*
X7812444Y-15177436D01*
X7812444Y-15177436D02*
X7821968Y-15167912D01*
X7898158Y-15263150D02*
X7898158Y-15396484D01*
X7898158Y-15282198D02*
X7907682Y-15272674D01*
X7907682Y-15272674D02*
X7926730Y-15263150D01*
X7926730Y-15263150D02*
X7955301Y-15263150D01*
X7955301Y-15263150D02*
X7974349Y-15272674D01*
X7974349Y-15272674D02*
X7983872Y-15291722D01*
X7983872Y-15291722D02*
X7983872Y-15396484D01*
X8107682Y-15396484D02*
X8088634Y-15386960D01*
X8088634Y-15386960D02*
X8079111Y-15377436D01*
X8079111Y-15377436D02*
X8069587Y-15358388D01*
X8069587Y-15358388D02*
X8069587Y-15301246D01*
X8069587Y-15301246D02*
X8079111Y-15282198D01*
X8079111Y-15282198D02*
X8088634Y-15272674D01*
X8088634Y-15272674D02*
X8107682Y-15263150D01*
X8107682Y-15263150D02*
X8136253Y-15263150D01*
X8136253Y-15263150D02*
X8155301Y-15272674D01*
X8155301Y-15272674D02*
X8164825Y-15282198D01*
X8164825Y-15282198D02*
X8174349Y-15301246D01*
X8174349Y-15301246D02*
X8174349Y-15358388D01*
X8174349Y-15358388D02*
X8164825Y-15377436D01*
X8164825Y-15377436D02*
X8155301Y-15386960D01*
X8155301Y-15386960D02*
X8136253Y-15396484D01*
X8136253Y-15396484D02*
X8107682Y-15396484D01*
X8231492Y-15263150D02*
X8307682Y-15263150D01*
X8260063Y-15196484D02*
X8260063Y-15367912D01*
X8260063Y-15367912D02*
X8269587Y-15386960D01*
X8269587Y-15386960D02*
X8288634Y-15396484D01*
X8288634Y-15396484D02*
X8307682Y-15396484D01*
X8526730Y-15263150D02*
X8526730Y-15463150D01*
X8526730Y-15272674D02*
X8545777Y-15263150D01*
X8545777Y-15263150D02*
X8583873Y-15263150D01*
X8583873Y-15263150D02*
X8602920Y-15272674D01*
X8602920Y-15272674D02*
X8612444Y-15282198D01*
X8612444Y-15282198D02*
X8621968Y-15301246D01*
X8621968Y-15301246D02*
X8621968Y-15358388D01*
X8621968Y-15358388D02*
X8612444Y-15377436D01*
X8612444Y-15377436D02*
X8602920Y-15386960D01*
X8602920Y-15386960D02*
X8583873Y-15396484D01*
X8583873Y-15396484D02*
X8545777Y-15396484D01*
X8545777Y-15396484D02*
X8526730Y-15386960D01*
X8736254Y-15396484D02*
X8717206Y-15386960D01*
X8717206Y-15386960D02*
X8707682Y-15367912D01*
X8707682Y-15367912D02*
X8707682Y-15196484D01*
X8898158Y-15396484D02*
X8898158Y-15291722D01*
X8898158Y-15291722D02*
X8888635Y-15272674D01*
X8888635Y-15272674D02*
X8869587Y-15263150D01*
X8869587Y-15263150D02*
X8831492Y-15263150D01*
X8831492Y-15263150D02*
X8812444Y-15272674D01*
X8898158Y-15386960D02*
X8879111Y-15396484D01*
X8879111Y-15396484D02*
X8831492Y-15396484D01*
X8831492Y-15396484D02*
X8812444Y-15386960D01*
X8812444Y-15386960D02*
X8802920Y-15367912D01*
X8802920Y-15367912D02*
X8802920Y-15348865D01*
X8802920Y-15348865D02*
X8812444Y-15329817D01*
X8812444Y-15329817D02*
X8831492Y-15320293D01*
X8831492Y-15320293D02*
X8879111Y-15320293D01*
X8879111Y-15320293D02*
X8898158Y-15310769D01*
X8964825Y-15263150D02*
X9041015Y-15263150D01*
X8993396Y-15196484D02*
X8993396Y-15367912D01*
X8993396Y-15367912D02*
X9002920Y-15386960D01*
X9002920Y-15386960D02*
X9021968Y-15396484D01*
X9021968Y-15396484D02*
X9041015Y-15396484D01*
X9183873Y-15386960D02*
X9164825Y-15396484D01*
X9164825Y-15396484D02*
X9126730Y-15396484D01*
X9126730Y-15396484D02*
X9107682Y-15386960D01*
X9107682Y-15386960D02*
X9098158Y-15367912D01*
X9098158Y-15367912D02*
X9098158Y-15291722D01*
X9098158Y-15291722D02*
X9107682Y-15272674D01*
X9107682Y-15272674D02*
X9126730Y-15263150D01*
X9126730Y-15263150D02*
X9164825Y-15263150D01*
X9164825Y-15263150D02*
X9183873Y-15272674D01*
X9183873Y-15272674D02*
X9193396Y-15291722D01*
X9193396Y-15291722D02*
X9193396Y-15310769D01*
X9193396Y-15310769D02*
X9098158Y-15329817D01*
X9364825Y-15396484D02*
X9364825Y-15196484D01*
X9364825Y-15386960D02*
X9345777Y-15396484D01*
X9345777Y-15396484D02*
X9307682Y-15396484D01*
X9307682Y-15396484D02*
X9288635Y-15386960D01*
X9288635Y-15386960D02*
X9279111Y-15377436D01*
X9279111Y-15377436D02*
X9269587Y-15358388D01*
X9269587Y-15358388D02*
X9269587Y-15301246D01*
X9269587Y-15301246D02*
X9279111Y-15282198D01*
X9279111Y-15282198D02*
X9288635Y-15272674D01*
X9288635Y-15272674D02*
X9307682Y-15263150D01*
X9307682Y-15263150D02*
X9345777Y-15263150D01*
X9345777Y-15263150D02*
X9364825Y-15272674D01*
X9441016Y-15472674D02*
X9450539Y-15463150D01*
X9450539Y-15463150D02*
X9469587Y-15434579D01*
X9469587Y-15434579D02*
X9479111Y-15415531D01*
X9479111Y-15415531D02*
X9488635Y-15386960D01*
X9488635Y-15386960D02*
X9498158Y-15339341D01*
X9498158Y-15339341D02*
X9498158Y-15301246D01*
X9498158Y-15301246D02*
X9488635Y-15253627D01*
X9488635Y-15253627D02*
X9479111Y-15225055D01*
X9479111Y-15225055D02*
X9469587Y-15206008D01*
X9469587Y-15206008D02*
X9450539Y-15177436D01*
X9450539Y-15177436D02*
X9441016Y-15167912D01*
X2685000Y-15625000D02*
G75*
G02*
X2485000Y-15625000I-100000J0D01*
G01*
X2485000Y-15625000D02*
G75*
G02*
X2685000Y-15625000I100000J0D01*
G01*
X2926729Y-15516484D02*
X3050539Y-15516484D01*
X3050539Y-15516484D02*
X2983872Y-15592674D01*
X2983872Y-15592674D02*
X3012443Y-15592674D01*
X3012443Y-15592674D02*
X3031491Y-15602198D01*
X3031491Y-15602198D02*
X3041015Y-15611722D01*
X3041015Y-15611722D02*
X3050539Y-15630769D01*
X3050539Y-15630769D02*
X3050539Y-15678388D01*
X3050539Y-15678388D02*
X3041015Y-15697436D01*
X3041015Y-15697436D02*
X3031491Y-15706960D01*
X3031491Y-15706960D02*
X3012443Y-15716484D01*
X3012443Y-15716484D02*
X2955301Y-15716484D01*
X2955301Y-15716484D02*
X2936253Y-15706960D01*
X2936253Y-15706960D02*
X2926729Y-15697436D01*
X3136253Y-15697436D02*
X3145777Y-15706960D01*
X3145777Y-15706960D02*
X3136253Y-15716484D01*
X3136253Y-15716484D02*
X3126729Y-15706960D01*
X3126729Y-15706960D02*
X3136253Y-15697436D01*
X3136253Y-15697436D02*
X3136253Y-15716484D01*
X3326729Y-15516484D02*
X3231491Y-15516484D01*
X3231491Y-15516484D02*
X3221967Y-15611722D01*
X3221967Y-15611722D02*
X3231491Y-15602198D01*
X3231491Y-15602198D02*
X3250539Y-15592674D01*
X3250539Y-15592674D02*
X3298158Y-15592674D01*
X3298158Y-15592674D02*
X3317205Y-15602198D01*
X3317205Y-15602198D02*
X3326729Y-15611722D01*
X3326729Y-15611722D02*
X3336253Y-15630769D01*
X3336253Y-15630769D02*
X3336253Y-15678388D01*
X3336253Y-15678388D02*
X3326729Y-15697436D01*
X3326729Y-15697436D02*
X3317205Y-15706960D01*
X3317205Y-15706960D02*
X3298158Y-15716484D01*
X3298158Y-15716484D02*
X3250539Y-15716484D01*
X3250539Y-15716484D02*
X3231491Y-15706960D01*
X3231491Y-15706960D02*
X3221967Y-15697436D01*
X3460062Y-15516484D02*
X3479110Y-15516484D01*
X3479110Y-15516484D02*
X3498158Y-15526008D01*
X3498158Y-15526008D02*
X3507682Y-15535531D01*
X3507682Y-15535531D02*
X3517205Y-15554579D01*
X3517205Y-15554579D02*
X3526729Y-15592674D01*
X3526729Y-15592674D02*
X3526729Y-15640293D01*
X3526729Y-15640293D02*
X3517205Y-15678388D01*
X3517205Y-15678388D02*
X3507682Y-15697436D01*
X3507682Y-15697436D02*
X3498158Y-15706960D01*
X3498158Y-15706960D02*
X3479110Y-15716484D01*
X3479110Y-15716484D02*
X3460062Y-15716484D01*
X3460062Y-15716484D02*
X3441015Y-15706960D01*
X3441015Y-15706960D02*
X3431491Y-15697436D01*
X3431491Y-15697436D02*
X3421967Y-15678388D01*
X3421967Y-15678388D02*
X3412443Y-15640293D01*
X3412443Y-15640293D02*
X3412443Y-15592674D01*
X3412443Y-15592674D02*
X3421967Y-15554579D01*
X3421967Y-15554579D02*
X3431491Y-15535531D01*
X3431491Y-15535531D02*
X3441015Y-15526008D01*
X3441015Y-15526008D02*
X3460062Y-15516484D01*
X3650539Y-15516484D02*
X3669586Y-15516484D01*
X3669586Y-15516484D02*
X3688634Y-15526008D01*
X3688634Y-15526008D02*
X3698158Y-15535531D01*
X3698158Y-15535531D02*
X3707682Y-15554579D01*
X3707682Y-15554579D02*
X3717205Y-15592674D01*
X3717205Y-15592674D02*
X3717205Y-15640293D01*
X3717205Y-15640293D02*
X3707682Y-15678388D01*
X3707682Y-15678388D02*
X3698158Y-15697436D01*
X3698158Y-15697436D02*
X3688634Y-15706960D01*
X3688634Y-15706960D02*
X3669586Y-15716484D01*
X3669586Y-15716484D02*
X3650539Y-15716484D01*
X3650539Y-15716484D02*
X3631491Y-15706960D01*
X3631491Y-15706960D02*
X3621967Y-15697436D01*
X3621967Y-15697436D02*
X3612443Y-15678388D01*
X3612443Y-15678388D02*
X3602920Y-15640293D01*
X3602920Y-15640293D02*
X3602920Y-15592674D01*
X3602920Y-15592674D02*
X3612443Y-15554579D01*
X3612443Y-15554579D02*
X3621967Y-15535531D01*
X3621967Y-15535531D02*
X3631491Y-15526008D01*
X3631491Y-15526008D02*
X3650539Y-15516484D01*
X3802920Y-15716484D02*
X3802920Y-15583150D01*
X3802920Y-15602198D02*
X3812443Y-15592674D01*
X3812443Y-15592674D02*
X3831491Y-15583150D01*
X3831491Y-15583150D02*
X3860063Y-15583150D01*
X3860063Y-15583150D02*
X3879110Y-15592674D01*
X3879110Y-15592674D02*
X3888634Y-15611722D01*
X3888634Y-15611722D02*
X3888634Y-15716484D01*
X3888634Y-15611722D02*
X3898158Y-15592674D01*
X3898158Y-15592674D02*
X3917205Y-15583150D01*
X3917205Y-15583150D02*
X3945777Y-15583150D01*
X3945777Y-15583150D02*
X3964824Y-15592674D01*
X3964824Y-15592674D02*
X3974348Y-15611722D01*
X3974348Y-15611722D02*
X3974348Y-15716484D01*
X4069586Y-15716484D02*
X4069586Y-15583150D01*
X4069586Y-15602198D02*
X4079110Y-15592674D01*
X4079110Y-15592674D02*
X4098158Y-15583150D01*
X4098158Y-15583150D02*
X4126729Y-15583150D01*
X4126729Y-15583150D02*
X4145777Y-15592674D01*
X4145777Y-15592674D02*
X4155301Y-15611722D01*
X4155301Y-15611722D02*
X4155301Y-15716484D01*
X4155301Y-15611722D02*
X4164824Y-15592674D01*
X4164824Y-15592674D02*
X4183872Y-15583150D01*
X4183872Y-15583150D02*
X4212444Y-15583150D01*
X4212444Y-15583150D02*
X4231491Y-15592674D01*
X4231491Y-15592674D02*
X4241015Y-15611722D01*
X4241015Y-15611722D02*
X4241015Y-15716484D01*
X4631491Y-15506960D02*
X4460063Y-15764103D01*
X4888634Y-15516484D02*
X4907682Y-15516484D01*
X4907682Y-15516484D02*
X4926729Y-15526008D01*
X4926729Y-15526008D02*
X4936253Y-15535531D01*
X4936253Y-15535531D02*
X4945777Y-15554579D01*
X4945777Y-15554579D02*
X4955301Y-15592674D01*
X4955301Y-15592674D02*
X4955301Y-15640293D01*
X4955301Y-15640293D02*
X4945777Y-15678388D01*
X4945777Y-15678388D02*
X4936253Y-15697436D01*
X4936253Y-15697436D02*
X4926729Y-15706960D01*
X4926729Y-15706960D02*
X4907682Y-15716484D01*
X4907682Y-15716484D02*
X4888634Y-15716484D01*
X4888634Y-15716484D02*
X4869587Y-15706960D01*
X4869587Y-15706960D02*
X4860063Y-15697436D01*
X4860063Y-15697436D02*
X4850539Y-15678388D01*
X4850539Y-15678388D02*
X4841015Y-15640293D01*
X4841015Y-15640293D02*
X4841015Y-15592674D01*
X4841015Y-15592674D02*
X4850539Y-15554579D01*
X4850539Y-15554579D02*
X4860063Y-15535531D01*
X4860063Y-15535531D02*
X4869587Y-15526008D01*
X4869587Y-15526008D02*
X4888634Y-15516484D01*
X5041015Y-15697436D02*
X5050539Y-15706960D01*
X5050539Y-15706960D02*
X5041015Y-15716484D01*
X5041015Y-15716484D02*
X5031491Y-15706960D01*
X5031491Y-15706960D02*
X5041015Y-15697436D01*
X5041015Y-15697436D02*
X5041015Y-15716484D01*
X5241015Y-15716484D02*
X5126729Y-15716484D01*
X5183872Y-15716484D02*
X5183872Y-15516484D01*
X5183872Y-15516484D02*
X5164825Y-15545055D01*
X5164825Y-15545055D02*
X5145777Y-15564103D01*
X5145777Y-15564103D02*
X5126729Y-15573627D01*
X5307682Y-15516484D02*
X5431491Y-15516484D01*
X5431491Y-15516484D02*
X5364825Y-15592674D01*
X5364825Y-15592674D02*
X5393396Y-15592674D01*
X5393396Y-15592674D02*
X5412444Y-15602198D01*
X5412444Y-15602198D02*
X5421968Y-15611722D01*
X5421968Y-15611722D02*
X5431491Y-15630769D01*
X5431491Y-15630769D02*
X5431491Y-15678388D01*
X5431491Y-15678388D02*
X5421968Y-15697436D01*
X5421968Y-15697436D02*
X5412444Y-15706960D01*
X5412444Y-15706960D02*
X5393396Y-15716484D01*
X5393396Y-15716484D02*
X5336253Y-15716484D01*
X5336253Y-15716484D02*
X5317206Y-15706960D01*
X5317206Y-15706960D02*
X5307682Y-15697436D01*
X5498158Y-15516484D02*
X5631491Y-15516484D01*
X5631491Y-15516484D02*
X5545777Y-15716484D01*
X5736253Y-15602198D02*
X5717206Y-15592674D01*
X5717206Y-15592674D02*
X5707682Y-15583150D01*
X5707682Y-15583150D02*
X5698158Y-15564103D01*
X5698158Y-15564103D02*
X5698158Y-15554579D01*
X5698158Y-15554579D02*
X5707682Y-15535531D01*
X5707682Y-15535531D02*
X5717206Y-15526008D01*
X5717206Y-15526008D02*
X5736253Y-15516484D01*
X5736253Y-15516484D02*
X5774348Y-15516484D01*
X5774348Y-15516484D02*
X5793396Y-15526008D01*
X5793396Y-15526008D02*
X5802920Y-15535531D01*
X5802920Y-15535531D02*
X5812444Y-15554579D01*
X5812444Y-15554579D02*
X5812444Y-15564103D01*
X5812444Y-15564103D02*
X5802920Y-15583150D01*
X5802920Y-15583150D02*
X5793396Y-15592674D01*
X5793396Y-15592674D02*
X5774348Y-15602198D01*
X5774348Y-15602198D02*
X5736253Y-15602198D01*
X5736253Y-15602198D02*
X5717206Y-15611722D01*
X5717206Y-15611722D02*
X5707682Y-15621246D01*
X5707682Y-15621246D02*
X5698158Y-15640293D01*
X5698158Y-15640293D02*
X5698158Y-15678388D01*
X5698158Y-15678388D02*
X5707682Y-15697436D01*
X5707682Y-15697436D02*
X5717206Y-15706960D01*
X5717206Y-15706960D02*
X5736253Y-15716484D01*
X5736253Y-15716484D02*
X5774348Y-15716484D01*
X5774348Y-15716484D02*
X5793396Y-15706960D01*
X5793396Y-15706960D02*
X5802920Y-15697436D01*
X5802920Y-15697436D02*
X5812444Y-15678388D01*
X5812444Y-15678388D02*
X5812444Y-15640293D01*
X5812444Y-15640293D02*
X5802920Y-15621246D01*
X5802920Y-15621246D02*
X5793396Y-15611722D01*
X5793396Y-15611722D02*
X5774348Y-15602198D01*
X5888634Y-15516484D02*
X5888634Y-15554579D01*
X5964825Y-15516484D02*
X5964825Y-15554579D01*
X6260063Y-15792674D02*
X6250539Y-15783150D01*
X6250539Y-15783150D02*
X6231491Y-15754579D01*
X6231491Y-15754579D02*
X6221968Y-15735531D01*
X6221968Y-15735531D02*
X6212444Y-15706960D01*
X6212444Y-15706960D02*
X6202920Y-15659341D01*
X6202920Y-15659341D02*
X6202920Y-15621246D01*
X6202920Y-15621246D02*
X6212444Y-15573627D01*
X6212444Y-15573627D02*
X6221968Y-15545055D01*
X6221968Y-15545055D02*
X6231491Y-15526008D01*
X6231491Y-15526008D02*
X6250539Y-15497436D01*
X6250539Y-15497436D02*
X6260063Y-15487912D01*
X6441015Y-15716484D02*
X6326729Y-15716484D01*
X6383872Y-15716484D02*
X6383872Y-15516484D01*
X6383872Y-15516484D02*
X6364825Y-15545055D01*
X6364825Y-15545055D02*
X6345777Y-15564103D01*
X6345777Y-15564103D02*
X6326729Y-15573627D01*
X6612444Y-15583150D02*
X6612444Y-15716484D01*
X6564825Y-15506960D02*
X6517206Y-15649817D01*
X6517206Y-15649817D02*
X6641015Y-15649817D01*
X6869587Y-15716484D02*
X6869587Y-15516484D01*
X6955301Y-15716484D02*
X6955301Y-15611722D01*
X6955301Y-15611722D02*
X6945777Y-15592674D01*
X6945777Y-15592674D02*
X6926730Y-15583150D01*
X6926730Y-15583150D02*
X6898158Y-15583150D01*
X6898158Y-15583150D02*
X6879110Y-15592674D01*
X6879110Y-15592674D02*
X6869587Y-15602198D01*
X7079110Y-15716484D02*
X7060063Y-15706960D01*
X7060063Y-15706960D02*
X7050539Y-15697436D01*
X7050539Y-15697436D02*
X7041015Y-15678388D01*
X7041015Y-15678388D02*
X7041015Y-15621246D01*
X7041015Y-15621246D02*
X7050539Y-15602198D01*
X7050539Y-15602198D02*
X7060063Y-15592674D01*
X7060063Y-15592674D02*
X7079110Y-15583150D01*
X7079110Y-15583150D02*
X7107682Y-15583150D01*
X7107682Y-15583150D02*
X7126730Y-15592674D01*
X7126730Y-15592674D02*
X7136253Y-15602198D01*
X7136253Y-15602198D02*
X7145777Y-15621246D01*
X7145777Y-15621246D02*
X7145777Y-15678388D01*
X7145777Y-15678388D02*
X7136253Y-15697436D01*
X7136253Y-15697436D02*
X7126730Y-15706960D01*
X7126730Y-15706960D02*
X7107682Y-15716484D01*
X7107682Y-15716484D02*
X7079110Y-15716484D01*
X7260063Y-15716484D02*
X7241015Y-15706960D01*
X7241015Y-15706960D02*
X7231491Y-15687912D01*
X7231491Y-15687912D02*
X7231491Y-15516484D01*
X7412444Y-15706960D02*
X7393396Y-15716484D01*
X7393396Y-15716484D02*
X7355301Y-15716484D01*
X7355301Y-15716484D02*
X7336253Y-15706960D01*
X7336253Y-15706960D02*
X7326730Y-15687912D01*
X7326730Y-15687912D02*
X7326730Y-15611722D01*
X7326730Y-15611722D02*
X7336253Y-15592674D01*
X7336253Y-15592674D02*
X7355301Y-15583150D01*
X7355301Y-15583150D02*
X7393396Y-15583150D01*
X7393396Y-15583150D02*
X7412444Y-15592674D01*
X7412444Y-15592674D02*
X7421968Y-15611722D01*
X7421968Y-15611722D02*
X7421968Y-15630769D01*
X7421968Y-15630769D02*
X7326730Y-15649817D01*
X7498158Y-15706960D02*
X7517206Y-15716484D01*
X7517206Y-15716484D02*
X7555301Y-15716484D01*
X7555301Y-15716484D02*
X7574349Y-15706960D01*
X7574349Y-15706960D02*
X7583872Y-15687912D01*
X7583872Y-15687912D02*
X7583872Y-15678388D01*
X7583872Y-15678388D02*
X7574349Y-15659341D01*
X7574349Y-15659341D02*
X7555301Y-15649817D01*
X7555301Y-15649817D02*
X7526730Y-15649817D01*
X7526730Y-15649817D02*
X7507682Y-15640293D01*
X7507682Y-15640293D02*
X7498158Y-15621246D01*
X7498158Y-15621246D02*
X7498158Y-15611722D01*
X7498158Y-15611722D02*
X7507682Y-15592674D01*
X7507682Y-15592674D02*
X7526730Y-15583150D01*
X7526730Y-15583150D02*
X7555301Y-15583150D01*
X7555301Y-15583150D02*
X7574349Y-15592674D01*
X7650539Y-15792674D02*
X7660063Y-15783150D01*
X7660063Y-15783150D02*
X7679111Y-15754579D01*
X7679111Y-15754579D02*
X7688634Y-15735531D01*
X7688634Y-15735531D02*
X7698158Y-15706960D01*
X7698158Y-15706960D02*
X7707682Y-15659341D01*
X7707682Y-15659341D02*
X7707682Y-15621246D01*
X7707682Y-15621246D02*
X7698158Y-15573627D01*
X7698158Y-15573627D02*
X7688634Y-15545055D01*
X7688634Y-15545055D02*
X7679111Y-15526008D01*
X7679111Y-15526008D02*
X7660063Y-15497436D01*
X7660063Y-15497436D02*
X7650539Y-15487912D01*
X8012444Y-15792674D02*
X8002920Y-15783150D01*
X8002920Y-15783150D02*
X7983872Y-15754579D01*
X7983872Y-15754579D02*
X7974349Y-15735531D01*
X7974349Y-15735531D02*
X7964825Y-15706960D01*
X7964825Y-15706960D02*
X7955301Y-15659341D01*
X7955301Y-15659341D02*
X7955301Y-15621246D01*
X7955301Y-15621246D02*
X7964825Y-15573627D01*
X7964825Y-15573627D02*
X7974349Y-15545055D01*
X7974349Y-15545055D02*
X7983872Y-15526008D01*
X7983872Y-15526008D02*
X8002920Y-15497436D01*
X8002920Y-15497436D02*
X8012444Y-15487912D01*
X8088634Y-15583150D02*
X8088634Y-15716484D01*
X8088634Y-15602198D02*
X8098158Y-15592674D01*
X8098158Y-15592674D02*
X8117206Y-15583150D01*
X8117206Y-15583150D02*
X8145777Y-15583150D01*
X8145777Y-15583150D02*
X8164825Y-15592674D01*
X8164825Y-15592674D02*
X8174349Y-15611722D01*
X8174349Y-15611722D02*
X8174349Y-15716484D01*
X8298158Y-15716484D02*
X8279111Y-15706960D01*
X8279111Y-15706960D02*
X8269587Y-15697436D01*
X8269587Y-15697436D02*
X8260063Y-15678388D01*
X8260063Y-15678388D02*
X8260063Y-15621246D01*
X8260063Y-15621246D02*
X8269587Y-15602198D01*
X8269587Y-15602198D02*
X8279111Y-15592674D01*
X8279111Y-15592674D02*
X8298158Y-15583150D01*
X8298158Y-15583150D02*
X8326730Y-15583150D01*
X8326730Y-15583150D02*
X8345777Y-15592674D01*
X8345777Y-15592674D02*
X8355301Y-15602198D01*
X8355301Y-15602198D02*
X8364825Y-15621246D01*
X8364825Y-15621246D02*
X8364825Y-15678388D01*
X8364825Y-15678388D02*
X8355301Y-15697436D01*
X8355301Y-15697436D02*
X8345777Y-15706960D01*
X8345777Y-15706960D02*
X8326730Y-15716484D01*
X8326730Y-15716484D02*
X8298158Y-15716484D01*
X8421968Y-15583150D02*
X8498158Y-15583150D01*
X8450539Y-15516484D02*
X8450539Y-15687912D01*
X8450539Y-15687912D02*
X8460063Y-15706960D01*
X8460063Y-15706960D02*
X8479111Y-15716484D01*
X8479111Y-15716484D02*
X8498158Y-15716484D01*
X8717206Y-15583150D02*
X8717206Y-15783150D01*
X8717206Y-15592674D02*
X8736254Y-15583150D01*
X8736254Y-15583150D02*
X8774349Y-15583150D01*
X8774349Y-15583150D02*
X8793396Y-15592674D01*
X8793396Y-15592674D02*
X8802920Y-15602198D01*
X8802920Y-15602198D02*
X8812444Y-15621246D01*
X8812444Y-15621246D02*
X8812444Y-15678388D01*
X8812444Y-15678388D02*
X8802920Y-15697436D01*
X8802920Y-15697436D02*
X8793396Y-15706960D01*
X8793396Y-15706960D02*
X8774349Y-15716484D01*
X8774349Y-15716484D02*
X8736254Y-15716484D01*
X8736254Y-15716484D02*
X8717206Y-15706960D01*
X8926730Y-15716484D02*
X8907682Y-15706960D01*
X8907682Y-15706960D02*
X8898158Y-15687912D01*
X8898158Y-15687912D02*
X8898158Y-15516484D01*
X9088635Y-15716484D02*
X9088635Y-15611722D01*
X9088635Y-15611722D02*
X9079111Y-15592674D01*
X9079111Y-15592674D02*
X9060063Y-15583150D01*
X9060063Y-15583150D02*
X9021968Y-15583150D01*
X9021968Y-15583150D02*
X9002920Y-15592674D01*
X9088635Y-15706960D02*
X9069587Y-15716484D01*
X9069587Y-15716484D02*
X9021968Y-15716484D01*
X9021968Y-15716484D02*
X9002920Y-15706960D01*
X9002920Y-15706960D02*
X8993396Y-15687912D01*
X8993396Y-15687912D02*
X8993396Y-15668865D01*
X8993396Y-15668865D02*
X9002920Y-15649817D01*
X9002920Y-15649817D02*
X9021968Y-15640293D01*
X9021968Y-15640293D02*
X9069587Y-15640293D01*
X9069587Y-15640293D02*
X9088635Y-15630769D01*
X9155301Y-15583150D02*
X9231492Y-15583150D01*
X9183873Y-15516484D02*
X9183873Y-15687912D01*
X9183873Y-15687912D02*
X9193396Y-15706960D01*
X9193396Y-15706960D02*
X9212444Y-15716484D01*
X9212444Y-15716484D02*
X9231492Y-15716484D01*
X9374349Y-15706960D02*
X9355301Y-15716484D01*
X9355301Y-15716484D02*
X9317206Y-15716484D01*
X9317206Y-15716484D02*
X9298158Y-15706960D01*
X9298158Y-15706960D02*
X9288635Y-15687912D01*
X9288635Y-15687912D02*
X9288635Y-15611722D01*
X9288635Y-15611722D02*
X9298158Y-15592674D01*
X9298158Y-15592674D02*
X9317206Y-15583150D01*
X9317206Y-15583150D02*
X9355301Y-15583150D01*
X9355301Y-15583150D02*
X9374349Y-15592674D01*
X9374349Y-15592674D02*
X9383873Y-15611722D01*
X9383873Y-15611722D02*
X9383873Y-15630769D01*
X9383873Y-15630769D02*
X9288635Y-15649817D01*
X9555301Y-15716484D02*
X9555301Y-15516484D01*
X9555301Y-15706960D02*
X9536254Y-15716484D01*
X9536254Y-15716484D02*
X9498158Y-15716484D01*
X9498158Y-15716484D02*
X9479111Y-15706960D01*
X9479111Y-15706960D02*
X9469587Y-15697436D01*
X9469587Y-15697436D02*
X9460063Y-15678388D01*
X9460063Y-15678388D02*
X9460063Y-15621246D01*
X9460063Y-15621246D02*
X9469587Y-15602198D01*
X9469587Y-15602198D02*
X9479111Y-15592674D01*
X9479111Y-15592674D02*
X9498158Y-15583150D01*
X9498158Y-15583150D02*
X9536254Y-15583150D01*
X9536254Y-15583150D02*
X9555301Y-15592674D01*
X9631492Y-15792674D02*
X9641016Y-15783150D01*
X9641016Y-15783150D02*
X9660063Y-15754579D01*
X9660063Y-15754579D02*
X9669587Y-15735531D01*
X9669587Y-15735531D02*
X9679111Y-15706960D01*
X9679111Y-15706960D02*
X9688635Y-15659341D01*
X9688635Y-15659341D02*
X9688635Y-15621246D01*
X9688635Y-15621246D02*
X9679111Y-15573627D01*
X9679111Y-15573627D02*
X9669587Y-15545055D01*
X9669587Y-15545055D02*
X9660063Y-15526008D01*
X9660063Y-15526008D02*
X9641016Y-15497436D01*
X9641016Y-15497436D02*
X9631492Y-15487912D01*
X2585000Y-15845000D02*
X2585000Y-16045000D01*
X2485000Y-15945000D02*
X2685000Y-15945000D01*
X3031491Y-15903150D02*
X3031491Y-16036484D01*
X2983872Y-15826960D02*
X2936253Y-15969817D01*
X2936253Y-15969817D02*
X3060062Y-15969817D01*
X3136253Y-16017436D02*
X3145777Y-16026960D01*
X3145777Y-16026960D02*
X3136253Y-16036484D01*
X3136253Y-16036484D02*
X3126729Y-16026960D01*
X3126729Y-16026960D02*
X3136253Y-16017436D01*
X3136253Y-16017436D02*
X3136253Y-16036484D01*
X3269586Y-15836484D02*
X3288634Y-15836484D01*
X3288634Y-15836484D02*
X3307682Y-15846008D01*
X3307682Y-15846008D02*
X3317205Y-15855531D01*
X3317205Y-15855531D02*
X3326729Y-15874579D01*
X3326729Y-15874579D02*
X3336253Y-15912674D01*
X3336253Y-15912674D02*
X3336253Y-15960293D01*
X3336253Y-15960293D02*
X3326729Y-15998388D01*
X3326729Y-15998388D02*
X3317205Y-16017436D01*
X3317205Y-16017436D02*
X3307682Y-16026960D01*
X3307682Y-16026960D02*
X3288634Y-16036484D01*
X3288634Y-16036484D02*
X3269586Y-16036484D01*
X3269586Y-16036484D02*
X3250539Y-16026960D01*
X3250539Y-16026960D02*
X3241015Y-16017436D01*
X3241015Y-16017436D02*
X3231491Y-15998388D01*
X3231491Y-15998388D02*
X3221967Y-15960293D01*
X3221967Y-15960293D02*
X3221967Y-15912674D01*
X3221967Y-15912674D02*
X3231491Y-15874579D01*
X3231491Y-15874579D02*
X3241015Y-15855531D01*
X3241015Y-15855531D02*
X3250539Y-15846008D01*
X3250539Y-15846008D02*
X3269586Y-15836484D01*
X3460062Y-15836484D02*
X3479110Y-15836484D01*
X3479110Y-15836484D02*
X3498158Y-15846008D01*
X3498158Y-15846008D02*
X3507682Y-15855531D01*
X3507682Y-15855531D02*
X3517205Y-15874579D01*
X3517205Y-15874579D02*
X3526729Y-15912674D01*
X3526729Y-15912674D02*
X3526729Y-15960293D01*
X3526729Y-15960293D02*
X3517205Y-15998388D01*
X3517205Y-15998388D02*
X3507682Y-16017436D01*
X3507682Y-16017436D02*
X3498158Y-16026960D01*
X3498158Y-16026960D02*
X3479110Y-16036484D01*
X3479110Y-16036484D02*
X3460062Y-16036484D01*
X3460062Y-16036484D02*
X3441015Y-16026960D01*
X3441015Y-16026960D02*
X3431491Y-16017436D01*
X3431491Y-16017436D02*
X3421967Y-15998388D01*
X3421967Y-15998388D02*
X3412443Y-15960293D01*
X3412443Y-15960293D02*
X3412443Y-15912674D01*
X3412443Y-15912674D02*
X3421967Y-15874579D01*
X3421967Y-15874579D02*
X3431491Y-15855531D01*
X3431491Y-15855531D02*
X3441015Y-15846008D01*
X3441015Y-15846008D02*
X3460062Y-15836484D01*
X3650539Y-15836484D02*
X3669586Y-15836484D01*
X3669586Y-15836484D02*
X3688634Y-15846008D01*
X3688634Y-15846008D02*
X3698158Y-15855531D01*
X3698158Y-15855531D02*
X3707682Y-15874579D01*
X3707682Y-15874579D02*
X3717205Y-15912674D01*
X3717205Y-15912674D02*
X3717205Y-15960293D01*
X3717205Y-15960293D02*
X3707682Y-15998388D01*
X3707682Y-15998388D02*
X3698158Y-16017436D01*
X3698158Y-16017436D02*
X3688634Y-16026960D01*
X3688634Y-16026960D02*
X3669586Y-16036484D01*
X3669586Y-16036484D02*
X3650539Y-16036484D01*
X3650539Y-16036484D02*
X3631491Y-16026960D01*
X3631491Y-16026960D02*
X3621967Y-16017436D01*
X3621967Y-16017436D02*
X3612443Y-15998388D01*
X3612443Y-15998388D02*
X3602920Y-15960293D01*
X3602920Y-15960293D02*
X3602920Y-15912674D01*
X3602920Y-15912674D02*
X3612443Y-15874579D01*
X3612443Y-15874579D02*
X3621967Y-15855531D01*
X3621967Y-15855531D02*
X3631491Y-15846008D01*
X3631491Y-15846008D02*
X3650539Y-15836484D01*
X3802920Y-16036484D02*
X3802920Y-15903150D01*
X3802920Y-15922198D02*
X3812443Y-15912674D01*
X3812443Y-15912674D02*
X3831491Y-15903150D01*
X3831491Y-15903150D02*
X3860063Y-15903150D01*
X3860063Y-15903150D02*
X3879110Y-15912674D01*
X3879110Y-15912674D02*
X3888634Y-15931722D01*
X3888634Y-15931722D02*
X3888634Y-16036484D01*
X3888634Y-15931722D02*
X3898158Y-15912674D01*
X3898158Y-15912674D02*
X3917205Y-15903150D01*
X3917205Y-15903150D02*
X3945777Y-15903150D01*
X3945777Y-15903150D02*
X3964824Y-15912674D01*
X3964824Y-15912674D02*
X3974348Y-15931722D01*
X3974348Y-15931722D02*
X3974348Y-16036484D01*
X4069586Y-16036484D02*
X4069586Y-15903150D01*
X4069586Y-15922198D02*
X4079110Y-15912674D01*
X4079110Y-15912674D02*
X4098158Y-15903150D01*
X4098158Y-15903150D02*
X4126729Y-15903150D01*
X4126729Y-15903150D02*
X4145777Y-15912674D01*
X4145777Y-15912674D02*
X4155301Y-15931722D01*
X4155301Y-15931722D02*
X4155301Y-16036484D01*
X4155301Y-15931722D02*
X4164824Y-15912674D01*
X4164824Y-15912674D02*
X4183872Y-15903150D01*
X4183872Y-15903150D02*
X4212444Y-15903150D01*
X4212444Y-15903150D02*
X4231491Y-15912674D01*
X4231491Y-15912674D02*
X4241015Y-15931722D01*
X4241015Y-15931722D02*
X4241015Y-16036484D01*
X4631491Y-15826960D02*
X4460063Y-16084103D01*
X4888634Y-15836484D02*
X4907682Y-15836484D01*
X4907682Y-15836484D02*
X4926729Y-15846008D01*
X4926729Y-15846008D02*
X4936253Y-15855531D01*
X4936253Y-15855531D02*
X4945777Y-15874579D01*
X4945777Y-15874579D02*
X4955301Y-15912674D01*
X4955301Y-15912674D02*
X4955301Y-15960293D01*
X4955301Y-15960293D02*
X4945777Y-15998388D01*
X4945777Y-15998388D02*
X4936253Y-16017436D01*
X4936253Y-16017436D02*
X4926729Y-16026960D01*
X4926729Y-16026960D02*
X4907682Y-16036484D01*
X4907682Y-16036484D02*
X4888634Y-16036484D01*
X4888634Y-16036484D02*
X4869587Y-16026960D01*
X4869587Y-16026960D02*
X4860063Y-16017436D01*
X4860063Y-16017436D02*
X4850539Y-15998388D01*
X4850539Y-15998388D02*
X4841015Y-15960293D01*
X4841015Y-15960293D02*
X4841015Y-15912674D01*
X4841015Y-15912674D02*
X4850539Y-15874579D01*
X4850539Y-15874579D02*
X4860063Y-15855531D01*
X4860063Y-15855531D02*
X4869587Y-15846008D01*
X4869587Y-15846008D02*
X4888634Y-15836484D01*
X5041015Y-16017436D02*
X5050539Y-16026960D01*
X5050539Y-16026960D02*
X5041015Y-16036484D01*
X5041015Y-16036484D02*
X5031491Y-16026960D01*
X5031491Y-16026960D02*
X5041015Y-16017436D01*
X5041015Y-16017436D02*
X5041015Y-16036484D01*
X5241015Y-16036484D02*
X5126729Y-16036484D01*
X5183872Y-16036484D02*
X5183872Y-15836484D01*
X5183872Y-15836484D02*
X5164825Y-15865055D01*
X5164825Y-15865055D02*
X5145777Y-15884103D01*
X5145777Y-15884103D02*
X5126729Y-15893627D01*
X5421968Y-15836484D02*
X5326729Y-15836484D01*
X5326729Y-15836484D02*
X5317206Y-15931722D01*
X5317206Y-15931722D02*
X5326729Y-15922198D01*
X5326729Y-15922198D02*
X5345777Y-15912674D01*
X5345777Y-15912674D02*
X5393396Y-15912674D01*
X5393396Y-15912674D02*
X5412444Y-15922198D01*
X5412444Y-15922198D02*
X5421968Y-15931722D01*
X5421968Y-15931722D02*
X5431491Y-15950769D01*
X5431491Y-15950769D02*
X5431491Y-15998388D01*
X5431491Y-15998388D02*
X5421968Y-16017436D01*
X5421968Y-16017436D02*
X5412444Y-16026960D01*
X5412444Y-16026960D02*
X5393396Y-16036484D01*
X5393396Y-16036484D02*
X5345777Y-16036484D01*
X5345777Y-16036484D02*
X5326729Y-16026960D01*
X5326729Y-16026960D02*
X5317206Y-16017436D01*
X5498158Y-15836484D02*
X5631491Y-15836484D01*
X5631491Y-15836484D02*
X5545777Y-16036484D01*
X5802920Y-15836484D02*
X5707682Y-15836484D01*
X5707682Y-15836484D02*
X5698158Y-15931722D01*
X5698158Y-15931722D02*
X5707682Y-15922198D01*
X5707682Y-15922198D02*
X5726729Y-15912674D01*
X5726729Y-15912674D02*
X5774348Y-15912674D01*
X5774348Y-15912674D02*
X5793396Y-15922198D01*
X5793396Y-15922198D02*
X5802920Y-15931722D01*
X5802920Y-15931722D02*
X5812444Y-15950769D01*
X5812444Y-15950769D02*
X5812444Y-15998388D01*
X5812444Y-15998388D02*
X5802920Y-16017436D01*
X5802920Y-16017436D02*
X5793396Y-16026960D01*
X5793396Y-16026960D02*
X5774348Y-16036484D01*
X5774348Y-16036484D02*
X5726729Y-16036484D01*
X5726729Y-16036484D02*
X5707682Y-16026960D01*
X5707682Y-16026960D02*
X5698158Y-16017436D01*
X5888634Y-15836484D02*
X5888634Y-15874579D01*
X5964825Y-15836484D02*
X5964825Y-15874579D01*
X6260063Y-16112674D02*
X6250539Y-16103150D01*
X6250539Y-16103150D02*
X6231491Y-16074579D01*
X6231491Y-16074579D02*
X6221968Y-16055531D01*
X6221968Y-16055531D02*
X6212444Y-16026960D01*
X6212444Y-16026960D02*
X6202920Y-15979341D01*
X6202920Y-15979341D02*
X6202920Y-15941246D01*
X6202920Y-15941246D02*
X6212444Y-15893627D01*
X6212444Y-15893627D02*
X6221968Y-15865055D01*
X6221968Y-15865055D02*
X6231491Y-15846008D01*
X6231491Y-15846008D02*
X6250539Y-15817436D01*
X6250539Y-15817436D02*
X6260063Y-15807912D01*
X6421968Y-15903150D02*
X6421968Y-16036484D01*
X6374348Y-15826960D02*
X6326729Y-15969817D01*
X6326729Y-15969817D02*
X6450539Y-15969817D01*
X6679110Y-16036484D02*
X6679110Y-15836484D01*
X6764825Y-16036484D02*
X6764825Y-15931722D01*
X6764825Y-15931722D02*
X6755301Y-15912674D01*
X6755301Y-15912674D02*
X6736253Y-15903150D01*
X6736253Y-15903150D02*
X6707682Y-15903150D01*
X6707682Y-15903150D02*
X6688634Y-15912674D01*
X6688634Y-15912674D02*
X6679110Y-15922198D01*
X6888634Y-16036484D02*
X6869587Y-16026960D01*
X6869587Y-16026960D02*
X6860063Y-16017436D01*
X6860063Y-16017436D02*
X6850539Y-15998388D01*
X6850539Y-15998388D02*
X6850539Y-15941246D01*
X6850539Y-15941246D02*
X6860063Y-15922198D01*
X6860063Y-15922198D02*
X6869587Y-15912674D01*
X6869587Y-15912674D02*
X6888634Y-15903150D01*
X6888634Y-15903150D02*
X6917206Y-15903150D01*
X6917206Y-15903150D02*
X6936253Y-15912674D01*
X6936253Y-15912674D02*
X6945777Y-15922198D01*
X6945777Y-15922198D02*
X6955301Y-15941246D01*
X6955301Y-15941246D02*
X6955301Y-15998388D01*
X6955301Y-15998388D02*
X6945777Y-16017436D01*
X6945777Y-16017436D02*
X6936253Y-16026960D01*
X6936253Y-16026960D02*
X6917206Y-16036484D01*
X6917206Y-16036484D02*
X6888634Y-16036484D01*
X7069587Y-16036484D02*
X7050539Y-16026960D01*
X7050539Y-16026960D02*
X7041015Y-16007912D01*
X7041015Y-16007912D02*
X7041015Y-15836484D01*
X7221968Y-16026960D02*
X7202920Y-16036484D01*
X7202920Y-16036484D02*
X7164825Y-16036484D01*
X7164825Y-16036484D02*
X7145777Y-16026960D01*
X7145777Y-16026960D02*
X7136253Y-16007912D01*
X7136253Y-16007912D02*
X7136253Y-15931722D01*
X7136253Y-15931722D02*
X7145777Y-15912674D01*
X7145777Y-15912674D02*
X7164825Y-15903150D01*
X7164825Y-15903150D02*
X7202920Y-15903150D01*
X7202920Y-15903150D02*
X7221968Y-15912674D01*
X7221968Y-15912674D02*
X7231491Y-15931722D01*
X7231491Y-15931722D02*
X7231491Y-15950769D01*
X7231491Y-15950769D02*
X7136253Y-15969817D01*
X7307682Y-16026960D02*
X7326730Y-16036484D01*
X7326730Y-16036484D02*
X7364825Y-16036484D01*
X7364825Y-16036484D02*
X7383872Y-16026960D01*
X7383872Y-16026960D02*
X7393396Y-16007912D01*
X7393396Y-16007912D02*
X7393396Y-15998388D01*
X7393396Y-15998388D02*
X7383872Y-15979341D01*
X7383872Y-15979341D02*
X7364825Y-15969817D01*
X7364825Y-15969817D02*
X7336253Y-15969817D01*
X7336253Y-15969817D02*
X7317206Y-15960293D01*
X7317206Y-15960293D02*
X7307682Y-15941246D01*
X7307682Y-15941246D02*
X7307682Y-15931722D01*
X7307682Y-15931722D02*
X7317206Y-15912674D01*
X7317206Y-15912674D02*
X7336253Y-15903150D01*
X7336253Y-15903150D02*
X7364825Y-15903150D01*
X7364825Y-15903150D02*
X7383872Y-15912674D01*
X7460063Y-16112674D02*
X7469587Y-16103150D01*
X7469587Y-16103150D02*
X7488634Y-16074579D01*
X7488634Y-16074579D02*
X7498158Y-16055531D01*
X7498158Y-16055531D02*
X7507682Y-16026960D01*
X7507682Y-16026960D02*
X7517206Y-15979341D01*
X7517206Y-15979341D02*
X7517206Y-15941246D01*
X7517206Y-15941246D02*
X7507682Y-15893627D01*
X7507682Y-15893627D02*
X7498158Y-15865055D01*
X7498158Y-15865055D02*
X7488634Y-15846008D01*
X7488634Y-15846008D02*
X7469587Y-15817436D01*
X7469587Y-15817436D02*
X7460063Y-15807912D01*
X7821968Y-16112674D02*
X7812444Y-16103150D01*
X7812444Y-16103150D02*
X7793396Y-16074579D01*
X7793396Y-16074579D02*
X7783872Y-16055531D01*
X7783872Y-16055531D02*
X7774349Y-16026960D01*
X7774349Y-16026960D02*
X7764825Y-15979341D01*
X7764825Y-15979341D02*
X7764825Y-15941246D01*
X7764825Y-15941246D02*
X7774349Y-15893627D01*
X7774349Y-15893627D02*
X7783872Y-15865055D01*
X7783872Y-15865055D02*
X7793396Y-15846008D01*
X7793396Y-15846008D02*
X7812444Y-15817436D01*
X7812444Y-15817436D02*
X7821968Y-15807912D01*
X7898158Y-15903150D02*
X7898158Y-16036484D01*
X7898158Y-15922198D02*
X7907682Y-15912674D01*
X7907682Y-15912674D02*
X7926730Y-15903150D01*
X7926730Y-15903150D02*
X7955301Y-15903150D01*
X7955301Y-15903150D02*
X7974349Y-15912674D01*
X7974349Y-15912674D02*
X7983872Y-15931722D01*
X7983872Y-15931722D02*
X7983872Y-16036484D01*
X8107682Y-16036484D02*
X8088634Y-16026960D01*
X8088634Y-16026960D02*
X8079111Y-16017436D01*
X8079111Y-16017436D02*
X8069587Y-15998388D01*
X8069587Y-15998388D02*
X8069587Y-15941246D01*
X8069587Y-15941246D02*
X8079111Y-15922198D01*
X8079111Y-15922198D02*
X8088634Y-15912674D01*
X8088634Y-15912674D02*
X8107682Y-15903150D01*
X8107682Y-15903150D02*
X8136253Y-15903150D01*
X8136253Y-15903150D02*
X8155301Y-15912674D01*
X8155301Y-15912674D02*
X8164825Y-15922198D01*
X8164825Y-15922198D02*
X8174349Y-15941246D01*
X8174349Y-15941246D02*
X8174349Y-15998388D01*
X8174349Y-15998388D02*
X8164825Y-16017436D01*
X8164825Y-16017436D02*
X8155301Y-16026960D01*
X8155301Y-16026960D02*
X8136253Y-16036484D01*
X8136253Y-16036484D02*
X8107682Y-16036484D01*
X8231492Y-15903150D02*
X8307682Y-15903150D01*
X8260063Y-15836484D02*
X8260063Y-16007912D01*
X8260063Y-16007912D02*
X8269587Y-16026960D01*
X8269587Y-16026960D02*
X8288634Y-16036484D01*
X8288634Y-16036484D02*
X8307682Y-16036484D01*
X8526730Y-15903150D02*
X8526730Y-16103150D01*
X8526730Y-15912674D02*
X8545777Y-15903150D01*
X8545777Y-15903150D02*
X8583873Y-15903150D01*
X8583873Y-15903150D02*
X8602920Y-15912674D01*
X8602920Y-15912674D02*
X8612444Y-15922198D01*
X8612444Y-15922198D02*
X8621968Y-15941246D01*
X8621968Y-15941246D02*
X8621968Y-15998388D01*
X8621968Y-15998388D02*
X8612444Y-16017436D01*
X8612444Y-16017436D02*
X8602920Y-16026960D01*
X8602920Y-16026960D02*
X8583873Y-16036484D01*
X8583873Y-16036484D02*
X8545777Y-16036484D01*
X8545777Y-16036484D02*
X8526730Y-16026960D01*
X8736254Y-16036484D02*
X8717206Y-16026960D01*
X8717206Y-16026960D02*
X8707682Y-16007912D01*
X8707682Y-16007912D02*
X8707682Y-15836484D01*
X8898158Y-16036484D02*
X8898158Y-15931722D01*
X8898158Y-15931722D02*
X8888635Y-15912674D01*
X8888635Y-15912674D02*
X8869587Y-15903150D01*
X8869587Y-15903150D02*
X8831492Y-15903150D01*
X8831492Y-15903150D02*
X8812444Y-15912674D01*
X8898158Y-16026960D02*
X8879111Y-16036484D01*
X8879111Y-16036484D02*
X8831492Y-16036484D01*
X8831492Y-16036484D02*
X8812444Y-16026960D01*
X8812444Y-16026960D02*
X8802920Y-16007912D01*
X8802920Y-16007912D02*
X8802920Y-15988865D01*
X8802920Y-15988865D02*
X8812444Y-15969817D01*
X8812444Y-15969817D02*
X8831492Y-15960293D01*
X8831492Y-15960293D02*
X8879111Y-15960293D01*
X8879111Y-15960293D02*
X8898158Y-15950769D01*
X8964825Y-15903150D02*
X9041015Y-15903150D01*
X8993396Y-15836484D02*
X8993396Y-16007912D01*
X8993396Y-16007912D02*
X9002920Y-16026960D01*
X9002920Y-16026960D02*
X9021968Y-16036484D01*
X9021968Y-16036484D02*
X9041015Y-16036484D01*
X9183873Y-16026960D02*
X9164825Y-16036484D01*
X9164825Y-16036484D02*
X9126730Y-16036484D01*
X9126730Y-16036484D02*
X9107682Y-16026960D01*
X9107682Y-16026960D02*
X9098158Y-16007912D01*
X9098158Y-16007912D02*
X9098158Y-15931722D01*
X9098158Y-15931722D02*
X9107682Y-15912674D01*
X9107682Y-15912674D02*
X9126730Y-15903150D01*
X9126730Y-15903150D02*
X9164825Y-15903150D01*
X9164825Y-15903150D02*
X9183873Y-15912674D01*
X9183873Y-15912674D02*
X9193396Y-15931722D01*
X9193396Y-15931722D02*
X9193396Y-15950769D01*
X9193396Y-15950769D02*
X9098158Y-15969817D01*
X9364825Y-16036484D02*
X9364825Y-15836484D01*
X9364825Y-16026960D02*
X9345777Y-16036484D01*
X9345777Y-16036484D02*
X9307682Y-16036484D01*
X9307682Y-16036484D02*
X9288635Y-16026960D01*
X9288635Y-16026960D02*
X9279111Y-16017436D01*
X9279111Y-16017436D02*
X9269587Y-15998388D01*
X9269587Y-15998388D02*
X9269587Y-15941246D01*
X9269587Y-15941246D02*
X9279111Y-15922198D01*
X9279111Y-15922198D02*
X9288635Y-15912674D01*
X9288635Y-15912674D02*
X9307682Y-15903150D01*
X9307682Y-15903150D02*
X9345777Y-15903150D01*
X9345777Y-15903150D02*
X9364825Y-15912674D01*
X9441016Y-16112674D02*
X9450539Y-16103150D01*
X9450539Y-16103150D02*
X9469587Y-16074579D01*
X9469587Y-16074579D02*
X9479111Y-16055531D01*
X9479111Y-16055531D02*
X9488635Y-16026960D01*
X9488635Y-16026960D02*
X9498158Y-15979341D01*
X9498158Y-15979341D02*
X9498158Y-15941246D01*
X9498158Y-15941246D02*
X9488635Y-15893627D01*
X9488635Y-15893627D02*
X9479111Y-15865055D01*
X9479111Y-15865055D02*
X9469587Y-15846008D01*
X9469587Y-15846008D02*
X9450539Y-15817436D01*
X9450539Y-15817436D02*
X9441016Y-15807912D01*
M02*
