M48
; DRILL file {KiCad 8.0.6} date 2025-04-15T17:41:16+0100
; FORMAT={-:-/ absolute / metric / decimal}
; #@! TF.CreationDate,2025-04-15T17:41:16+01:00
; #@! TF.GenerationSoftware,Kicad,Pcbnew,8.0.6
; #@! TF.FileFunction,Plated,1,2,PTH
FMAT,2
METRIC
; #@! TA.AperFunction,Plated,PTH,ComponentDrill
T1C0.800
; #@! TA.AperFunction,Plated,PTH,ViaDrill
T2C1.000
; #@! TA.AperFunction,Plated,PTH,ComponentDrill
T3C1.000
; #@! TA.AperFunction,Plated,PTH,ComponentDrill
T4C1.100
; #@! TA.AperFunction,Plated,PTH,ComponentDrill
T5C1.200
; #@! TA.AperFunction,Plated,PTH,ComponentDrill
T6C1.250
; #@! TA.AperFunction,Plated,PTH,ComponentDrill
T7C1.300
; #@! TA.AperFunction,Plated,PTH,ComponentDrill
T8C2.500
%
G90
G05
T1
X56.0Y-60.0
X58.5Y-60.0
X173.0Y-55.0
X175.5Y-55.0
X200.25Y-71.75
X202.75Y-71.75
X207.25Y-120.25
X207.25Y-122.75
X216.25Y-48.75
X216.25Y-51.25
T2
X64.0Y-59.5
X69.5Y-59.5
X72.0Y-65.5
X72.0Y-79.5
X77.0Y-68.0
X78.5Y-50.5
X87.5Y-65.0
X96.5Y-79.5
X110.0Y-79.5
X152.0Y-46.5
X156.0Y-60.0
X156.0Y-119.0
X165.5Y-44.0
X179.5Y-58.0
X191.0Y-72.5
X196.0Y-132.0
X197.5Y-60.0
X202.0Y-123.25
X203.5Y-109.0
X206.0Y-112.5
X236.0Y-123.5
X240.5Y-58.0
T3
X61.755Y-73.115
X61.755Y-75.655
X64.295Y-73.115
X64.295Y-75.655
X66.835Y-73.115
X66.835Y-75.655
X69.375Y-73.115
X69.375Y-75.655
X71.915Y-73.115
X71.915Y-75.655
X74.455Y-73.115
X74.455Y-75.655
X76.995Y-73.115
X76.995Y-75.655
X79.535Y-73.115
X79.535Y-75.655
X82.075Y-73.115
X82.075Y-75.655
X84.615Y-73.115
X84.615Y-75.655
X87.155Y-73.115
X87.155Y-75.655
X89.695Y-73.115
X89.695Y-75.655
X92.235Y-73.115
X92.235Y-75.655
X94.775Y-73.115
X94.775Y-75.655
X97.315Y-73.115
X97.315Y-75.655
X99.855Y-73.115
X99.855Y-75.655
X102.395Y-73.115
X102.395Y-75.655
X104.935Y-73.115
X104.935Y-75.655
X107.475Y-73.115
X107.475Y-75.655
X110.015Y-73.115
X110.015Y-75.655
X160.885Y-60.0
X163.425Y-60.0
X165.965Y-60.0
X168.505Y-60.0
X171.045Y-60.0
X173.585Y-60.0
X176.125Y-60.0
X201.5Y-61.42
X201.5Y-63.96
X201.5Y-66.5
X202.0Y-114.5
X202.0Y-117.04
X202.0Y-119.58
T4
X201.5Y-76.84
X201.5Y-87.0
X201.5Y-92.92
X201.5Y-103.08
T5
X226.0Y-52.75
X231.0Y-52.75
T6
X159.5Y-117.5
X159.5Y-120.5
X177.0Y-117.5
X177.0Y-120.5
X222.0Y-62.0
X222.0Y-119.0
X236.0Y-62.0
X236.0Y-119.0
T7
X168.0Y-81.75
X168.0Y-104.25
T8
X190.0Y-138.0
X194.699Y-138.0
X199.398Y-138.0
M30
