%TF.GenerationSoftware,KiCad,Pcbnew,8.0.6*%
%TF.CreationDate,2025-04-15T17:41:16+01:00*%
%TF.ProjectId,DeltaBot,44656c74-6142-46f7-942e-6b696361645f,rev?*%
%TF.SameCoordinates,Original*%
%TF.FileFunction,Drillmap*%
%TF.FilePolarity,Positive*%
%FSLAX45Y45*%
G04 Gerber Fmt 4.5, Leading zero omitted, Abs format (unit mm)*
G04 Created by KiCad (PCBNEW 8.0.6) date 2025-04-15 17:41:16*
%MOMM*%
%LPD*%
G01*
G04 APERTURE LIST*
%ADD10C,0.300000*%
%ADD11C,0.200000*%
%ADD12C,0.100000*%
%ADD13C,0.110000*%
%ADD14C,0.120000*%
%ADD15C,0.125000*%
%ADD16C,0.130000*%
%ADD17C,0.250000*%
G04 APERTURE END LIST*
D10*
X5200000Y-12650000D02*
X15300000Y-12650000D01*
X5200000Y-14650000D02*
X2700000Y-14650000D01*
X26850000Y-3600000D02*
X26850000Y-14650000D01*
X15300000Y-12650000D02*
X15300000Y-14650000D01*
X26850000Y-14650000D02*
X15300000Y-14650000D01*
X2700000Y-14650000D02*
X2700000Y-3600000D01*
X5200000Y-14650000D02*
X5200000Y-12650000D01*
X2700000Y-3600000D02*
X26850000Y-3600000D01*
D11*
D12*
X5560000Y-5960000D02*
X5640000Y-6040000D01*
X5640000Y-5960000D02*
X5560000Y-6040000D01*
X5810000Y-5960000D02*
X5890000Y-6040000D01*
X5890000Y-5960000D02*
X5810000Y-6040000D01*
X17260000Y-5460000D02*
X17340000Y-5540000D01*
X17340000Y-5460000D02*
X17260000Y-5540000D01*
X17510000Y-5460000D02*
X17590000Y-5540000D01*
X17590000Y-5460000D02*
X17510000Y-5540000D01*
X19985000Y-7135000D02*
X20065000Y-7215000D01*
X20065000Y-7135000D02*
X19985000Y-7215000D01*
X20235000Y-7135000D02*
X20315000Y-7215000D01*
X20315000Y-7135000D02*
X20235000Y-7215000D01*
X20685000Y-11985000D02*
X20765000Y-12065000D01*
X20765000Y-11985000D02*
X20685000Y-12065000D01*
X20685000Y-12235000D02*
X20765000Y-12315000D01*
X20765000Y-12235000D02*
X20685000Y-12315000D01*
X21585000Y-4835000D02*
X21665000Y-4915000D01*
X21665000Y-4835000D02*
X21585000Y-4915000D01*
X21585000Y-5085000D02*
X21665000Y-5165000D01*
X21665000Y-5085000D02*
X21585000Y-5165000D01*
X6450000Y-5950000D02*
G75*
G02*
X6350000Y-5950000I-50000J0D01*
G01*
X6350000Y-5950000D02*
G75*
G02*
X6450000Y-5950000I50000J0D01*
G01*
X7000000Y-5950000D02*
G75*
G02*
X6900000Y-5950000I-50000J0D01*
G01*
X6900000Y-5950000D02*
G75*
G02*
X7000000Y-5950000I50000J0D01*
G01*
X7250000Y-6550000D02*
G75*
G02*
X7150000Y-6550000I-50000J0D01*
G01*
X7150000Y-6550000D02*
G75*
G02*
X7250000Y-6550000I50000J0D01*
G01*
X7250000Y-7950000D02*
G75*
G02*
X7150000Y-7950000I-50000J0D01*
G01*
X7150000Y-7950000D02*
G75*
G02*
X7250000Y-7950000I50000J0D01*
G01*
X7750000Y-6800000D02*
G75*
G02*
X7650000Y-6800000I-50000J0D01*
G01*
X7650000Y-6800000D02*
G75*
G02*
X7750000Y-6800000I50000J0D01*
G01*
X7900000Y-5050000D02*
G75*
G02*
X7800000Y-5050000I-50000J0D01*
G01*
X7800000Y-5050000D02*
G75*
G02*
X7900000Y-5050000I50000J0D01*
G01*
X8800000Y-6500000D02*
G75*
G02*
X8700000Y-6500000I-50000J0D01*
G01*
X8700000Y-6500000D02*
G75*
G02*
X8800000Y-6500000I50000J0D01*
G01*
X9700000Y-7950000D02*
G75*
G02*
X9600000Y-7950000I-50000J0D01*
G01*
X9600000Y-7950000D02*
G75*
G02*
X9700000Y-7950000I50000J0D01*
G01*
X11050000Y-7950000D02*
G75*
G02*
X10950000Y-7950000I-50000J0D01*
G01*
X10950000Y-7950000D02*
G75*
G02*
X11050000Y-7950000I50000J0D01*
G01*
X15250000Y-4650000D02*
G75*
G02*
X15150000Y-4650000I-50000J0D01*
G01*
X15150000Y-4650000D02*
G75*
G02*
X15250000Y-4650000I50000J0D01*
G01*
X15650000Y-6000000D02*
G75*
G02*
X15550000Y-6000000I-50000J0D01*
G01*
X15550000Y-6000000D02*
G75*
G02*
X15650000Y-6000000I50000J0D01*
G01*
X15650000Y-11900000D02*
G75*
G02*
X15550000Y-11900000I-50000J0D01*
G01*
X15550000Y-11900000D02*
G75*
G02*
X15650000Y-11900000I50000J0D01*
G01*
X16600000Y-4400000D02*
G75*
G02*
X16500000Y-4400000I-50000J0D01*
G01*
X16500000Y-4400000D02*
G75*
G02*
X16600000Y-4400000I50000J0D01*
G01*
X18000000Y-5800000D02*
G75*
G02*
X17900000Y-5800000I-50000J0D01*
G01*
X17900000Y-5800000D02*
G75*
G02*
X18000000Y-5800000I50000J0D01*
G01*
X19150000Y-7250000D02*
G75*
G02*
X19050000Y-7250000I-50000J0D01*
G01*
X19050000Y-7250000D02*
G75*
G02*
X19150000Y-7250000I50000J0D01*
G01*
X19650000Y-13200000D02*
G75*
G02*
X19550000Y-13200000I-50000J0D01*
G01*
X19550000Y-13200000D02*
G75*
G02*
X19650000Y-13200000I50000J0D01*
G01*
X19800000Y-6000000D02*
G75*
G02*
X19700000Y-6000000I-50000J0D01*
G01*
X19700000Y-6000000D02*
G75*
G02*
X19800000Y-6000000I50000J0D01*
G01*
X20250000Y-12325000D02*
G75*
G02*
X20150000Y-12325000I-50000J0D01*
G01*
X20150000Y-12325000D02*
G75*
G02*
X20250000Y-12325000I50000J0D01*
G01*
X20400000Y-10900000D02*
G75*
G02*
X20300000Y-10900000I-50000J0D01*
G01*
X20300000Y-10900000D02*
G75*
G02*
X20400000Y-10900000I50000J0D01*
G01*
X20650000Y-11250000D02*
G75*
G02*
X20550000Y-11250000I-50000J0D01*
G01*
X20550000Y-11250000D02*
G75*
G02*
X20650000Y-11250000I50000J0D01*
G01*
X23650000Y-12350000D02*
G75*
G02*
X23550000Y-12350000I-50000J0D01*
G01*
X23550000Y-12350000D02*
G75*
G02*
X23650000Y-12350000I50000J0D01*
G01*
X24100000Y-5800000D02*
G75*
G02*
X24000000Y-5800000I-50000J0D01*
G01*
X24000000Y-5800000D02*
G75*
G02*
X24100000Y-5800000I50000J0D01*
G01*
X6175500Y-7261500D02*
X6175500Y-7361500D01*
X6125500Y-7311500D02*
X6225500Y-7311500D01*
X6175500Y-7515500D02*
X6175500Y-7615500D01*
X6125500Y-7565500D02*
X6225500Y-7565500D01*
X6429500Y-7261500D02*
X6429500Y-7361500D01*
X6379500Y-7311500D02*
X6479500Y-7311500D01*
X6429500Y-7515500D02*
X6429500Y-7615500D01*
X6379500Y-7565500D02*
X6479500Y-7565500D01*
X6683500Y-7261500D02*
X6683500Y-7361500D01*
X6633500Y-7311500D02*
X6733500Y-7311500D01*
X6683500Y-7515500D02*
X6683500Y-7615500D01*
X6633500Y-7565500D02*
X6733500Y-7565500D01*
X6937500Y-7261500D02*
X6937500Y-7361500D01*
X6887500Y-7311500D02*
X6987500Y-7311500D01*
X6937500Y-7515500D02*
X6937500Y-7615500D01*
X6887500Y-7565500D02*
X6987500Y-7565500D01*
X7191500Y-7261500D02*
X7191500Y-7361500D01*
X7141500Y-7311500D02*
X7241500Y-7311500D01*
X7191500Y-7515500D02*
X7191500Y-7615500D01*
X7141500Y-7565500D02*
X7241500Y-7565500D01*
X7445500Y-7261500D02*
X7445500Y-7361500D01*
X7395500Y-7311500D02*
X7495500Y-7311500D01*
X7445500Y-7515500D02*
X7445500Y-7615500D01*
X7395500Y-7565500D02*
X7495500Y-7565500D01*
X7699500Y-7261500D02*
X7699500Y-7361500D01*
X7649500Y-7311500D02*
X7749500Y-7311500D01*
X7699500Y-7515500D02*
X7699500Y-7615500D01*
X7649500Y-7565500D02*
X7749500Y-7565500D01*
X7953500Y-7261500D02*
X7953500Y-7361500D01*
X7903500Y-7311500D02*
X8003500Y-7311500D01*
X7953500Y-7515500D02*
X7953500Y-7615500D01*
X7903500Y-7565500D02*
X8003500Y-7565500D01*
X8207500Y-7261500D02*
X8207500Y-7361500D01*
X8157500Y-7311500D02*
X8257500Y-7311500D01*
X8207500Y-7515500D02*
X8207500Y-7615500D01*
X8157500Y-7565500D02*
X8257500Y-7565500D01*
X8461500Y-7261500D02*
X8461500Y-7361500D01*
X8411500Y-7311500D02*
X8511500Y-7311500D01*
X8461500Y-7515500D02*
X8461500Y-7615500D01*
X8411500Y-7565500D02*
X8511500Y-7565500D01*
X8715500Y-7261500D02*
X8715500Y-7361500D01*
X8665500Y-7311500D02*
X8765500Y-7311500D01*
X8715500Y-7515500D02*
X8715500Y-7615500D01*
X8665500Y-7565500D02*
X8765500Y-7565500D01*
X8969500Y-7261500D02*
X8969500Y-7361500D01*
X8919500Y-7311500D02*
X9019500Y-7311500D01*
X8969500Y-7515500D02*
X8969500Y-7615500D01*
X8919500Y-7565500D02*
X9019500Y-7565500D01*
X9223500Y-7261500D02*
X9223500Y-7361500D01*
X9173500Y-7311500D02*
X9273500Y-7311500D01*
X9223500Y-7515500D02*
X9223500Y-7615500D01*
X9173500Y-7565500D02*
X9273500Y-7565500D01*
X9477500Y-7261500D02*
X9477500Y-7361500D01*
X9427500Y-7311500D02*
X9527500Y-7311500D01*
X9477500Y-7515500D02*
X9477500Y-7615500D01*
X9427500Y-7565500D02*
X9527500Y-7565500D01*
X9731500Y-7261500D02*
X9731500Y-7361500D01*
X9681500Y-7311500D02*
X9781500Y-7311500D01*
X9731500Y-7515500D02*
X9731500Y-7615500D01*
X9681500Y-7565500D02*
X9781500Y-7565500D01*
X9985500Y-7261500D02*
X9985500Y-7361500D01*
X9935500Y-7311500D02*
X10035500Y-7311500D01*
X9985500Y-7515500D02*
X9985500Y-7615500D01*
X9935500Y-7565500D02*
X10035500Y-7565500D01*
X10239500Y-7261500D02*
X10239500Y-7361500D01*
X10189500Y-7311500D02*
X10289500Y-7311500D01*
X10239500Y-7515500D02*
X10239500Y-7615500D01*
X10189500Y-7565500D02*
X10289500Y-7565500D01*
X10493500Y-7261500D02*
X10493500Y-7361500D01*
X10443500Y-7311500D02*
X10543500Y-7311500D01*
X10493500Y-7515500D02*
X10493500Y-7615500D01*
X10443500Y-7565500D02*
X10543500Y-7565500D01*
X10747500Y-7261500D02*
X10747500Y-7361500D01*
X10697500Y-7311500D02*
X10797500Y-7311500D01*
X10747500Y-7515500D02*
X10747500Y-7615500D01*
X10697500Y-7565500D02*
X10797500Y-7565500D01*
X11001500Y-7261500D02*
X11001500Y-7361500D01*
X10951500Y-7311500D02*
X11051500Y-7311500D01*
X11001500Y-7515500D02*
X11001500Y-7615500D01*
X10951500Y-7565500D02*
X11051500Y-7565500D01*
X16088500Y-5950000D02*
X16088500Y-6050000D01*
X16038500Y-6000000D02*
X16138500Y-6000000D01*
X16342500Y-5950000D02*
X16342500Y-6050000D01*
X16292500Y-6000000D02*
X16392500Y-6000000D01*
X16596500Y-5950000D02*
X16596500Y-6050000D01*
X16546500Y-6000000D02*
X16646500Y-6000000D01*
X16850500Y-5950000D02*
X16850500Y-6050000D01*
X16800500Y-6000000D02*
X16900500Y-6000000D01*
X17104500Y-5950000D02*
X17104500Y-6050000D01*
X17054500Y-6000000D02*
X17154500Y-6000000D01*
X17358500Y-5950000D02*
X17358500Y-6050000D01*
X17308500Y-6000000D02*
X17408500Y-6000000D01*
X17612500Y-5950000D02*
X17612500Y-6050000D01*
X17562500Y-6000000D02*
X17662500Y-6000000D01*
X20150000Y-6092000D02*
X20150000Y-6192000D01*
X20100000Y-6142000D02*
X20200000Y-6142000D01*
X20150000Y-6346000D02*
X20150000Y-6446000D01*
X20100000Y-6396000D02*
X20200000Y-6396000D01*
X20150000Y-6600000D02*
X20150000Y-6700000D01*
X20100000Y-6650000D02*
X20200000Y-6650000D01*
X20200000Y-11400000D02*
X20200000Y-11500000D01*
X20150000Y-11450000D02*
X20250000Y-11450000D01*
X20200000Y-11654000D02*
X20200000Y-11754000D01*
X20150000Y-11704000D02*
X20250000Y-11704000D01*
X20200000Y-11908000D02*
X20200000Y-12008000D01*
X20150000Y-11958000D02*
X20250000Y-11958000D01*
D13*
X20188891Y-7722891D02*
X20188891Y-7645109D01*
X20111109Y-7645109D01*
X20111109Y-7722891D01*
X20188891Y-7722891D01*
X20188891Y-8738891D02*
X20188891Y-8661109D01*
X20111109Y-8661109D01*
X20111109Y-8738891D01*
X20188891Y-8738891D01*
X20188891Y-9330891D02*
X20188891Y-9253109D01*
X20111109Y-9253109D01*
X20111109Y-9330891D01*
X20188891Y-9330891D01*
X20188891Y-10346891D02*
X20188891Y-10269109D01*
X20111109Y-10269109D01*
X20111109Y-10346891D01*
X20188891Y-10346891D01*
D14*
X22600000Y-5335000D02*
X22660000Y-5275000D01*
X22600000Y-5215000D01*
X22540000Y-5275000D01*
X22600000Y-5335000D01*
X23100000Y-5335000D02*
X23160000Y-5275000D01*
X23100000Y-5215000D01*
X23040000Y-5275000D01*
X23100000Y-5335000D01*
D15*
X15887500Y-11687500D02*
X16012500Y-11812500D01*
X16012500Y-11687500D02*
X15887500Y-11812500D01*
X16012500Y-11750000D02*
G75*
G02*
X15887500Y-11750000I-62500J0D01*
G01*
X15887500Y-11750000D02*
G75*
G02*
X16012500Y-11750000I62500J0D01*
G01*
X15887500Y-11987500D02*
X16012500Y-12112500D01*
X16012500Y-11987500D02*
X15887500Y-12112500D01*
X16012500Y-12050000D02*
G75*
G02*
X15887500Y-12050000I-62500J0D01*
G01*
X15887500Y-12050000D02*
G75*
G02*
X16012500Y-12050000I62500J0D01*
G01*
X17637500Y-11687500D02*
X17762500Y-11812500D01*
X17762500Y-11687500D02*
X17637500Y-11812500D01*
X17762500Y-11750000D02*
G75*
G02*
X17637500Y-11750000I-62500J0D01*
G01*
X17637500Y-11750000D02*
G75*
G02*
X17762500Y-11750000I62500J0D01*
G01*
X17637500Y-11987500D02*
X17762500Y-12112500D01*
X17762500Y-11987500D02*
X17637500Y-12112500D01*
X17762500Y-12050000D02*
G75*
G02*
X17637500Y-12050000I-62500J0D01*
G01*
X17637500Y-12050000D02*
G75*
G02*
X17762500Y-12050000I62500J0D01*
G01*
X22137500Y-6137500D02*
X22262500Y-6262500D01*
X22262500Y-6137500D02*
X22137500Y-6262500D01*
X22262500Y-6200000D02*
G75*
G02*
X22137500Y-6200000I-62500J0D01*
G01*
X22137500Y-6200000D02*
G75*
G02*
X22262500Y-6200000I62500J0D01*
G01*
X22137500Y-11837500D02*
X22262500Y-11962500D01*
X22262500Y-11837500D02*
X22137500Y-11962500D01*
X22262500Y-11900000D02*
G75*
G02*
X22137500Y-11900000I-62500J0D01*
G01*
X22137500Y-11900000D02*
G75*
G02*
X22262500Y-11900000I62500J0D01*
G01*
X23537500Y-6137500D02*
X23662500Y-6262500D01*
X23662500Y-6137500D02*
X23537500Y-6262500D01*
X23662500Y-6200000D02*
G75*
G02*
X23537500Y-6200000I-62500J0D01*
G01*
X23537500Y-6200000D02*
G75*
G02*
X23662500Y-6200000I62500J0D01*
G01*
X23537500Y-11837500D02*
X23662500Y-11962500D01*
X23662500Y-11837500D02*
X23537500Y-11962500D01*
X23662500Y-11900000D02*
G75*
G02*
X23537500Y-11900000I-62500J0D01*
G01*
X23537500Y-11900000D02*
G75*
G02*
X23662500Y-11900000I62500J0D01*
G01*
D16*
X16735000Y-8110000D02*
X16865000Y-8240000D01*
X16865000Y-8110000D02*
X16735000Y-8240000D01*
X16800000Y-8110000D02*
X16800000Y-8240000D01*
X16735000Y-8175000D02*
X16865000Y-8175000D01*
X16735000Y-10360000D02*
X16865000Y-10490000D01*
X16865000Y-10360000D02*
X16735000Y-10490000D01*
X16800000Y-10360000D02*
X16800000Y-10490000D01*
X16735000Y-10425000D02*
X16865000Y-10425000D01*
D17*
X18875000Y-13675000D02*
X19125000Y-13925000D01*
X19125000Y-13675000D02*
X18875000Y-13925000D01*
X19088389Y-13888389D02*
X19088389Y-13711611D01*
X18911611Y-13711611D01*
X18911611Y-13888389D01*
X19088389Y-13888389D01*
X19344900Y-13675000D02*
X19594900Y-13925000D01*
X19594900Y-13675000D02*
X19344900Y-13925000D01*
X19558289Y-13888389D02*
X19558289Y-13711611D01*
X19381511Y-13711611D01*
X19381511Y-13888389D01*
X19558289Y-13888389D01*
X19814800Y-13675000D02*
X20064800Y-13925000D01*
X20064800Y-13675000D02*
X19814800Y-13925000D01*
X20028189Y-13888389D02*
X20028189Y-13711611D01*
X19851411Y-13711611D01*
X19851411Y-13888389D01*
X20028189Y-13888389D01*
D11*
X2945777Y-14976484D02*
X2945777Y-14776484D01*
X2945777Y-14776484D02*
X2993396Y-14776484D01*
X2993396Y-14776484D02*
X3021967Y-14786008D01*
X3021967Y-14786008D02*
X3041015Y-14805055D01*
X3041015Y-14805055D02*
X3050539Y-14824103D01*
X3050539Y-14824103D02*
X3060062Y-14862198D01*
X3060062Y-14862198D02*
X3060062Y-14890769D01*
X3060062Y-14890769D02*
X3050539Y-14928865D01*
X3050539Y-14928865D02*
X3041015Y-14947912D01*
X3041015Y-14947912D02*
X3021967Y-14966960D01*
X3021967Y-14966960D02*
X2993396Y-14976484D01*
X2993396Y-14976484D02*
X2945777Y-14976484D01*
X3145777Y-14976484D02*
X3145777Y-14843150D01*
X3145777Y-14881246D02*
X3155301Y-14862198D01*
X3155301Y-14862198D02*
X3164824Y-14852674D01*
X3164824Y-14852674D02*
X3183872Y-14843150D01*
X3183872Y-14843150D02*
X3202920Y-14843150D01*
X3269586Y-14976484D02*
X3269586Y-14843150D01*
X3269586Y-14776484D02*
X3260062Y-14786008D01*
X3260062Y-14786008D02*
X3269586Y-14795531D01*
X3269586Y-14795531D02*
X3279110Y-14786008D01*
X3279110Y-14786008D02*
X3269586Y-14776484D01*
X3269586Y-14776484D02*
X3269586Y-14795531D01*
X3393396Y-14976484D02*
X3374348Y-14966960D01*
X3374348Y-14966960D02*
X3364824Y-14947912D01*
X3364824Y-14947912D02*
X3364824Y-14776484D01*
X3498158Y-14976484D02*
X3479110Y-14966960D01*
X3479110Y-14966960D02*
X3469586Y-14947912D01*
X3469586Y-14947912D02*
X3469586Y-14776484D01*
X3726729Y-14976484D02*
X3726729Y-14776484D01*
X3726729Y-14776484D02*
X3793396Y-14919341D01*
X3793396Y-14919341D02*
X3860062Y-14776484D01*
X3860062Y-14776484D02*
X3860062Y-14976484D01*
X4041015Y-14976484D02*
X4041015Y-14871722D01*
X4041015Y-14871722D02*
X4031491Y-14852674D01*
X4031491Y-14852674D02*
X4012443Y-14843150D01*
X4012443Y-14843150D02*
X3974348Y-14843150D01*
X3974348Y-14843150D02*
X3955301Y-14852674D01*
X4041015Y-14966960D02*
X4021967Y-14976484D01*
X4021967Y-14976484D02*
X3974348Y-14976484D01*
X3974348Y-14976484D02*
X3955301Y-14966960D01*
X3955301Y-14966960D02*
X3945777Y-14947912D01*
X3945777Y-14947912D02*
X3945777Y-14928865D01*
X3945777Y-14928865D02*
X3955301Y-14909817D01*
X3955301Y-14909817D02*
X3974348Y-14900293D01*
X3974348Y-14900293D02*
X4021967Y-14900293D01*
X4021967Y-14900293D02*
X4041015Y-14890769D01*
X4136253Y-14843150D02*
X4136253Y-15043150D01*
X4136253Y-14852674D02*
X4155301Y-14843150D01*
X4155301Y-14843150D02*
X4193396Y-14843150D01*
X4193396Y-14843150D02*
X4212444Y-14852674D01*
X4212444Y-14852674D02*
X4221967Y-14862198D01*
X4221967Y-14862198D02*
X4231491Y-14881246D01*
X4231491Y-14881246D02*
X4231491Y-14938388D01*
X4231491Y-14938388D02*
X4221967Y-14957436D01*
X4221967Y-14957436D02*
X4212444Y-14966960D01*
X4212444Y-14966960D02*
X4193396Y-14976484D01*
X4193396Y-14976484D02*
X4155301Y-14976484D01*
X4155301Y-14976484D02*
X4136253Y-14966960D01*
X4317205Y-14957436D02*
X4326729Y-14966960D01*
X4326729Y-14966960D02*
X4317205Y-14976484D01*
X4317205Y-14976484D02*
X4307682Y-14966960D01*
X4307682Y-14966960D02*
X4317205Y-14957436D01*
X4317205Y-14957436D02*
X4317205Y-14976484D01*
X4317205Y-14852674D02*
X4326729Y-14862198D01*
X4326729Y-14862198D02*
X4317205Y-14871722D01*
X4317205Y-14871722D02*
X4307682Y-14862198D01*
X4307682Y-14862198D02*
X4317205Y-14852674D01*
X4317205Y-14852674D02*
X4317205Y-14871722D01*
D12*
X2605000Y-15265000D02*
X2685000Y-15345000D01*
X2685000Y-15265000D02*
X2605000Y-15345000D01*
D11*
X2983872Y-15196484D02*
X3002920Y-15196484D01*
X3002920Y-15196484D02*
X3021967Y-15206008D01*
X3021967Y-15206008D02*
X3031491Y-15215531D01*
X3031491Y-15215531D02*
X3041015Y-15234579D01*
X3041015Y-15234579D02*
X3050539Y-15272674D01*
X3050539Y-15272674D02*
X3050539Y-15320293D01*
X3050539Y-15320293D02*
X3041015Y-15358388D01*
X3041015Y-15358388D02*
X3031491Y-15377436D01*
X3031491Y-15377436D02*
X3021967Y-15386960D01*
X3021967Y-15386960D02*
X3002920Y-15396484D01*
X3002920Y-15396484D02*
X2983872Y-15396484D01*
X2983872Y-15396484D02*
X2964824Y-15386960D01*
X2964824Y-15386960D02*
X2955301Y-15377436D01*
X2955301Y-15377436D02*
X2945777Y-15358388D01*
X2945777Y-15358388D02*
X2936253Y-15320293D01*
X2936253Y-15320293D02*
X2936253Y-15272674D01*
X2936253Y-15272674D02*
X2945777Y-15234579D01*
X2945777Y-15234579D02*
X2955301Y-15215531D01*
X2955301Y-15215531D02*
X2964824Y-15206008D01*
X2964824Y-15206008D02*
X2983872Y-15196484D01*
X3136253Y-15377436D02*
X3145777Y-15386960D01*
X3145777Y-15386960D02*
X3136253Y-15396484D01*
X3136253Y-15396484D02*
X3126729Y-15386960D01*
X3126729Y-15386960D02*
X3136253Y-15377436D01*
X3136253Y-15377436D02*
X3136253Y-15396484D01*
X3260062Y-15282198D02*
X3241015Y-15272674D01*
X3241015Y-15272674D02*
X3231491Y-15263150D01*
X3231491Y-15263150D02*
X3221967Y-15244103D01*
X3221967Y-15244103D02*
X3221967Y-15234579D01*
X3221967Y-15234579D02*
X3231491Y-15215531D01*
X3231491Y-15215531D02*
X3241015Y-15206008D01*
X3241015Y-15206008D02*
X3260062Y-15196484D01*
X3260062Y-15196484D02*
X3298158Y-15196484D01*
X3298158Y-15196484D02*
X3317205Y-15206008D01*
X3317205Y-15206008D02*
X3326729Y-15215531D01*
X3326729Y-15215531D02*
X3336253Y-15234579D01*
X3336253Y-15234579D02*
X3336253Y-15244103D01*
X3336253Y-15244103D02*
X3326729Y-15263150D01*
X3326729Y-15263150D02*
X3317205Y-15272674D01*
X3317205Y-15272674D02*
X3298158Y-15282198D01*
X3298158Y-15282198D02*
X3260062Y-15282198D01*
X3260062Y-15282198D02*
X3241015Y-15291722D01*
X3241015Y-15291722D02*
X3231491Y-15301246D01*
X3231491Y-15301246D02*
X3221967Y-15320293D01*
X3221967Y-15320293D02*
X3221967Y-15358388D01*
X3221967Y-15358388D02*
X3231491Y-15377436D01*
X3231491Y-15377436D02*
X3241015Y-15386960D01*
X3241015Y-15386960D02*
X3260062Y-15396484D01*
X3260062Y-15396484D02*
X3298158Y-15396484D01*
X3298158Y-15396484D02*
X3317205Y-15386960D01*
X3317205Y-15386960D02*
X3326729Y-15377436D01*
X3326729Y-15377436D02*
X3336253Y-15358388D01*
X3336253Y-15358388D02*
X3336253Y-15320293D01*
X3336253Y-15320293D02*
X3326729Y-15301246D01*
X3326729Y-15301246D02*
X3317205Y-15291722D01*
X3317205Y-15291722D02*
X3298158Y-15282198D01*
X3460062Y-15196484D02*
X3479110Y-15196484D01*
X3479110Y-15196484D02*
X3498158Y-15206008D01*
X3498158Y-15206008D02*
X3507682Y-15215531D01*
X3507682Y-15215531D02*
X3517205Y-15234579D01*
X3517205Y-15234579D02*
X3526729Y-15272674D01*
X3526729Y-15272674D02*
X3526729Y-15320293D01*
X3526729Y-15320293D02*
X3517205Y-15358388D01*
X3517205Y-15358388D02*
X3507682Y-15377436D01*
X3507682Y-15377436D02*
X3498158Y-15386960D01*
X3498158Y-15386960D02*
X3479110Y-15396484D01*
X3479110Y-15396484D02*
X3460062Y-15396484D01*
X3460062Y-15396484D02*
X3441015Y-15386960D01*
X3441015Y-15386960D02*
X3431491Y-15377436D01*
X3431491Y-15377436D02*
X3421967Y-15358388D01*
X3421967Y-15358388D02*
X3412443Y-15320293D01*
X3412443Y-15320293D02*
X3412443Y-15272674D01*
X3412443Y-15272674D02*
X3421967Y-15234579D01*
X3421967Y-15234579D02*
X3431491Y-15215531D01*
X3431491Y-15215531D02*
X3441015Y-15206008D01*
X3441015Y-15206008D02*
X3460062Y-15196484D01*
X3650539Y-15196484D02*
X3669586Y-15196484D01*
X3669586Y-15196484D02*
X3688634Y-15206008D01*
X3688634Y-15206008D02*
X3698158Y-15215531D01*
X3698158Y-15215531D02*
X3707682Y-15234579D01*
X3707682Y-15234579D02*
X3717205Y-15272674D01*
X3717205Y-15272674D02*
X3717205Y-15320293D01*
X3717205Y-15320293D02*
X3707682Y-15358388D01*
X3707682Y-15358388D02*
X3698158Y-15377436D01*
X3698158Y-15377436D02*
X3688634Y-15386960D01*
X3688634Y-15386960D02*
X3669586Y-15396484D01*
X3669586Y-15396484D02*
X3650539Y-15396484D01*
X3650539Y-15396484D02*
X3631491Y-15386960D01*
X3631491Y-15386960D02*
X3621967Y-15377436D01*
X3621967Y-15377436D02*
X3612443Y-15358388D01*
X3612443Y-15358388D02*
X3602920Y-15320293D01*
X3602920Y-15320293D02*
X3602920Y-15272674D01*
X3602920Y-15272674D02*
X3612443Y-15234579D01*
X3612443Y-15234579D02*
X3621967Y-15215531D01*
X3621967Y-15215531D02*
X3631491Y-15206008D01*
X3631491Y-15206008D02*
X3650539Y-15196484D01*
X3802920Y-15396484D02*
X3802920Y-15263150D01*
X3802920Y-15282198D02*
X3812443Y-15272674D01*
X3812443Y-15272674D02*
X3831491Y-15263150D01*
X3831491Y-15263150D02*
X3860063Y-15263150D01*
X3860063Y-15263150D02*
X3879110Y-15272674D01*
X3879110Y-15272674D02*
X3888634Y-15291722D01*
X3888634Y-15291722D02*
X3888634Y-15396484D01*
X3888634Y-15291722D02*
X3898158Y-15272674D01*
X3898158Y-15272674D02*
X3917205Y-15263150D01*
X3917205Y-15263150D02*
X3945777Y-15263150D01*
X3945777Y-15263150D02*
X3964824Y-15272674D01*
X3964824Y-15272674D02*
X3974348Y-15291722D01*
X3974348Y-15291722D02*
X3974348Y-15396484D01*
X4069586Y-15396484D02*
X4069586Y-15263150D01*
X4069586Y-15282198D02*
X4079110Y-15272674D01*
X4079110Y-15272674D02*
X4098158Y-15263150D01*
X4098158Y-15263150D02*
X4126729Y-15263150D01*
X4126729Y-15263150D02*
X4145777Y-15272674D01*
X4145777Y-15272674D02*
X4155301Y-15291722D01*
X4155301Y-15291722D02*
X4155301Y-15396484D01*
X4155301Y-15291722D02*
X4164824Y-15272674D01*
X4164824Y-15272674D02*
X4183872Y-15263150D01*
X4183872Y-15263150D02*
X4212444Y-15263150D01*
X4212444Y-15263150D02*
X4231491Y-15272674D01*
X4231491Y-15272674D02*
X4241015Y-15291722D01*
X4241015Y-15291722D02*
X4241015Y-15396484D01*
X4631491Y-15186960D02*
X4460063Y-15444103D01*
X4888634Y-15196484D02*
X4907682Y-15196484D01*
X4907682Y-15196484D02*
X4926729Y-15206008D01*
X4926729Y-15206008D02*
X4936253Y-15215531D01*
X4936253Y-15215531D02*
X4945777Y-15234579D01*
X4945777Y-15234579D02*
X4955301Y-15272674D01*
X4955301Y-15272674D02*
X4955301Y-15320293D01*
X4955301Y-15320293D02*
X4945777Y-15358388D01*
X4945777Y-15358388D02*
X4936253Y-15377436D01*
X4936253Y-15377436D02*
X4926729Y-15386960D01*
X4926729Y-15386960D02*
X4907682Y-15396484D01*
X4907682Y-15396484D02*
X4888634Y-15396484D01*
X4888634Y-15396484D02*
X4869587Y-15386960D01*
X4869587Y-15386960D02*
X4860063Y-15377436D01*
X4860063Y-15377436D02*
X4850539Y-15358388D01*
X4850539Y-15358388D02*
X4841015Y-15320293D01*
X4841015Y-15320293D02*
X4841015Y-15272674D01*
X4841015Y-15272674D02*
X4850539Y-15234579D01*
X4850539Y-15234579D02*
X4860063Y-15215531D01*
X4860063Y-15215531D02*
X4869587Y-15206008D01*
X4869587Y-15206008D02*
X4888634Y-15196484D01*
X5041015Y-15377436D02*
X5050539Y-15386960D01*
X5050539Y-15386960D02*
X5041015Y-15396484D01*
X5041015Y-15396484D02*
X5031491Y-15386960D01*
X5031491Y-15386960D02*
X5041015Y-15377436D01*
X5041015Y-15377436D02*
X5041015Y-15396484D01*
X5174348Y-15196484D02*
X5193396Y-15196484D01*
X5193396Y-15196484D02*
X5212444Y-15206008D01*
X5212444Y-15206008D02*
X5221968Y-15215531D01*
X5221968Y-15215531D02*
X5231491Y-15234579D01*
X5231491Y-15234579D02*
X5241015Y-15272674D01*
X5241015Y-15272674D02*
X5241015Y-15320293D01*
X5241015Y-15320293D02*
X5231491Y-15358388D01*
X5231491Y-15358388D02*
X5221968Y-15377436D01*
X5221968Y-15377436D02*
X5212444Y-15386960D01*
X5212444Y-15386960D02*
X5193396Y-15396484D01*
X5193396Y-15396484D02*
X5174348Y-15396484D01*
X5174348Y-15396484D02*
X5155301Y-15386960D01*
X5155301Y-15386960D02*
X5145777Y-15377436D01*
X5145777Y-15377436D02*
X5136253Y-15358388D01*
X5136253Y-15358388D02*
X5126729Y-15320293D01*
X5126729Y-15320293D02*
X5126729Y-15272674D01*
X5126729Y-15272674D02*
X5136253Y-15234579D01*
X5136253Y-15234579D02*
X5145777Y-15215531D01*
X5145777Y-15215531D02*
X5155301Y-15206008D01*
X5155301Y-15206008D02*
X5174348Y-15196484D01*
X5307682Y-15196484D02*
X5431491Y-15196484D01*
X5431491Y-15196484D02*
X5364825Y-15272674D01*
X5364825Y-15272674D02*
X5393396Y-15272674D01*
X5393396Y-15272674D02*
X5412444Y-15282198D01*
X5412444Y-15282198D02*
X5421968Y-15291722D01*
X5421968Y-15291722D02*
X5431491Y-15310769D01*
X5431491Y-15310769D02*
X5431491Y-15358388D01*
X5431491Y-15358388D02*
X5421968Y-15377436D01*
X5421968Y-15377436D02*
X5412444Y-15386960D01*
X5412444Y-15386960D02*
X5393396Y-15396484D01*
X5393396Y-15396484D02*
X5336253Y-15396484D01*
X5336253Y-15396484D02*
X5317206Y-15386960D01*
X5317206Y-15386960D02*
X5307682Y-15377436D01*
X5621967Y-15396484D02*
X5507682Y-15396484D01*
X5564825Y-15396484D02*
X5564825Y-15196484D01*
X5564825Y-15196484D02*
X5545777Y-15225055D01*
X5545777Y-15225055D02*
X5526729Y-15244103D01*
X5526729Y-15244103D02*
X5507682Y-15253627D01*
X5802920Y-15196484D02*
X5707682Y-15196484D01*
X5707682Y-15196484D02*
X5698158Y-15291722D01*
X5698158Y-15291722D02*
X5707682Y-15282198D01*
X5707682Y-15282198D02*
X5726729Y-15272674D01*
X5726729Y-15272674D02*
X5774348Y-15272674D01*
X5774348Y-15272674D02*
X5793396Y-15282198D01*
X5793396Y-15282198D02*
X5802920Y-15291722D01*
X5802920Y-15291722D02*
X5812444Y-15310769D01*
X5812444Y-15310769D02*
X5812444Y-15358388D01*
X5812444Y-15358388D02*
X5802920Y-15377436D01*
X5802920Y-15377436D02*
X5793396Y-15386960D01*
X5793396Y-15386960D02*
X5774348Y-15396484D01*
X5774348Y-15396484D02*
X5726729Y-15396484D01*
X5726729Y-15396484D02*
X5707682Y-15386960D01*
X5707682Y-15386960D02*
X5698158Y-15377436D01*
X5888634Y-15196484D02*
X5888634Y-15234579D01*
X5964825Y-15196484D02*
X5964825Y-15234579D01*
X6260063Y-15472674D02*
X6250539Y-15463150D01*
X6250539Y-15463150D02*
X6231491Y-15434579D01*
X6231491Y-15434579D02*
X6221968Y-15415531D01*
X6221968Y-15415531D02*
X6212444Y-15386960D01*
X6212444Y-15386960D02*
X6202920Y-15339341D01*
X6202920Y-15339341D02*
X6202920Y-15301246D01*
X6202920Y-15301246D02*
X6212444Y-15253627D01*
X6212444Y-15253627D02*
X6221968Y-15225055D01*
X6221968Y-15225055D02*
X6231491Y-15206008D01*
X6231491Y-15206008D02*
X6250539Y-15177436D01*
X6250539Y-15177436D02*
X6260063Y-15167912D01*
X6441015Y-15396484D02*
X6326729Y-15396484D01*
X6383872Y-15396484D02*
X6383872Y-15196484D01*
X6383872Y-15196484D02*
X6364825Y-15225055D01*
X6364825Y-15225055D02*
X6345777Y-15244103D01*
X6345777Y-15244103D02*
X6326729Y-15253627D01*
X6564825Y-15196484D02*
X6583872Y-15196484D01*
X6583872Y-15196484D02*
X6602920Y-15206008D01*
X6602920Y-15206008D02*
X6612444Y-15215531D01*
X6612444Y-15215531D02*
X6621968Y-15234579D01*
X6621968Y-15234579D02*
X6631491Y-15272674D01*
X6631491Y-15272674D02*
X6631491Y-15320293D01*
X6631491Y-15320293D02*
X6621968Y-15358388D01*
X6621968Y-15358388D02*
X6612444Y-15377436D01*
X6612444Y-15377436D02*
X6602920Y-15386960D01*
X6602920Y-15386960D02*
X6583872Y-15396484D01*
X6583872Y-15396484D02*
X6564825Y-15396484D01*
X6564825Y-15396484D02*
X6545777Y-15386960D01*
X6545777Y-15386960D02*
X6536253Y-15377436D01*
X6536253Y-15377436D02*
X6526729Y-15358388D01*
X6526729Y-15358388D02*
X6517206Y-15320293D01*
X6517206Y-15320293D02*
X6517206Y-15272674D01*
X6517206Y-15272674D02*
X6526729Y-15234579D01*
X6526729Y-15234579D02*
X6536253Y-15215531D01*
X6536253Y-15215531D02*
X6545777Y-15206008D01*
X6545777Y-15206008D02*
X6564825Y-15196484D01*
X6869587Y-15396484D02*
X6869587Y-15196484D01*
X6955301Y-15396484D02*
X6955301Y-15291722D01*
X6955301Y-15291722D02*
X6945777Y-15272674D01*
X6945777Y-15272674D02*
X6926730Y-15263150D01*
X6926730Y-15263150D02*
X6898158Y-15263150D01*
X6898158Y-15263150D02*
X6879110Y-15272674D01*
X6879110Y-15272674D02*
X6869587Y-15282198D01*
X7079110Y-15396484D02*
X7060063Y-15386960D01*
X7060063Y-15386960D02*
X7050539Y-15377436D01*
X7050539Y-15377436D02*
X7041015Y-15358388D01*
X7041015Y-15358388D02*
X7041015Y-15301246D01*
X7041015Y-15301246D02*
X7050539Y-15282198D01*
X7050539Y-15282198D02*
X7060063Y-15272674D01*
X7060063Y-15272674D02*
X7079110Y-15263150D01*
X7079110Y-15263150D02*
X7107682Y-15263150D01*
X7107682Y-15263150D02*
X7126730Y-15272674D01*
X7126730Y-15272674D02*
X7136253Y-15282198D01*
X7136253Y-15282198D02*
X7145777Y-15301246D01*
X7145777Y-15301246D02*
X7145777Y-15358388D01*
X7145777Y-15358388D02*
X7136253Y-15377436D01*
X7136253Y-15377436D02*
X7126730Y-15386960D01*
X7126730Y-15386960D02*
X7107682Y-15396484D01*
X7107682Y-15396484D02*
X7079110Y-15396484D01*
X7260063Y-15396484D02*
X7241015Y-15386960D01*
X7241015Y-15386960D02*
X7231491Y-15367912D01*
X7231491Y-15367912D02*
X7231491Y-15196484D01*
X7412444Y-15386960D02*
X7393396Y-15396484D01*
X7393396Y-15396484D02*
X7355301Y-15396484D01*
X7355301Y-15396484D02*
X7336253Y-15386960D01*
X7336253Y-15386960D02*
X7326730Y-15367912D01*
X7326730Y-15367912D02*
X7326730Y-15291722D01*
X7326730Y-15291722D02*
X7336253Y-15272674D01*
X7336253Y-15272674D02*
X7355301Y-15263150D01*
X7355301Y-15263150D02*
X7393396Y-15263150D01*
X7393396Y-15263150D02*
X7412444Y-15272674D01*
X7412444Y-15272674D02*
X7421968Y-15291722D01*
X7421968Y-15291722D02*
X7421968Y-15310769D01*
X7421968Y-15310769D02*
X7326730Y-15329817D01*
X7498158Y-15386960D02*
X7517206Y-15396484D01*
X7517206Y-15396484D02*
X7555301Y-15396484D01*
X7555301Y-15396484D02*
X7574349Y-15386960D01*
X7574349Y-15386960D02*
X7583872Y-15367912D01*
X7583872Y-15367912D02*
X7583872Y-15358388D01*
X7583872Y-15358388D02*
X7574349Y-15339341D01*
X7574349Y-15339341D02*
X7555301Y-15329817D01*
X7555301Y-15329817D02*
X7526730Y-15329817D01*
X7526730Y-15329817D02*
X7507682Y-15320293D01*
X7507682Y-15320293D02*
X7498158Y-15301246D01*
X7498158Y-15301246D02*
X7498158Y-15291722D01*
X7498158Y-15291722D02*
X7507682Y-15272674D01*
X7507682Y-15272674D02*
X7526730Y-15263150D01*
X7526730Y-15263150D02*
X7555301Y-15263150D01*
X7555301Y-15263150D02*
X7574349Y-15272674D01*
X7650539Y-15472674D02*
X7660063Y-15463150D01*
X7660063Y-15463150D02*
X7679111Y-15434579D01*
X7679111Y-15434579D02*
X7688634Y-15415531D01*
X7688634Y-15415531D02*
X7698158Y-15386960D01*
X7698158Y-15386960D02*
X7707682Y-15339341D01*
X7707682Y-15339341D02*
X7707682Y-15301246D01*
X7707682Y-15301246D02*
X7698158Y-15253627D01*
X7698158Y-15253627D02*
X7688634Y-15225055D01*
X7688634Y-15225055D02*
X7679111Y-15206008D01*
X7679111Y-15206008D02*
X7660063Y-15177436D01*
X7660063Y-15177436D02*
X7650539Y-15167912D01*
D12*
X2685000Y-15569000D02*
G75*
G02*
X2585000Y-15569000I-50000J0D01*
G01*
X2585000Y-15569000D02*
G75*
G02*
X2685000Y-15569000I50000J0D01*
G01*
D11*
X3050539Y-15660484D02*
X2936253Y-15660484D01*
X2993396Y-15660484D02*
X2993396Y-15460484D01*
X2993396Y-15460484D02*
X2974348Y-15489055D01*
X2974348Y-15489055D02*
X2955301Y-15508103D01*
X2955301Y-15508103D02*
X2936253Y-15517627D01*
X3136253Y-15641436D02*
X3145777Y-15650960D01*
X3145777Y-15650960D02*
X3136253Y-15660484D01*
X3136253Y-15660484D02*
X3126729Y-15650960D01*
X3126729Y-15650960D02*
X3136253Y-15641436D01*
X3136253Y-15641436D02*
X3136253Y-15660484D01*
X3269586Y-15460484D02*
X3288634Y-15460484D01*
X3288634Y-15460484D02*
X3307682Y-15470008D01*
X3307682Y-15470008D02*
X3317205Y-15479531D01*
X3317205Y-15479531D02*
X3326729Y-15498579D01*
X3326729Y-15498579D02*
X3336253Y-15536674D01*
X3336253Y-15536674D02*
X3336253Y-15584293D01*
X3336253Y-15584293D02*
X3326729Y-15622388D01*
X3326729Y-15622388D02*
X3317205Y-15641436D01*
X3317205Y-15641436D02*
X3307682Y-15650960D01*
X3307682Y-15650960D02*
X3288634Y-15660484D01*
X3288634Y-15660484D02*
X3269586Y-15660484D01*
X3269586Y-15660484D02*
X3250539Y-15650960D01*
X3250539Y-15650960D02*
X3241015Y-15641436D01*
X3241015Y-15641436D02*
X3231491Y-15622388D01*
X3231491Y-15622388D02*
X3221967Y-15584293D01*
X3221967Y-15584293D02*
X3221967Y-15536674D01*
X3221967Y-15536674D02*
X3231491Y-15498579D01*
X3231491Y-15498579D02*
X3241015Y-15479531D01*
X3241015Y-15479531D02*
X3250539Y-15470008D01*
X3250539Y-15470008D02*
X3269586Y-15460484D01*
X3460062Y-15460484D02*
X3479110Y-15460484D01*
X3479110Y-15460484D02*
X3498158Y-15470008D01*
X3498158Y-15470008D02*
X3507682Y-15479531D01*
X3507682Y-15479531D02*
X3517205Y-15498579D01*
X3517205Y-15498579D02*
X3526729Y-15536674D01*
X3526729Y-15536674D02*
X3526729Y-15584293D01*
X3526729Y-15584293D02*
X3517205Y-15622388D01*
X3517205Y-15622388D02*
X3507682Y-15641436D01*
X3507682Y-15641436D02*
X3498158Y-15650960D01*
X3498158Y-15650960D02*
X3479110Y-15660484D01*
X3479110Y-15660484D02*
X3460062Y-15660484D01*
X3460062Y-15660484D02*
X3441015Y-15650960D01*
X3441015Y-15650960D02*
X3431491Y-15641436D01*
X3431491Y-15641436D02*
X3421967Y-15622388D01*
X3421967Y-15622388D02*
X3412443Y-15584293D01*
X3412443Y-15584293D02*
X3412443Y-15536674D01*
X3412443Y-15536674D02*
X3421967Y-15498579D01*
X3421967Y-15498579D02*
X3431491Y-15479531D01*
X3431491Y-15479531D02*
X3441015Y-15470008D01*
X3441015Y-15470008D02*
X3460062Y-15460484D01*
X3650539Y-15460484D02*
X3669586Y-15460484D01*
X3669586Y-15460484D02*
X3688634Y-15470008D01*
X3688634Y-15470008D02*
X3698158Y-15479531D01*
X3698158Y-15479531D02*
X3707682Y-15498579D01*
X3707682Y-15498579D02*
X3717205Y-15536674D01*
X3717205Y-15536674D02*
X3717205Y-15584293D01*
X3717205Y-15584293D02*
X3707682Y-15622388D01*
X3707682Y-15622388D02*
X3698158Y-15641436D01*
X3698158Y-15641436D02*
X3688634Y-15650960D01*
X3688634Y-15650960D02*
X3669586Y-15660484D01*
X3669586Y-15660484D02*
X3650539Y-15660484D01*
X3650539Y-15660484D02*
X3631491Y-15650960D01*
X3631491Y-15650960D02*
X3621967Y-15641436D01*
X3621967Y-15641436D02*
X3612443Y-15622388D01*
X3612443Y-15622388D02*
X3602920Y-15584293D01*
X3602920Y-15584293D02*
X3602920Y-15536674D01*
X3602920Y-15536674D02*
X3612443Y-15498579D01*
X3612443Y-15498579D02*
X3621967Y-15479531D01*
X3621967Y-15479531D02*
X3631491Y-15470008D01*
X3631491Y-15470008D02*
X3650539Y-15460484D01*
X3802920Y-15660484D02*
X3802920Y-15527150D01*
X3802920Y-15546198D02*
X3812443Y-15536674D01*
X3812443Y-15536674D02*
X3831491Y-15527150D01*
X3831491Y-15527150D02*
X3860063Y-15527150D01*
X3860063Y-15527150D02*
X3879110Y-15536674D01*
X3879110Y-15536674D02*
X3888634Y-15555722D01*
X3888634Y-15555722D02*
X3888634Y-15660484D01*
X3888634Y-15555722D02*
X3898158Y-15536674D01*
X3898158Y-15536674D02*
X3917205Y-15527150D01*
X3917205Y-15527150D02*
X3945777Y-15527150D01*
X3945777Y-15527150D02*
X3964824Y-15536674D01*
X3964824Y-15536674D02*
X3974348Y-15555722D01*
X3974348Y-15555722D02*
X3974348Y-15660484D01*
X4069586Y-15660484D02*
X4069586Y-15527150D01*
X4069586Y-15546198D02*
X4079110Y-15536674D01*
X4079110Y-15536674D02*
X4098158Y-15527150D01*
X4098158Y-15527150D02*
X4126729Y-15527150D01*
X4126729Y-15527150D02*
X4145777Y-15536674D01*
X4145777Y-15536674D02*
X4155301Y-15555722D01*
X4155301Y-15555722D02*
X4155301Y-15660484D01*
X4155301Y-15555722D02*
X4164824Y-15536674D01*
X4164824Y-15536674D02*
X4183872Y-15527150D01*
X4183872Y-15527150D02*
X4212444Y-15527150D01*
X4212444Y-15527150D02*
X4231491Y-15536674D01*
X4231491Y-15536674D02*
X4241015Y-15555722D01*
X4241015Y-15555722D02*
X4241015Y-15660484D01*
X4631491Y-15450960D02*
X4460063Y-15708103D01*
X4888634Y-15460484D02*
X4907682Y-15460484D01*
X4907682Y-15460484D02*
X4926729Y-15470008D01*
X4926729Y-15470008D02*
X4936253Y-15479531D01*
X4936253Y-15479531D02*
X4945777Y-15498579D01*
X4945777Y-15498579D02*
X4955301Y-15536674D01*
X4955301Y-15536674D02*
X4955301Y-15584293D01*
X4955301Y-15584293D02*
X4945777Y-15622388D01*
X4945777Y-15622388D02*
X4936253Y-15641436D01*
X4936253Y-15641436D02*
X4926729Y-15650960D01*
X4926729Y-15650960D02*
X4907682Y-15660484D01*
X4907682Y-15660484D02*
X4888634Y-15660484D01*
X4888634Y-15660484D02*
X4869587Y-15650960D01*
X4869587Y-15650960D02*
X4860063Y-15641436D01*
X4860063Y-15641436D02*
X4850539Y-15622388D01*
X4850539Y-15622388D02*
X4841015Y-15584293D01*
X4841015Y-15584293D02*
X4841015Y-15536674D01*
X4841015Y-15536674D02*
X4850539Y-15498579D01*
X4850539Y-15498579D02*
X4860063Y-15479531D01*
X4860063Y-15479531D02*
X4869587Y-15470008D01*
X4869587Y-15470008D02*
X4888634Y-15460484D01*
X5041015Y-15641436D02*
X5050539Y-15650960D01*
X5050539Y-15650960D02*
X5041015Y-15660484D01*
X5041015Y-15660484D02*
X5031491Y-15650960D01*
X5031491Y-15650960D02*
X5041015Y-15641436D01*
X5041015Y-15641436D02*
X5041015Y-15660484D01*
X5174348Y-15460484D02*
X5193396Y-15460484D01*
X5193396Y-15460484D02*
X5212444Y-15470008D01*
X5212444Y-15470008D02*
X5221968Y-15479531D01*
X5221968Y-15479531D02*
X5231491Y-15498579D01*
X5231491Y-15498579D02*
X5241015Y-15536674D01*
X5241015Y-15536674D02*
X5241015Y-15584293D01*
X5241015Y-15584293D02*
X5231491Y-15622388D01*
X5231491Y-15622388D02*
X5221968Y-15641436D01*
X5221968Y-15641436D02*
X5212444Y-15650960D01*
X5212444Y-15650960D02*
X5193396Y-15660484D01*
X5193396Y-15660484D02*
X5174348Y-15660484D01*
X5174348Y-15660484D02*
X5155301Y-15650960D01*
X5155301Y-15650960D02*
X5145777Y-15641436D01*
X5145777Y-15641436D02*
X5136253Y-15622388D01*
X5136253Y-15622388D02*
X5126729Y-15584293D01*
X5126729Y-15584293D02*
X5126729Y-15536674D01*
X5126729Y-15536674D02*
X5136253Y-15498579D01*
X5136253Y-15498579D02*
X5145777Y-15479531D01*
X5145777Y-15479531D02*
X5155301Y-15470008D01*
X5155301Y-15470008D02*
X5174348Y-15460484D01*
X5307682Y-15460484D02*
X5431491Y-15460484D01*
X5431491Y-15460484D02*
X5364825Y-15536674D01*
X5364825Y-15536674D02*
X5393396Y-15536674D01*
X5393396Y-15536674D02*
X5412444Y-15546198D01*
X5412444Y-15546198D02*
X5421968Y-15555722D01*
X5421968Y-15555722D02*
X5431491Y-15574769D01*
X5431491Y-15574769D02*
X5431491Y-15622388D01*
X5431491Y-15622388D02*
X5421968Y-15641436D01*
X5421968Y-15641436D02*
X5412444Y-15650960D01*
X5412444Y-15650960D02*
X5393396Y-15660484D01*
X5393396Y-15660484D02*
X5336253Y-15660484D01*
X5336253Y-15660484D02*
X5317206Y-15650960D01*
X5317206Y-15650960D02*
X5307682Y-15641436D01*
X5526729Y-15660484D02*
X5564825Y-15660484D01*
X5564825Y-15660484D02*
X5583872Y-15650960D01*
X5583872Y-15650960D02*
X5593396Y-15641436D01*
X5593396Y-15641436D02*
X5612444Y-15612865D01*
X5612444Y-15612865D02*
X5621967Y-15574769D01*
X5621967Y-15574769D02*
X5621967Y-15498579D01*
X5621967Y-15498579D02*
X5612444Y-15479531D01*
X5612444Y-15479531D02*
X5602920Y-15470008D01*
X5602920Y-15470008D02*
X5583872Y-15460484D01*
X5583872Y-15460484D02*
X5545777Y-15460484D01*
X5545777Y-15460484D02*
X5526729Y-15470008D01*
X5526729Y-15470008D02*
X5517206Y-15479531D01*
X5517206Y-15479531D02*
X5507682Y-15498579D01*
X5507682Y-15498579D02*
X5507682Y-15546198D01*
X5507682Y-15546198D02*
X5517206Y-15565246D01*
X5517206Y-15565246D02*
X5526729Y-15574769D01*
X5526729Y-15574769D02*
X5545777Y-15584293D01*
X5545777Y-15584293D02*
X5583872Y-15584293D01*
X5583872Y-15584293D02*
X5602920Y-15574769D01*
X5602920Y-15574769D02*
X5612444Y-15565246D01*
X5612444Y-15565246D02*
X5621967Y-15546198D01*
X5793396Y-15527150D02*
X5793396Y-15660484D01*
X5745777Y-15450960D02*
X5698158Y-15593817D01*
X5698158Y-15593817D02*
X5821967Y-15593817D01*
X5888634Y-15460484D02*
X5888634Y-15498579D01*
X5964825Y-15460484D02*
X5964825Y-15498579D01*
X6260063Y-15736674D02*
X6250539Y-15727150D01*
X6250539Y-15727150D02*
X6231491Y-15698579D01*
X6231491Y-15698579D02*
X6221968Y-15679531D01*
X6221968Y-15679531D02*
X6212444Y-15650960D01*
X6212444Y-15650960D02*
X6202920Y-15603341D01*
X6202920Y-15603341D02*
X6202920Y-15565246D01*
X6202920Y-15565246D02*
X6212444Y-15517627D01*
X6212444Y-15517627D02*
X6221968Y-15489055D01*
X6221968Y-15489055D02*
X6231491Y-15470008D01*
X6231491Y-15470008D02*
X6250539Y-15441436D01*
X6250539Y-15441436D02*
X6260063Y-15431912D01*
X6326729Y-15479531D02*
X6336253Y-15470008D01*
X6336253Y-15470008D02*
X6355301Y-15460484D01*
X6355301Y-15460484D02*
X6402920Y-15460484D01*
X6402920Y-15460484D02*
X6421968Y-15470008D01*
X6421968Y-15470008D02*
X6431491Y-15479531D01*
X6431491Y-15479531D02*
X6441015Y-15498579D01*
X6441015Y-15498579D02*
X6441015Y-15517627D01*
X6441015Y-15517627D02*
X6431491Y-15546198D01*
X6431491Y-15546198D02*
X6317206Y-15660484D01*
X6317206Y-15660484D02*
X6441015Y-15660484D01*
X6517206Y-15479531D02*
X6526729Y-15470008D01*
X6526729Y-15470008D02*
X6545777Y-15460484D01*
X6545777Y-15460484D02*
X6593396Y-15460484D01*
X6593396Y-15460484D02*
X6612444Y-15470008D01*
X6612444Y-15470008D02*
X6621968Y-15479531D01*
X6621968Y-15479531D02*
X6631491Y-15498579D01*
X6631491Y-15498579D02*
X6631491Y-15517627D01*
X6631491Y-15517627D02*
X6621968Y-15546198D01*
X6621968Y-15546198D02*
X6507682Y-15660484D01*
X6507682Y-15660484D02*
X6631491Y-15660484D01*
X6869587Y-15660484D02*
X6869587Y-15460484D01*
X6955301Y-15660484D02*
X6955301Y-15555722D01*
X6955301Y-15555722D02*
X6945777Y-15536674D01*
X6945777Y-15536674D02*
X6926730Y-15527150D01*
X6926730Y-15527150D02*
X6898158Y-15527150D01*
X6898158Y-15527150D02*
X6879110Y-15536674D01*
X6879110Y-15536674D02*
X6869587Y-15546198D01*
X7079110Y-15660484D02*
X7060063Y-15650960D01*
X7060063Y-15650960D02*
X7050539Y-15641436D01*
X7050539Y-15641436D02*
X7041015Y-15622388D01*
X7041015Y-15622388D02*
X7041015Y-15565246D01*
X7041015Y-15565246D02*
X7050539Y-15546198D01*
X7050539Y-15546198D02*
X7060063Y-15536674D01*
X7060063Y-15536674D02*
X7079110Y-15527150D01*
X7079110Y-15527150D02*
X7107682Y-15527150D01*
X7107682Y-15527150D02*
X7126730Y-15536674D01*
X7126730Y-15536674D02*
X7136253Y-15546198D01*
X7136253Y-15546198D02*
X7145777Y-15565246D01*
X7145777Y-15565246D02*
X7145777Y-15622388D01*
X7145777Y-15622388D02*
X7136253Y-15641436D01*
X7136253Y-15641436D02*
X7126730Y-15650960D01*
X7126730Y-15650960D02*
X7107682Y-15660484D01*
X7107682Y-15660484D02*
X7079110Y-15660484D01*
X7260063Y-15660484D02*
X7241015Y-15650960D01*
X7241015Y-15650960D02*
X7231491Y-15631912D01*
X7231491Y-15631912D02*
X7231491Y-15460484D01*
X7412444Y-15650960D02*
X7393396Y-15660484D01*
X7393396Y-15660484D02*
X7355301Y-15660484D01*
X7355301Y-15660484D02*
X7336253Y-15650960D01*
X7336253Y-15650960D02*
X7326730Y-15631912D01*
X7326730Y-15631912D02*
X7326730Y-15555722D01*
X7326730Y-15555722D02*
X7336253Y-15536674D01*
X7336253Y-15536674D02*
X7355301Y-15527150D01*
X7355301Y-15527150D02*
X7393396Y-15527150D01*
X7393396Y-15527150D02*
X7412444Y-15536674D01*
X7412444Y-15536674D02*
X7421968Y-15555722D01*
X7421968Y-15555722D02*
X7421968Y-15574769D01*
X7421968Y-15574769D02*
X7326730Y-15593817D01*
X7498158Y-15650960D02*
X7517206Y-15660484D01*
X7517206Y-15660484D02*
X7555301Y-15660484D01*
X7555301Y-15660484D02*
X7574349Y-15650960D01*
X7574349Y-15650960D02*
X7583872Y-15631912D01*
X7583872Y-15631912D02*
X7583872Y-15622388D01*
X7583872Y-15622388D02*
X7574349Y-15603341D01*
X7574349Y-15603341D02*
X7555301Y-15593817D01*
X7555301Y-15593817D02*
X7526730Y-15593817D01*
X7526730Y-15593817D02*
X7507682Y-15584293D01*
X7507682Y-15584293D02*
X7498158Y-15565246D01*
X7498158Y-15565246D02*
X7498158Y-15555722D01*
X7498158Y-15555722D02*
X7507682Y-15536674D01*
X7507682Y-15536674D02*
X7526730Y-15527150D01*
X7526730Y-15527150D02*
X7555301Y-15527150D01*
X7555301Y-15527150D02*
X7574349Y-15536674D01*
X7650539Y-15736674D02*
X7660063Y-15727150D01*
X7660063Y-15727150D02*
X7679111Y-15698579D01*
X7679111Y-15698579D02*
X7688634Y-15679531D01*
X7688634Y-15679531D02*
X7698158Y-15650960D01*
X7698158Y-15650960D02*
X7707682Y-15603341D01*
X7707682Y-15603341D02*
X7707682Y-15565246D01*
X7707682Y-15565246D02*
X7698158Y-15517627D01*
X7698158Y-15517627D02*
X7688634Y-15489055D01*
X7688634Y-15489055D02*
X7679111Y-15470008D01*
X7679111Y-15470008D02*
X7660063Y-15441436D01*
X7660063Y-15441436D02*
X7650539Y-15431912D01*
D12*
X2635000Y-15783000D02*
X2635000Y-15883000D01*
X2585000Y-15833000D02*
X2685000Y-15833000D01*
D11*
X3050539Y-15924484D02*
X2936253Y-15924484D01*
X2993396Y-15924484D02*
X2993396Y-15724484D01*
X2993396Y-15724484D02*
X2974348Y-15753055D01*
X2974348Y-15753055D02*
X2955301Y-15772103D01*
X2955301Y-15772103D02*
X2936253Y-15781627D01*
X3136253Y-15905436D02*
X3145777Y-15914960D01*
X3145777Y-15914960D02*
X3136253Y-15924484D01*
X3136253Y-15924484D02*
X3126729Y-15914960D01*
X3126729Y-15914960D02*
X3136253Y-15905436D01*
X3136253Y-15905436D02*
X3136253Y-15924484D01*
X3269586Y-15724484D02*
X3288634Y-15724484D01*
X3288634Y-15724484D02*
X3307682Y-15734008D01*
X3307682Y-15734008D02*
X3317205Y-15743531D01*
X3317205Y-15743531D02*
X3326729Y-15762579D01*
X3326729Y-15762579D02*
X3336253Y-15800674D01*
X3336253Y-15800674D02*
X3336253Y-15848293D01*
X3336253Y-15848293D02*
X3326729Y-15886388D01*
X3326729Y-15886388D02*
X3317205Y-15905436D01*
X3317205Y-15905436D02*
X3307682Y-15914960D01*
X3307682Y-15914960D02*
X3288634Y-15924484D01*
X3288634Y-15924484D02*
X3269586Y-15924484D01*
X3269586Y-15924484D02*
X3250539Y-15914960D01*
X3250539Y-15914960D02*
X3241015Y-15905436D01*
X3241015Y-15905436D02*
X3231491Y-15886388D01*
X3231491Y-15886388D02*
X3221967Y-15848293D01*
X3221967Y-15848293D02*
X3221967Y-15800674D01*
X3221967Y-15800674D02*
X3231491Y-15762579D01*
X3231491Y-15762579D02*
X3241015Y-15743531D01*
X3241015Y-15743531D02*
X3250539Y-15734008D01*
X3250539Y-15734008D02*
X3269586Y-15724484D01*
X3460062Y-15724484D02*
X3479110Y-15724484D01*
X3479110Y-15724484D02*
X3498158Y-15734008D01*
X3498158Y-15734008D02*
X3507682Y-15743531D01*
X3507682Y-15743531D02*
X3517205Y-15762579D01*
X3517205Y-15762579D02*
X3526729Y-15800674D01*
X3526729Y-15800674D02*
X3526729Y-15848293D01*
X3526729Y-15848293D02*
X3517205Y-15886388D01*
X3517205Y-15886388D02*
X3507682Y-15905436D01*
X3507682Y-15905436D02*
X3498158Y-15914960D01*
X3498158Y-15914960D02*
X3479110Y-15924484D01*
X3479110Y-15924484D02*
X3460062Y-15924484D01*
X3460062Y-15924484D02*
X3441015Y-15914960D01*
X3441015Y-15914960D02*
X3431491Y-15905436D01*
X3431491Y-15905436D02*
X3421967Y-15886388D01*
X3421967Y-15886388D02*
X3412443Y-15848293D01*
X3412443Y-15848293D02*
X3412443Y-15800674D01*
X3412443Y-15800674D02*
X3421967Y-15762579D01*
X3421967Y-15762579D02*
X3431491Y-15743531D01*
X3431491Y-15743531D02*
X3441015Y-15734008D01*
X3441015Y-15734008D02*
X3460062Y-15724484D01*
X3650539Y-15724484D02*
X3669586Y-15724484D01*
X3669586Y-15724484D02*
X3688634Y-15734008D01*
X3688634Y-15734008D02*
X3698158Y-15743531D01*
X3698158Y-15743531D02*
X3707682Y-15762579D01*
X3707682Y-15762579D02*
X3717205Y-15800674D01*
X3717205Y-15800674D02*
X3717205Y-15848293D01*
X3717205Y-15848293D02*
X3707682Y-15886388D01*
X3707682Y-15886388D02*
X3698158Y-15905436D01*
X3698158Y-15905436D02*
X3688634Y-15914960D01*
X3688634Y-15914960D02*
X3669586Y-15924484D01*
X3669586Y-15924484D02*
X3650539Y-15924484D01*
X3650539Y-15924484D02*
X3631491Y-15914960D01*
X3631491Y-15914960D02*
X3621967Y-15905436D01*
X3621967Y-15905436D02*
X3612443Y-15886388D01*
X3612443Y-15886388D02*
X3602920Y-15848293D01*
X3602920Y-15848293D02*
X3602920Y-15800674D01*
X3602920Y-15800674D02*
X3612443Y-15762579D01*
X3612443Y-15762579D02*
X3621967Y-15743531D01*
X3621967Y-15743531D02*
X3631491Y-15734008D01*
X3631491Y-15734008D02*
X3650539Y-15724484D01*
X3802920Y-15924484D02*
X3802920Y-15791150D01*
X3802920Y-15810198D02*
X3812443Y-15800674D01*
X3812443Y-15800674D02*
X3831491Y-15791150D01*
X3831491Y-15791150D02*
X3860063Y-15791150D01*
X3860063Y-15791150D02*
X3879110Y-15800674D01*
X3879110Y-15800674D02*
X3888634Y-15819722D01*
X3888634Y-15819722D02*
X3888634Y-15924484D01*
X3888634Y-15819722D02*
X3898158Y-15800674D01*
X3898158Y-15800674D02*
X3917205Y-15791150D01*
X3917205Y-15791150D02*
X3945777Y-15791150D01*
X3945777Y-15791150D02*
X3964824Y-15800674D01*
X3964824Y-15800674D02*
X3974348Y-15819722D01*
X3974348Y-15819722D02*
X3974348Y-15924484D01*
X4069586Y-15924484D02*
X4069586Y-15791150D01*
X4069586Y-15810198D02*
X4079110Y-15800674D01*
X4079110Y-15800674D02*
X4098158Y-15791150D01*
X4098158Y-15791150D02*
X4126729Y-15791150D01*
X4126729Y-15791150D02*
X4145777Y-15800674D01*
X4145777Y-15800674D02*
X4155301Y-15819722D01*
X4155301Y-15819722D02*
X4155301Y-15924484D01*
X4155301Y-15819722D02*
X4164824Y-15800674D01*
X4164824Y-15800674D02*
X4183872Y-15791150D01*
X4183872Y-15791150D02*
X4212444Y-15791150D01*
X4212444Y-15791150D02*
X4231491Y-15800674D01*
X4231491Y-15800674D02*
X4241015Y-15819722D01*
X4241015Y-15819722D02*
X4241015Y-15924484D01*
X4631491Y-15714960D02*
X4460063Y-15972103D01*
X4888634Y-15724484D02*
X4907682Y-15724484D01*
X4907682Y-15724484D02*
X4926729Y-15734008D01*
X4926729Y-15734008D02*
X4936253Y-15743531D01*
X4936253Y-15743531D02*
X4945777Y-15762579D01*
X4945777Y-15762579D02*
X4955301Y-15800674D01*
X4955301Y-15800674D02*
X4955301Y-15848293D01*
X4955301Y-15848293D02*
X4945777Y-15886388D01*
X4945777Y-15886388D02*
X4936253Y-15905436D01*
X4936253Y-15905436D02*
X4926729Y-15914960D01*
X4926729Y-15914960D02*
X4907682Y-15924484D01*
X4907682Y-15924484D02*
X4888634Y-15924484D01*
X4888634Y-15924484D02*
X4869587Y-15914960D01*
X4869587Y-15914960D02*
X4860063Y-15905436D01*
X4860063Y-15905436D02*
X4850539Y-15886388D01*
X4850539Y-15886388D02*
X4841015Y-15848293D01*
X4841015Y-15848293D02*
X4841015Y-15800674D01*
X4841015Y-15800674D02*
X4850539Y-15762579D01*
X4850539Y-15762579D02*
X4860063Y-15743531D01*
X4860063Y-15743531D02*
X4869587Y-15734008D01*
X4869587Y-15734008D02*
X4888634Y-15724484D01*
X5041015Y-15905436D02*
X5050539Y-15914960D01*
X5050539Y-15914960D02*
X5041015Y-15924484D01*
X5041015Y-15924484D02*
X5031491Y-15914960D01*
X5031491Y-15914960D02*
X5041015Y-15905436D01*
X5041015Y-15905436D02*
X5041015Y-15924484D01*
X5174348Y-15724484D02*
X5193396Y-15724484D01*
X5193396Y-15724484D02*
X5212444Y-15734008D01*
X5212444Y-15734008D02*
X5221968Y-15743531D01*
X5221968Y-15743531D02*
X5231491Y-15762579D01*
X5231491Y-15762579D02*
X5241015Y-15800674D01*
X5241015Y-15800674D02*
X5241015Y-15848293D01*
X5241015Y-15848293D02*
X5231491Y-15886388D01*
X5231491Y-15886388D02*
X5221968Y-15905436D01*
X5221968Y-15905436D02*
X5212444Y-15914960D01*
X5212444Y-15914960D02*
X5193396Y-15924484D01*
X5193396Y-15924484D02*
X5174348Y-15924484D01*
X5174348Y-15924484D02*
X5155301Y-15914960D01*
X5155301Y-15914960D02*
X5145777Y-15905436D01*
X5145777Y-15905436D02*
X5136253Y-15886388D01*
X5136253Y-15886388D02*
X5126729Y-15848293D01*
X5126729Y-15848293D02*
X5126729Y-15800674D01*
X5126729Y-15800674D02*
X5136253Y-15762579D01*
X5136253Y-15762579D02*
X5145777Y-15743531D01*
X5145777Y-15743531D02*
X5155301Y-15734008D01*
X5155301Y-15734008D02*
X5174348Y-15724484D01*
X5307682Y-15724484D02*
X5431491Y-15724484D01*
X5431491Y-15724484D02*
X5364825Y-15800674D01*
X5364825Y-15800674D02*
X5393396Y-15800674D01*
X5393396Y-15800674D02*
X5412444Y-15810198D01*
X5412444Y-15810198D02*
X5421968Y-15819722D01*
X5421968Y-15819722D02*
X5431491Y-15838769D01*
X5431491Y-15838769D02*
X5431491Y-15886388D01*
X5431491Y-15886388D02*
X5421968Y-15905436D01*
X5421968Y-15905436D02*
X5412444Y-15914960D01*
X5412444Y-15914960D02*
X5393396Y-15924484D01*
X5393396Y-15924484D02*
X5336253Y-15924484D01*
X5336253Y-15924484D02*
X5317206Y-15914960D01*
X5317206Y-15914960D02*
X5307682Y-15905436D01*
X5526729Y-15924484D02*
X5564825Y-15924484D01*
X5564825Y-15924484D02*
X5583872Y-15914960D01*
X5583872Y-15914960D02*
X5593396Y-15905436D01*
X5593396Y-15905436D02*
X5612444Y-15876865D01*
X5612444Y-15876865D02*
X5621967Y-15838769D01*
X5621967Y-15838769D02*
X5621967Y-15762579D01*
X5621967Y-15762579D02*
X5612444Y-15743531D01*
X5612444Y-15743531D02*
X5602920Y-15734008D01*
X5602920Y-15734008D02*
X5583872Y-15724484D01*
X5583872Y-15724484D02*
X5545777Y-15724484D01*
X5545777Y-15724484D02*
X5526729Y-15734008D01*
X5526729Y-15734008D02*
X5517206Y-15743531D01*
X5517206Y-15743531D02*
X5507682Y-15762579D01*
X5507682Y-15762579D02*
X5507682Y-15810198D01*
X5507682Y-15810198D02*
X5517206Y-15829246D01*
X5517206Y-15829246D02*
X5526729Y-15838769D01*
X5526729Y-15838769D02*
X5545777Y-15848293D01*
X5545777Y-15848293D02*
X5583872Y-15848293D01*
X5583872Y-15848293D02*
X5602920Y-15838769D01*
X5602920Y-15838769D02*
X5612444Y-15829246D01*
X5612444Y-15829246D02*
X5621967Y-15810198D01*
X5793396Y-15791150D02*
X5793396Y-15924484D01*
X5745777Y-15714960D02*
X5698158Y-15857817D01*
X5698158Y-15857817D02*
X5821967Y-15857817D01*
X5888634Y-15724484D02*
X5888634Y-15762579D01*
X5964825Y-15724484D02*
X5964825Y-15762579D01*
X6260063Y-16000674D02*
X6250539Y-15991150D01*
X6250539Y-15991150D02*
X6231491Y-15962579D01*
X6231491Y-15962579D02*
X6221968Y-15943531D01*
X6221968Y-15943531D02*
X6212444Y-15914960D01*
X6212444Y-15914960D02*
X6202920Y-15867341D01*
X6202920Y-15867341D02*
X6202920Y-15829246D01*
X6202920Y-15829246D02*
X6212444Y-15781627D01*
X6212444Y-15781627D02*
X6221968Y-15753055D01*
X6221968Y-15753055D02*
X6231491Y-15734008D01*
X6231491Y-15734008D02*
X6250539Y-15705436D01*
X6250539Y-15705436D02*
X6260063Y-15695912D01*
X6431491Y-15724484D02*
X6336253Y-15724484D01*
X6336253Y-15724484D02*
X6326729Y-15819722D01*
X6326729Y-15819722D02*
X6336253Y-15810198D01*
X6336253Y-15810198D02*
X6355301Y-15800674D01*
X6355301Y-15800674D02*
X6402920Y-15800674D01*
X6402920Y-15800674D02*
X6421968Y-15810198D01*
X6421968Y-15810198D02*
X6431491Y-15819722D01*
X6431491Y-15819722D02*
X6441015Y-15838769D01*
X6441015Y-15838769D02*
X6441015Y-15886388D01*
X6441015Y-15886388D02*
X6431491Y-15905436D01*
X6431491Y-15905436D02*
X6421968Y-15914960D01*
X6421968Y-15914960D02*
X6402920Y-15924484D01*
X6402920Y-15924484D02*
X6355301Y-15924484D01*
X6355301Y-15924484D02*
X6336253Y-15914960D01*
X6336253Y-15914960D02*
X6326729Y-15905436D01*
X6507682Y-15724484D02*
X6631491Y-15724484D01*
X6631491Y-15724484D02*
X6564825Y-15800674D01*
X6564825Y-15800674D02*
X6593396Y-15800674D01*
X6593396Y-15800674D02*
X6612444Y-15810198D01*
X6612444Y-15810198D02*
X6621968Y-15819722D01*
X6621968Y-15819722D02*
X6631491Y-15838769D01*
X6631491Y-15838769D02*
X6631491Y-15886388D01*
X6631491Y-15886388D02*
X6621968Y-15905436D01*
X6621968Y-15905436D02*
X6612444Y-15914960D01*
X6612444Y-15914960D02*
X6593396Y-15924484D01*
X6593396Y-15924484D02*
X6536253Y-15924484D01*
X6536253Y-15924484D02*
X6517206Y-15914960D01*
X6517206Y-15914960D02*
X6507682Y-15905436D01*
X6869587Y-15924484D02*
X6869587Y-15724484D01*
X6955301Y-15924484D02*
X6955301Y-15819722D01*
X6955301Y-15819722D02*
X6945777Y-15800674D01*
X6945777Y-15800674D02*
X6926730Y-15791150D01*
X6926730Y-15791150D02*
X6898158Y-15791150D01*
X6898158Y-15791150D02*
X6879110Y-15800674D01*
X6879110Y-15800674D02*
X6869587Y-15810198D01*
X7079110Y-15924484D02*
X7060063Y-15914960D01*
X7060063Y-15914960D02*
X7050539Y-15905436D01*
X7050539Y-15905436D02*
X7041015Y-15886388D01*
X7041015Y-15886388D02*
X7041015Y-15829246D01*
X7041015Y-15829246D02*
X7050539Y-15810198D01*
X7050539Y-15810198D02*
X7060063Y-15800674D01*
X7060063Y-15800674D02*
X7079110Y-15791150D01*
X7079110Y-15791150D02*
X7107682Y-15791150D01*
X7107682Y-15791150D02*
X7126730Y-15800674D01*
X7126730Y-15800674D02*
X7136253Y-15810198D01*
X7136253Y-15810198D02*
X7145777Y-15829246D01*
X7145777Y-15829246D02*
X7145777Y-15886388D01*
X7145777Y-15886388D02*
X7136253Y-15905436D01*
X7136253Y-15905436D02*
X7126730Y-15914960D01*
X7126730Y-15914960D02*
X7107682Y-15924484D01*
X7107682Y-15924484D02*
X7079110Y-15924484D01*
X7260063Y-15924484D02*
X7241015Y-15914960D01*
X7241015Y-15914960D02*
X7231491Y-15895912D01*
X7231491Y-15895912D02*
X7231491Y-15724484D01*
X7412444Y-15914960D02*
X7393396Y-15924484D01*
X7393396Y-15924484D02*
X7355301Y-15924484D01*
X7355301Y-15924484D02*
X7336253Y-15914960D01*
X7336253Y-15914960D02*
X7326730Y-15895912D01*
X7326730Y-15895912D02*
X7326730Y-15819722D01*
X7326730Y-15819722D02*
X7336253Y-15800674D01*
X7336253Y-15800674D02*
X7355301Y-15791150D01*
X7355301Y-15791150D02*
X7393396Y-15791150D01*
X7393396Y-15791150D02*
X7412444Y-15800674D01*
X7412444Y-15800674D02*
X7421968Y-15819722D01*
X7421968Y-15819722D02*
X7421968Y-15838769D01*
X7421968Y-15838769D02*
X7326730Y-15857817D01*
X7498158Y-15914960D02*
X7517206Y-15924484D01*
X7517206Y-15924484D02*
X7555301Y-15924484D01*
X7555301Y-15924484D02*
X7574349Y-15914960D01*
X7574349Y-15914960D02*
X7583872Y-15895912D01*
X7583872Y-15895912D02*
X7583872Y-15886388D01*
X7583872Y-15886388D02*
X7574349Y-15867341D01*
X7574349Y-15867341D02*
X7555301Y-15857817D01*
X7555301Y-15857817D02*
X7526730Y-15857817D01*
X7526730Y-15857817D02*
X7507682Y-15848293D01*
X7507682Y-15848293D02*
X7498158Y-15829246D01*
X7498158Y-15829246D02*
X7498158Y-15819722D01*
X7498158Y-15819722D02*
X7507682Y-15800674D01*
X7507682Y-15800674D02*
X7526730Y-15791150D01*
X7526730Y-15791150D02*
X7555301Y-15791150D01*
X7555301Y-15791150D02*
X7574349Y-15800674D01*
X7650539Y-16000674D02*
X7660063Y-15991150D01*
X7660063Y-15991150D02*
X7679111Y-15962579D01*
X7679111Y-15962579D02*
X7688634Y-15943531D01*
X7688634Y-15943531D02*
X7698158Y-15914960D01*
X7698158Y-15914960D02*
X7707682Y-15867341D01*
X7707682Y-15867341D02*
X7707682Y-15829246D01*
X7707682Y-15829246D02*
X7698158Y-15781627D01*
X7698158Y-15781627D02*
X7688634Y-15753055D01*
X7688634Y-15753055D02*
X7679111Y-15734008D01*
X7679111Y-15734008D02*
X7660063Y-15705436D01*
X7660063Y-15705436D02*
X7650539Y-15695912D01*
D13*
X2668891Y-16135891D02*
X2668891Y-16058109D01*
X2591109Y-16058109D01*
X2591109Y-16135891D01*
X2668891Y-16135891D01*
D11*
X3050539Y-16188484D02*
X2936253Y-16188484D01*
X2993396Y-16188484D02*
X2993396Y-15988484D01*
X2993396Y-15988484D02*
X2974348Y-16017055D01*
X2974348Y-16017055D02*
X2955301Y-16036103D01*
X2955301Y-16036103D02*
X2936253Y-16045627D01*
X3136253Y-16169436D02*
X3145777Y-16178960D01*
X3145777Y-16178960D02*
X3136253Y-16188484D01*
X3136253Y-16188484D02*
X3126729Y-16178960D01*
X3126729Y-16178960D02*
X3136253Y-16169436D01*
X3136253Y-16169436D02*
X3136253Y-16188484D01*
X3336253Y-16188484D02*
X3221967Y-16188484D01*
X3279110Y-16188484D02*
X3279110Y-15988484D01*
X3279110Y-15988484D02*
X3260062Y-16017055D01*
X3260062Y-16017055D02*
X3241015Y-16036103D01*
X3241015Y-16036103D02*
X3221967Y-16045627D01*
X3460062Y-15988484D02*
X3479110Y-15988484D01*
X3479110Y-15988484D02*
X3498158Y-15998008D01*
X3498158Y-15998008D02*
X3507682Y-16007531D01*
X3507682Y-16007531D02*
X3517205Y-16026579D01*
X3517205Y-16026579D02*
X3526729Y-16064674D01*
X3526729Y-16064674D02*
X3526729Y-16112293D01*
X3526729Y-16112293D02*
X3517205Y-16150388D01*
X3517205Y-16150388D02*
X3507682Y-16169436D01*
X3507682Y-16169436D02*
X3498158Y-16178960D01*
X3498158Y-16178960D02*
X3479110Y-16188484D01*
X3479110Y-16188484D02*
X3460062Y-16188484D01*
X3460062Y-16188484D02*
X3441015Y-16178960D01*
X3441015Y-16178960D02*
X3431491Y-16169436D01*
X3431491Y-16169436D02*
X3421967Y-16150388D01*
X3421967Y-16150388D02*
X3412443Y-16112293D01*
X3412443Y-16112293D02*
X3412443Y-16064674D01*
X3412443Y-16064674D02*
X3421967Y-16026579D01*
X3421967Y-16026579D02*
X3431491Y-16007531D01*
X3431491Y-16007531D02*
X3441015Y-15998008D01*
X3441015Y-15998008D02*
X3460062Y-15988484D01*
X3650539Y-15988484D02*
X3669586Y-15988484D01*
X3669586Y-15988484D02*
X3688634Y-15998008D01*
X3688634Y-15998008D02*
X3698158Y-16007531D01*
X3698158Y-16007531D02*
X3707682Y-16026579D01*
X3707682Y-16026579D02*
X3717205Y-16064674D01*
X3717205Y-16064674D02*
X3717205Y-16112293D01*
X3717205Y-16112293D02*
X3707682Y-16150388D01*
X3707682Y-16150388D02*
X3698158Y-16169436D01*
X3698158Y-16169436D02*
X3688634Y-16178960D01*
X3688634Y-16178960D02*
X3669586Y-16188484D01*
X3669586Y-16188484D02*
X3650539Y-16188484D01*
X3650539Y-16188484D02*
X3631491Y-16178960D01*
X3631491Y-16178960D02*
X3621967Y-16169436D01*
X3621967Y-16169436D02*
X3612443Y-16150388D01*
X3612443Y-16150388D02*
X3602920Y-16112293D01*
X3602920Y-16112293D02*
X3602920Y-16064674D01*
X3602920Y-16064674D02*
X3612443Y-16026579D01*
X3612443Y-16026579D02*
X3621967Y-16007531D01*
X3621967Y-16007531D02*
X3631491Y-15998008D01*
X3631491Y-15998008D02*
X3650539Y-15988484D01*
X3802920Y-16188484D02*
X3802920Y-16055150D01*
X3802920Y-16074198D02*
X3812443Y-16064674D01*
X3812443Y-16064674D02*
X3831491Y-16055150D01*
X3831491Y-16055150D02*
X3860063Y-16055150D01*
X3860063Y-16055150D02*
X3879110Y-16064674D01*
X3879110Y-16064674D02*
X3888634Y-16083722D01*
X3888634Y-16083722D02*
X3888634Y-16188484D01*
X3888634Y-16083722D02*
X3898158Y-16064674D01*
X3898158Y-16064674D02*
X3917205Y-16055150D01*
X3917205Y-16055150D02*
X3945777Y-16055150D01*
X3945777Y-16055150D02*
X3964824Y-16064674D01*
X3964824Y-16064674D02*
X3974348Y-16083722D01*
X3974348Y-16083722D02*
X3974348Y-16188484D01*
X4069586Y-16188484D02*
X4069586Y-16055150D01*
X4069586Y-16074198D02*
X4079110Y-16064674D01*
X4079110Y-16064674D02*
X4098158Y-16055150D01*
X4098158Y-16055150D02*
X4126729Y-16055150D01*
X4126729Y-16055150D02*
X4145777Y-16064674D01*
X4145777Y-16064674D02*
X4155301Y-16083722D01*
X4155301Y-16083722D02*
X4155301Y-16188484D01*
X4155301Y-16083722D02*
X4164824Y-16064674D01*
X4164824Y-16064674D02*
X4183872Y-16055150D01*
X4183872Y-16055150D02*
X4212444Y-16055150D01*
X4212444Y-16055150D02*
X4231491Y-16064674D01*
X4231491Y-16064674D02*
X4241015Y-16083722D01*
X4241015Y-16083722D02*
X4241015Y-16188484D01*
X4631491Y-15978960D02*
X4460063Y-16236103D01*
X4888634Y-15988484D02*
X4907682Y-15988484D01*
X4907682Y-15988484D02*
X4926729Y-15998008D01*
X4926729Y-15998008D02*
X4936253Y-16007531D01*
X4936253Y-16007531D02*
X4945777Y-16026579D01*
X4945777Y-16026579D02*
X4955301Y-16064674D01*
X4955301Y-16064674D02*
X4955301Y-16112293D01*
X4955301Y-16112293D02*
X4945777Y-16150388D01*
X4945777Y-16150388D02*
X4936253Y-16169436D01*
X4936253Y-16169436D02*
X4926729Y-16178960D01*
X4926729Y-16178960D02*
X4907682Y-16188484D01*
X4907682Y-16188484D02*
X4888634Y-16188484D01*
X4888634Y-16188484D02*
X4869587Y-16178960D01*
X4869587Y-16178960D02*
X4860063Y-16169436D01*
X4860063Y-16169436D02*
X4850539Y-16150388D01*
X4850539Y-16150388D02*
X4841015Y-16112293D01*
X4841015Y-16112293D02*
X4841015Y-16064674D01*
X4841015Y-16064674D02*
X4850539Y-16026579D01*
X4850539Y-16026579D02*
X4860063Y-16007531D01*
X4860063Y-16007531D02*
X4869587Y-15998008D01*
X4869587Y-15998008D02*
X4888634Y-15988484D01*
X5041015Y-16169436D02*
X5050539Y-16178960D01*
X5050539Y-16178960D02*
X5041015Y-16188484D01*
X5041015Y-16188484D02*
X5031491Y-16178960D01*
X5031491Y-16178960D02*
X5041015Y-16169436D01*
X5041015Y-16169436D02*
X5041015Y-16188484D01*
X5174348Y-15988484D02*
X5193396Y-15988484D01*
X5193396Y-15988484D02*
X5212444Y-15998008D01*
X5212444Y-15998008D02*
X5221968Y-16007531D01*
X5221968Y-16007531D02*
X5231491Y-16026579D01*
X5231491Y-16026579D02*
X5241015Y-16064674D01*
X5241015Y-16064674D02*
X5241015Y-16112293D01*
X5241015Y-16112293D02*
X5231491Y-16150388D01*
X5231491Y-16150388D02*
X5221968Y-16169436D01*
X5221968Y-16169436D02*
X5212444Y-16178960D01*
X5212444Y-16178960D02*
X5193396Y-16188484D01*
X5193396Y-16188484D02*
X5174348Y-16188484D01*
X5174348Y-16188484D02*
X5155301Y-16178960D01*
X5155301Y-16178960D02*
X5145777Y-16169436D01*
X5145777Y-16169436D02*
X5136253Y-16150388D01*
X5136253Y-16150388D02*
X5126729Y-16112293D01*
X5126729Y-16112293D02*
X5126729Y-16064674D01*
X5126729Y-16064674D02*
X5136253Y-16026579D01*
X5136253Y-16026579D02*
X5145777Y-16007531D01*
X5145777Y-16007531D02*
X5155301Y-15998008D01*
X5155301Y-15998008D02*
X5174348Y-15988484D01*
X5412444Y-16055150D02*
X5412444Y-16188484D01*
X5364825Y-15978960D02*
X5317206Y-16121817D01*
X5317206Y-16121817D02*
X5441015Y-16121817D01*
X5498158Y-15988484D02*
X5621967Y-15988484D01*
X5621967Y-15988484D02*
X5555301Y-16064674D01*
X5555301Y-16064674D02*
X5583872Y-16064674D01*
X5583872Y-16064674D02*
X5602920Y-16074198D01*
X5602920Y-16074198D02*
X5612444Y-16083722D01*
X5612444Y-16083722D02*
X5621967Y-16102769D01*
X5621967Y-16102769D02*
X5621967Y-16150388D01*
X5621967Y-16150388D02*
X5612444Y-16169436D01*
X5612444Y-16169436D02*
X5602920Y-16178960D01*
X5602920Y-16178960D02*
X5583872Y-16188484D01*
X5583872Y-16188484D02*
X5526729Y-16188484D01*
X5526729Y-16188484D02*
X5507682Y-16178960D01*
X5507682Y-16178960D02*
X5498158Y-16169436D01*
X5688634Y-15988484D02*
X5812444Y-15988484D01*
X5812444Y-15988484D02*
X5745777Y-16064674D01*
X5745777Y-16064674D02*
X5774348Y-16064674D01*
X5774348Y-16064674D02*
X5793396Y-16074198D01*
X5793396Y-16074198D02*
X5802920Y-16083722D01*
X5802920Y-16083722D02*
X5812444Y-16102769D01*
X5812444Y-16102769D02*
X5812444Y-16150388D01*
X5812444Y-16150388D02*
X5802920Y-16169436D01*
X5802920Y-16169436D02*
X5793396Y-16178960D01*
X5793396Y-16178960D02*
X5774348Y-16188484D01*
X5774348Y-16188484D02*
X5717206Y-16188484D01*
X5717206Y-16188484D02*
X5698158Y-16178960D01*
X5698158Y-16178960D02*
X5688634Y-16169436D01*
X5888634Y-15988484D02*
X5888634Y-16026579D01*
X5964825Y-15988484D02*
X5964825Y-16026579D01*
X6260063Y-16264674D02*
X6250539Y-16255150D01*
X6250539Y-16255150D02*
X6231491Y-16226579D01*
X6231491Y-16226579D02*
X6221968Y-16207531D01*
X6221968Y-16207531D02*
X6212444Y-16178960D01*
X6212444Y-16178960D02*
X6202920Y-16131341D01*
X6202920Y-16131341D02*
X6202920Y-16093246D01*
X6202920Y-16093246D02*
X6212444Y-16045627D01*
X6212444Y-16045627D02*
X6221968Y-16017055D01*
X6221968Y-16017055D02*
X6231491Y-15998008D01*
X6231491Y-15998008D02*
X6250539Y-15969436D01*
X6250539Y-15969436D02*
X6260063Y-15959912D01*
X6421968Y-16055150D02*
X6421968Y-16188484D01*
X6374348Y-15978960D02*
X6326729Y-16121817D01*
X6326729Y-16121817D02*
X6450539Y-16121817D01*
X6679110Y-16188484D02*
X6679110Y-15988484D01*
X6764825Y-16188484D02*
X6764825Y-16083722D01*
X6764825Y-16083722D02*
X6755301Y-16064674D01*
X6755301Y-16064674D02*
X6736253Y-16055150D01*
X6736253Y-16055150D02*
X6707682Y-16055150D01*
X6707682Y-16055150D02*
X6688634Y-16064674D01*
X6688634Y-16064674D02*
X6679110Y-16074198D01*
X6888634Y-16188484D02*
X6869587Y-16178960D01*
X6869587Y-16178960D02*
X6860063Y-16169436D01*
X6860063Y-16169436D02*
X6850539Y-16150388D01*
X6850539Y-16150388D02*
X6850539Y-16093246D01*
X6850539Y-16093246D02*
X6860063Y-16074198D01*
X6860063Y-16074198D02*
X6869587Y-16064674D01*
X6869587Y-16064674D02*
X6888634Y-16055150D01*
X6888634Y-16055150D02*
X6917206Y-16055150D01*
X6917206Y-16055150D02*
X6936253Y-16064674D01*
X6936253Y-16064674D02*
X6945777Y-16074198D01*
X6945777Y-16074198D02*
X6955301Y-16093246D01*
X6955301Y-16093246D02*
X6955301Y-16150388D01*
X6955301Y-16150388D02*
X6945777Y-16169436D01*
X6945777Y-16169436D02*
X6936253Y-16178960D01*
X6936253Y-16178960D02*
X6917206Y-16188484D01*
X6917206Y-16188484D02*
X6888634Y-16188484D01*
X7069587Y-16188484D02*
X7050539Y-16178960D01*
X7050539Y-16178960D02*
X7041015Y-16159912D01*
X7041015Y-16159912D02*
X7041015Y-15988484D01*
X7221968Y-16178960D02*
X7202920Y-16188484D01*
X7202920Y-16188484D02*
X7164825Y-16188484D01*
X7164825Y-16188484D02*
X7145777Y-16178960D01*
X7145777Y-16178960D02*
X7136253Y-16159912D01*
X7136253Y-16159912D02*
X7136253Y-16083722D01*
X7136253Y-16083722D02*
X7145777Y-16064674D01*
X7145777Y-16064674D02*
X7164825Y-16055150D01*
X7164825Y-16055150D02*
X7202920Y-16055150D01*
X7202920Y-16055150D02*
X7221968Y-16064674D01*
X7221968Y-16064674D02*
X7231491Y-16083722D01*
X7231491Y-16083722D02*
X7231491Y-16102769D01*
X7231491Y-16102769D02*
X7136253Y-16121817D01*
X7307682Y-16178960D02*
X7326730Y-16188484D01*
X7326730Y-16188484D02*
X7364825Y-16188484D01*
X7364825Y-16188484D02*
X7383872Y-16178960D01*
X7383872Y-16178960D02*
X7393396Y-16159912D01*
X7393396Y-16159912D02*
X7393396Y-16150388D01*
X7393396Y-16150388D02*
X7383872Y-16131341D01*
X7383872Y-16131341D02*
X7364825Y-16121817D01*
X7364825Y-16121817D02*
X7336253Y-16121817D01*
X7336253Y-16121817D02*
X7317206Y-16112293D01*
X7317206Y-16112293D02*
X7307682Y-16093246D01*
X7307682Y-16093246D02*
X7307682Y-16083722D01*
X7307682Y-16083722D02*
X7317206Y-16064674D01*
X7317206Y-16064674D02*
X7336253Y-16055150D01*
X7336253Y-16055150D02*
X7364825Y-16055150D01*
X7364825Y-16055150D02*
X7383872Y-16064674D01*
X7460063Y-16264674D02*
X7469587Y-16255150D01*
X7469587Y-16255150D02*
X7488634Y-16226579D01*
X7488634Y-16226579D02*
X7498158Y-16207531D01*
X7498158Y-16207531D02*
X7507682Y-16178960D01*
X7507682Y-16178960D02*
X7517206Y-16131341D01*
X7517206Y-16131341D02*
X7517206Y-16093246D01*
X7517206Y-16093246D02*
X7507682Y-16045627D01*
X7507682Y-16045627D02*
X7498158Y-16017055D01*
X7498158Y-16017055D02*
X7488634Y-15998008D01*
X7488634Y-15998008D02*
X7469587Y-15969436D01*
X7469587Y-15969436D02*
X7460063Y-15959912D01*
D14*
X2625000Y-16421000D02*
X2685000Y-16361000D01*
X2625000Y-16301000D01*
X2565000Y-16361000D01*
X2625000Y-16421000D01*
D11*
X3050539Y-16452484D02*
X2936253Y-16452484D01*
X2993396Y-16452484D02*
X2993396Y-16252484D01*
X2993396Y-16252484D02*
X2974348Y-16281055D01*
X2974348Y-16281055D02*
X2955301Y-16300103D01*
X2955301Y-16300103D02*
X2936253Y-16309627D01*
X3136253Y-16433436D02*
X3145777Y-16442960D01*
X3145777Y-16442960D02*
X3136253Y-16452484D01*
X3136253Y-16452484D02*
X3126729Y-16442960D01*
X3126729Y-16442960D02*
X3136253Y-16433436D01*
X3136253Y-16433436D02*
X3136253Y-16452484D01*
X3221967Y-16271531D02*
X3231491Y-16262008D01*
X3231491Y-16262008D02*
X3250539Y-16252484D01*
X3250539Y-16252484D02*
X3298158Y-16252484D01*
X3298158Y-16252484D02*
X3317205Y-16262008D01*
X3317205Y-16262008D02*
X3326729Y-16271531D01*
X3326729Y-16271531D02*
X3336253Y-16290579D01*
X3336253Y-16290579D02*
X3336253Y-16309627D01*
X3336253Y-16309627D02*
X3326729Y-16338198D01*
X3326729Y-16338198D02*
X3212443Y-16452484D01*
X3212443Y-16452484D02*
X3336253Y-16452484D01*
X3460062Y-16252484D02*
X3479110Y-16252484D01*
X3479110Y-16252484D02*
X3498158Y-16262008D01*
X3498158Y-16262008D02*
X3507682Y-16271531D01*
X3507682Y-16271531D02*
X3517205Y-16290579D01*
X3517205Y-16290579D02*
X3526729Y-16328674D01*
X3526729Y-16328674D02*
X3526729Y-16376293D01*
X3526729Y-16376293D02*
X3517205Y-16414388D01*
X3517205Y-16414388D02*
X3507682Y-16433436D01*
X3507682Y-16433436D02*
X3498158Y-16442960D01*
X3498158Y-16442960D02*
X3479110Y-16452484D01*
X3479110Y-16452484D02*
X3460062Y-16452484D01*
X3460062Y-16452484D02*
X3441015Y-16442960D01*
X3441015Y-16442960D02*
X3431491Y-16433436D01*
X3431491Y-16433436D02*
X3421967Y-16414388D01*
X3421967Y-16414388D02*
X3412443Y-16376293D01*
X3412443Y-16376293D02*
X3412443Y-16328674D01*
X3412443Y-16328674D02*
X3421967Y-16290579D01*
X3421967Y-16290579D02*
X3431491Y-16271531D01*
X3431491Y-16271531D02*
X3441015Y-16262008D01*
X3441015Y-16262008D02*
X3460062Y-16252484D01*
X3650539Y-16252484D02*
X3669586Y-16252484D01*
X3669586Y-16252484D02*
X3688634Y-16262008D01*
X3688634Y-16262008D02*
X3698158Y-16271531D01*
X3698158Y-16271531D02*
X3707682Y-16290579D01*
X3707682Y-16290579D02*
X3717205Y-16328674D01*
X3717205Y-16328674D02*
X3717205Y-16376293D01*
X3717205Y-16376293D02*
X3707682Y-16414388D01*
X3707682Y-16414388D02*
X3698158Y-16433436D01*
X3698158Y-16433436D02*
X3688634Y-16442960D01*
X3688634Y-16442960D02*
X3669586Y-16452484D01*
X3669586Y-16452484D02*
X3650539Y-16452484D01*
X3650539Y-16452484D02*
X3631491Y-16442960D01*
X3631491Y-16442960D02*
X3621967Y-16433436D01*
X3621967Y-16433436D02*
X3612443Y-16414388D01*
X3612443Y-16414388D02*
X3602920Y-16376293D01*
X3602920Y-16376293D02*
X3602920Y-16328674D01*
X3602920Y-16328674D02*
X3612443Y-16290579D01*
X3612443Y-16290579D02*
X3621967Y-16271531D01*
X3621967Y-16271531D02*
X3631491Y-16262008D01*
X3631491Y-16262008D02*
X3650539Y-16252484D01*
X3802920Y-16452484D02*
X3802920Y-16319150D01*
X3802920Y-16338198D02*
X3812443Y-16328674D01*
X3812443Y-16328674D02*
X3831491Y-16319150D01*
X3831491Y-16319150D02*
X3860063Y-16319150D01*
X3860063Y-16319150D02*
X3879110Y-16328674D01*
X3879110Y-16328674D02*
X3888634Y-16347722D01*
X3888634Y-16347722D02*
X3888634Y-16452484D01*
X3888634Y-16347722D02*
X3898158Y-16328674D01*
X3898158Y-16328674D02*
X3917205Y-16319150D01*
X3917205Y-16319150D02*
X3945777Y-16319150D01*
X3945777Y-16319150D02*
X3964824Y-16328674D01*
X3964824Y-16328674D02*
X3974348Y-16347722D01*
X3974348Y-16347722D02*
X3974348Y-16452484D01*
X4069586Y-16452484D02*
X4069586Y-16319150D01*
X4069586Y-16338198D02*
X4079110Y-16328674D01*
X4079110Y-16328674D02*
X4098158Y-16319150D01*
X4098158Y-16319150D02*
X4126729Y-16319150D01*
X4126729Y-16319150D02*
X4145777Y-16328674D01*
X4145777Y-16328674D02*
X4155301Y-16347722D01*
X4155301Y-16347722D02*
X4155301Y-16452484D01*
X4155301Y-16347722D02*
X4164824Y-16328674D01*
X4164824Y-16328674D02*
X4183872Y-16319150D01*
X4183872Y-16319150D02*
X4212444Y-16319150D01*
X4212444Y-16319150D02*
X4231491Y-16328674D01*
X4231491Y-16328674D02*
X4241015Y-16347722D01*
X4241015Y-16347722D02*
X4241015Y-16452484D01*
X4631491Y-16242960D02*
X4460063Y-16500103D01*
X4888634Y-16252484D02*
X4907682Y-16252484D01*
X4907682Y-16252484D02*
X4926729Y-16262008D01*
X4926729Y-16262008D02*
X4936253Y-16271531D01*
X4936253Y-16271531D02*
X4945777Y-16290579D01*
X4945777Y-16290579D02*
X4955301Y-16328674D01*
X4955301Y-16328674D02*
X4955301Y-16376293D01*
X4955301Y-16376293D02*
X4945777Y-16414388D01*
X4945777Y-16414388D02*
X4936253Y-16433436D01*
X4936253Y-16433436D02*
X4926729Y-16442960D01*
X4926729Y-16442960D02*
X4907682Y-16452484D01*
X4907682Y-16452484D02*
X4888634Y-16452484D01*
X4888634Y-16452484D02*
X4869587Y-16442960D01*
X4869587Y-16442960D02*
X4860063Y-16433436D01*
X4860063Y-16433436D02*
X4850539Y-16414388D01*
X4850539Y-16414388D02*
X4841015Y-16376293D01*
X4841015Y-16376293D02*
X4841015Y-16328674D01*
X4841015Y-16328674D02*
X4850539Y-16290579D01*
X4850539Y-16290579D02*
X4860063Y-16271531D01*
X4860063Y-16271531D02*
X4869587Y-16262008D01*
X4869587Y-16262008D02*
X4888634Y-16252484D01*
X5041015Y-16433436D02*
X5050539Y-16442960D01*
X5050539Y-16442960D02*
X5041015Y-16452484D01*
X5041015Y-16452484D02*
X5031491Y-16442960D01*
X5031491Y-16442960D02*
X5041015Y-16433436D01*
X5041015Y-16433436D02*
X5041015Y-16452484D01*
X5174348Y-16252484D02*
X5193396Y-16252484D01*
X5193396Y-16252484D02*
X5212444Y-16262008D01*
X5212444Y-16262008D02*
X5221968Y-16271531D01*
X5221968Y-16271531D02*
X5231491Y-16290579D01*
X5231491Y-16290579D02*
X5241015Y-16328674D01*
X5241015Y-16328674D02*
X5241015Y-16376293D01*
X5241015Y-16376293D02*
X5231491Y-16414388D01*
X5231491Y-16414388D02*
X5221968Y-16433436D01*
X5221968Y-16433436D02*
X5212444Y-16442960D01*
X5212444Y-16442960D02*
X5193396Y-16452484D01*
X5193396Y-16452484D02*
X5174348Y-16452484D01*
X5174348Y-16452484D02*
X5155301Y-16442960D01*
X5155301Y-16442960D02*
X5145777Y-16433436D01*
X5145777Y-16433436D02*
X5136253Y-16414388D01*
X5136253Y-16414388D02*
X5126729Y-16376293D01*
X5126729Y-16376293D02*
X5126729Y-16328674D01*
X5126729Y-16328674D02*
X5136253Y-16290579D01*
X5136253Y-16290579D02*
X5145777Y-16271531D01*
X5145777Y-16271531D02*
X5155301Y-16262008D01*
X5155301Y-16262008D02*
X5174348Y-16252484D01*
X5412444Y-16319150D02*
X5412444Y-16452484D01*
X5364825Y-16242960D02*
X5317206Y-16385817D01*
X5317206Y-16385817D02*
X5441015Y-16385817D01*
X5498158Y-16252484D02*
X5631491Y-16252484D01*
X5631491Y-16252484D02*
X5545777Y-16452484D01*
X5698158Y-16271531D02*
X5707682Y-16262008D01*
X5707682Y-16262008D02*
X5726729Y-16252484D01*
X5726729Y-16252484D02*
X5774348Y-16252484D01*
X5774348Y-16252484D02*
X5793396Y-16262008D01*
X5793396Y-16262008D02*
X5802920Y-16271531D01*
X5802920Y-16271531D02*
X5812444Y-16290579D01*
X5812444Y-16290579D02*
X5812444Y-16309627D01*
X5812444Y-16309627D02*
X5802920Y-16338198D01*
X5802920Y-16338198D02*
X5688634Y-16452484D01*
X5688634Y-16452484D02*
X5812444Y-16452484D01*
X5888634Y-16252484D02*
X5888634Y-16290579D01*
X5964825Y-16252484D02*
X5964825Y-16290579D01*
X6260063Y-16528674D02*
X6250539Y-16519150D01*
X6250539Y-16519150D02*
X6231491Y-16490579D01*
X6231491Y-16490579D02*
X6221968Y-16471531D01*
X6221968Y-16471531D02*
X6212444Y-16442960D01*
X6212444Y-16442960D02*
X6202920Y-16395341D01*
X6202920Y-16395341D02*
X6202920Y-16357246D01*
X6202920Y-16357246D02*
X6212444Y-16309627D01*
X6212444Y-16309627D02*
X6221968Y-16281055D01*
X6221968Y-16281055D02*
X6231491Y-16262008D01*
X6231491Y-16262008D02*
X6250539Y-16233436D01*
X6250539Y-16233436D02*
X6260063Y-16223912D01*
X6326729Y-16271531D02*
X6336253Y-16262008D01*
X6336253Y-16262008D02*
X6355301Y-16252484D01*
X6355301Y-16252484D02*
X6402920Y-16252484D01*
X6402920Y-16252484D02*
X6421968Y-16262008D01*
X6421968Y-16262008D02*
X6431491Y-16271531D01*
X6431491Y-16271531D02*
X6441015Y-16290579D01*
X6441015Y-16290579D02*
X6441015Y-16309627D01*
X6441015Y-16309627D02*
X6431491Y-16338198D01*
X6431491Y-16338198D02*
X6317206Y-16452484D01*
X6317206Y-16452484D02*
X6441015Y-16452484D01*
X6679110Y-16452484D02*
X6679110Y-16252484D01*
X6764825Y-16452484D02*
X6764825Y-16347722D01*
X6764825Y-16347722D02*
X6755301Y-16328674D01*
X6755301Y-16328674D02*
X6736253Y-16319150D01*
X6736253Y-16319150D02*
X6707682Y-16319150D01*
X6707682Y-16319150D02*
X6688634Y-16328674D01*
X6688634Y-16328674D02*
X6679110Y-16338198D01*
X6888634Y-16452484D02*
X6869587Y-16442960D01*
X6869587Y-16442960D02*
X6860063Y-16433436D01*
X6860063Y-16433436D02*
X6850539Y-16414388D01*
X6850539Y-16414388D02*
X6850539Y-16357246D01*
X6850539Y-16357246D02*
X6860063Y-16338198D01*
X6860063Y-16338198D02*
X6869587Y-16328674D01*
X6869587Y-16328674D02*
X6888634Y-16319150D01*
X6888634Y-16319150D02*
X6917206Y-16319150D01*
X6917206Y-16319150D02*
X6936253Y-16328674D01*
X6936253Y-16328674D02*
X6945777Y-16338198D01*
X6945777Y-16338198D02*
X6955301Y-16357246D01*
X6955301Y-16357246D02*
X6955301Y-16414388D01*
X6955301Y-16414388D02*
X6945777Y-16433436D01*
X6945777Y-16433436D02*
X6936253Y-16442960D01*
X6936253Y-16442960D02*
X6917206Y-16452484D01*
X6917206Y-16452484D02*
X6888634Y-16452484D01*
X7069587Y-16452484D02*
X7050539Y-16442960D01*
X7050539Y-16442960D02*
X7041015Y-16423912D01*
X7041015Y-16423912D02*
X7041015Y-16252484D01*
X7221968Y-16442960D02*
X7202920Y-16452484D01*
X7202920Y-16452484D02*
X7164825Y-16452484D01*
X7164825Y-16452484D02*
X7145777Y-16442960D01*
X7145777Y-16442960D02*
X7136253Y-16423912D01*
X7136253Y-16423912D02*
X7136253Y-16347722D01*
X7136253Y-16347722D02*
X7145777Y-16328674D01*
X7145777Y-16328674D02*
X7164825Y-16319150D01*
X7164825Y-16319150D02*
X7202920Y-16319150D01*
X7202920Y-16319150D02*
X7221968Y-16328674D01*
X7221968Y-16328674D02*
X7231491Y-16347722D01*
X7231491Y-16347722D02*
X7231491Y-16366769D01*
X7231491Y-16366769D02*
X7136253Y-16385817D01*
X7307682Y-16442960D02*
X7326730Y-16452484D01*
X7326730Y-16452484D02*
X7364825Y-16452484D01*
X7364825Y-16452484D02*
X7383872Y-16442960D01*
X7383872Y-16442960D02*
X7393396Y-16423912D01*
X7393396Y-16423912D02*
X7393396Y-16414388D01*
X7393396Y-16414388D02*
X7383872Y-16395341D01*
X7383872Y-16395341D02*
X7364825Y-16385817D01*
X7364825Y-16385817D02*
X7336253Y-16385817D01*
X7336253Y-16385817D02*
X7317206Y-16376293D01*
X7317206Y-16376293D02*
X7307682Y-16357246D01*
X7307682Y-16357246D02*
X7307682Y-16347722D01*
X7307682Y-16347722D02*
X7317206Y-16328674D01*
X7317206Y-16328674D02*
X7336253Y-16319150D01*
X7336253Y-16319150D02*
X7364825Y-16319150D01*
X7364825Y-16319150D02*
X7383872Y-16328674D01*
X7460063Y-16528674D02*
X7469587Y-16519150D01*
X7469587Y-16519150D02*
X7488634Y-16490579D01*
X7488634Y-16490579D02*
X7498158Y-16471531D01*
X7498158Y-16471531D02*
X7507682Y-16442960D01*
X7507682Y-16442960D02*
X7517206Y-16395341D01*
X7517206Y-16395341D02*
X7517206Y-16357246D01*
X7517206Y-16357246D02*
X7507682Y-16309627D01*
X7507682Y-16309627D02*
X7498158Y-16281055D01*
X7498158Y-16281055D02*
X7488634Y-16262008D01*
X7488634Y-16262008D02*
X7469587Y-16233436D01*
X7469587Y-16233436D02*
X7460063Y-16223912D01*
D15*
X2560000Y-16562500D02*
X2685000Y-16687500D01*
X2685000Y-16562500D02*
X2560000Y-16687500D01*
X2685000Y-16625000D02*
G75*
G02*
X2560000Y-16625000I-62500J0D01*
G01*
X2560000Y-16625000D02*
G75*
G02*
X2685000Y-16625000I62500J0D01*
G01*
D11*
X3050539Y-16716484D02*
X2936253Y-16716484D01*
X2993396Y-16716484D02*
X2993396Y-16516484D01*
X2993396Y-16516484D02*
X2974348Y-16545055D01*
X2974348Y-16545055D02*
X2955301Y-16564103D01*
X2955301Y-16564103D02*
X2936253Y-16573627D01*
X3136253Y-16697436D02*
X3145777Y-16706960D01*
X3145777Y-16706960D02*
X3136253Y-16716484D01*
X3136253Y-16716484D02*
X3126729Y-16706960D01*
X3126729Y-16706960D02*
X3136253Y-16697436D01*
X3136253Y-16697436D02*
X3136253Y-16716484D01*
X3221967Y-16535531D02*
X3231491Y-16526008D01*
X3231491Y-16526008D02*
X3250539Y-16516484D01*
X3250539Y-16516484D02*
X3298158Y-16516484D01*
X3298158Y-16516484D02*
X3317205Y-16526008D01*
X3317205Y-16526008D02*
X3326729Y-16535531D01*
X3326729Y-16535531D02*
X3336253Y-16554579D01*
X3336253Y-16554579D02*
X3336253Y-16573627D01*
X3336253Y-16573627D02*
X3326729Y-16602198D01*
X3326729Y-16602198D02*
X3212443Y-16716484D01*
X3212443Y-16716484D02*
X3336253Y-16716484D01*
X3517205Y-16516484D02*
X3421967Y-16516484D01*
X3421967Y-16516484D02*
X3412443Y-16611722D01*
X3412443Y-16611722D02*
X3421967Y-16602198D01*
X3421967Y-16602198D02*
X3441015Y-16592674D01*
X3441015Y-16592674D02*
X3488634Y-16592674D01*
X3488634Y-16592674D02*
X3507682Y-16602198D01*
X3507682Y-16602198D02*
X3517205Y-16611722D01*
X3517205Y-16611722D02*
X3526729Y-16630769D01*
X3526729Y-16630769D02*
X3526729Y-16678388D01*
X3526729Y-16678388D02*
X3517205Y-16697436D01*
X3517205Y-16697436D02*
X3507682Y-16706960D01*
X3507682Y-16706960D02*
X3488634Y-16716484D01*
X3488634Y-16716484D02*
X3441015Y-16716484D01*
X3441015Y-16716484D02*
X3421967Y-16706960D01*
X3421967Y-16706960D02*
X3412443Y-16697436D01*
X3650539Y-16516484D02*
X3669586Y-16516484D01*
X3669586Y-16516484D02*
X3688634Y-16526008D01*
X3688634Y-16526008D02*
X3698158Y-16535531D01*
X3698158Y-16535531D02*
X3707682Y-16554579D01*
X3707682Y-16554579D02*
X3717205Y-16592674D01*
X3717205Y-16592674D02*
X3717205Y-16640293D01*
X3717205Y-16640293D02*
X3707682Y-16678388D01*
X3707682Y-16678388D02*
X3698158Y-16697436D01*
X3698158Y-16697436D02*
X3688634Y-16706960D01*
X3688634Y-16706960D02*
X3669586Y-16716484D01*
X3669586Y-16716484D02*
X3650539Y-16716484D01*
X3650539Y-16716484D02*
X3631491Y-16706960D01*
X3631491Y-16706960D02*
X3621967Y-16697436D01*
X3621967Y-16697436D02*
X3612443Y-16678388D01*
X3612443Y-16678388D02*
X3602920Y-16640293D01*
X3602920Y-16640293D02*
X3602920Y-16592674D01*
X3602920Y-16592674D02*
X3612443Y-16554579D01*
X3612443Y-16554579D02*
X3621967Y-16535531D01*
X3621967Y-16535531D02*
X3631491Y-16526008D01*
X3631491Y-16526008D02*
X3650539Y-16516484D01*
X3802920Y-16716484D02*
X3802920Y-16583150D01*
X3802920Y-16602198D02*
X3812443Y-16592674D01*
X3812443Y-16592674D02*
X3831491Y-16583150D01*
X3831491Y-16583150D02*
X3860063Y-16583150D01*
X3860063Y-16583150D02*
X3879110Y-16592674D01*
X3879110Y-16592674D02*
X3888634Y-16611722D01*
X3888634Y-16611722D02*
X3888634Y-16716484D01*
X3888634Y-16611722D02*
X3898158Y-16592674D01*
X3898158Y-16592674D02*
X3917205Y-16583150D01*
X3917205Y-16583150D02*
X3945777Y-16583150D01*
X3945777Y-16583150D02*
X3964824Y-16592674D01*
X3964824Y-16592674D02*
X3974348Y-16611722D01*
X3974348Y-16611722D02*
X3974348Y-16716484D01*
X4069586Y-16716484D02*
X4069586Y-16583150D01*
X4069586Y-16602198D02*
X4079110Y-16592674D01*
X4079110Y-16592674D02*
X4098158Y-16583150D01*
X4098158Y-16583150D02*
X4126729Y-16583150D01*
X4126729Y-16583150D02*
X4145777Y-16592674D01*
X4145777Y-16592674D02*
X4155301Y-16611722D01*
X4155301Y-16611722D02*
X4155301Y-16716484D01*
X4155301Y-16611722D02*
X4164824Y-16592674D01*
X4164824Y-16592674D02*
X4183872Y-16583150D01*
X4183872Y-16583150D02*
X4212444Y-16583150D01*
X4212444Y-16583150D02*
X4231491Y-16592674D01*
X4231491Y-16592674D02*
X4241015Y-16611722D01*
X4241015Y-16611722D02*
X4241015Y-16716484D01*
X4631491Y-16506960D02*
X4460063Y-16764103D01*
X4888634Y-16516484D02*
X4907682Y-16516484D01*
X4907682Y-16516484D02*
X4926729Y-16526008D01*
X4926729Y-16526008D02*
X4936253Y-16535531D01*
X4936253Y-16535531D02*
X4945777Y-16554579D01*
X4945777Y-16554579D02*
X4955301Y-16592674D01*
X4955301Y-16592674D02*
X4955301Y-16640293D01*
X4955301Y-16640293D02*
X4945777Y-16678388D01*
X4945777Y-16678388D02*
X4936253Y-16697436D01*
X4936253Y-16697436D02*
X4926729Y-16706960D01*
X4926729Y-16706960D02*
X4907682Y-16716484D01*
X4907682Y-16716484D02*
X4888634Y-16716484D01*
X4888634Y-16716484D02*
X4869587Y-16706960D01*
X4869587Y-16706960D02*
X4860063Y-16697436D01*
X4860063Y-16697436D02*
X4850539Y-16678388D01*
X4850539Y-16678388D02*
X4841015Y-16640293D01*
X4841015Y-16640293D02*
X4841015Y-16592674D01*
X4841015Y-16592674D02*
X4850539Y-16554579D01*
X4850539Y-16554579D02*
X4860063Y-16535531D01*
X4860063Y-16535531D02*
X4869587Y-16526008D01*
X4869587Y-16526008D02*
X4888634Y-16516484D01*
X5041015Y-16697436D02*
X5050539Y-16706960D01*
X5050539Y-16706960D02*
X5041015Y-16716484D01*
X5041015Y-16716484D02*
X5031491Y-16706960D01*
X5031491Y-16706960D02*
X5041015Y-16697436D01*
X5041015Y-16697436D02*
X5041015Y-16716484D01*
X5174348Y-16516484D02*
X5193396Y-16516484D01*
X5193396Y-16516484D02*
X5212444Y-16526008D01*
X5212444Y-16526008D02*
X5221968Y-16535531D01*
X5221968Y-16535531D02*
X5231491Y-16554579D01*
X5231491Y-16554579D02*
X5241015Y-16592674D01*
X5241015Y-16592674D02*
X5241015Y-16640293D01*
X5241015Y-16640293D02*
X5231491Y-16678388D01*
X5231491Y-16678388D02*
X5221968Y-16697436D01*
X5221968Y-16697436D02*
X5212444Y-16706960D01*
X5212444Y-16706960D02*
X5193396Y-16716484D01*
X5193396Y-16716484D02*
X5174348Y-16716484D01*
X5174348Y-16716484D02*
X5155301Y-16706960D01*
X5155301Y-16706960D02*
X5145777Y-16697436D01*
X5145777Y-16697436D02*
X5136253Y-16678388D01*
X5136253Y-16678388D02*
X5126729Y-16640293D01*
X5126729Y-16640293D02*
X5126729Y-16592674D01*
X5126729Y-16592674D02*
X5136253Y-16554579D01*
X5136253Y-16554579D02*
X5145777Y-16535531D01*
X5145777Y-16535531D02*
X5155301Y-16526008D01*
X5155301Y-16526008D02*
X5174348Y-16516484D01*
X5412444Y-16583150D02*
X5412444Y-16716484D01*
X5364825Y-16506960D02*
X5317206Y-16649817D01*
X5317206Y-16649817D02*
X5441015Y-16649817D01*
X5526729Y-16716484D02*
X5564825Y-16716484D01*
X5564825Y-16716484D02*
X5583872Y-16706960D01*
X5583872Y-16706960D02*
X5593396Y-16697436D01*
X5593396Y-16697436D02*
X5612444Y-16668865D01*
X5612444Y-16668865D02*
X5621967Y-16630769D01*
X5621967Y-16630769D02*
X5621967Y-16554579D01*
X5621967Y-16554579D02*
X5612444Y-16535531D01*
X5612444Y-16535531D02*
X5602920Y-16526008D01*
X5602920Y-16526008D02*
X5583872Y-16516484D01*
X5583872Y-16516484D02*
X5545777Y-16516484D01*
X5545777Y-16516484D02*
X5526729Y-16526008D01*
X5526729Y-16526008D02*
X5517206Y-16535531D01*
X5517206Y-16535531D02*
X5507682Y-16554579D01*
X5507682Y-16554579D02*
X5507682Y-16602198D01*
X5507682Y-16602198D02*
X5517206Y-16621246D01*
X5517206Y-16621246D02*
X5526729Y-16630769D01*
X5526729Y-16630769D02*
X5545777Y-16640293D01*
X5545777Y-16640293D02*
X5583872Y-16640293D01*
X5583872Y-16640293D02*
X5602920Y-16630769D01*
X5602920Y-16630769D02*
X5612444Y-16621246D01*
X5612444Y-16621246D02*
X5621967Y-16602198D01*
X5698158Y-16535531D02*
X5707682Y-16526008D01*
X5707682Y-16526008D02*
X5726729Y-16516484D01*
X5726729Y-16516484D02*
X5774348Y-16516484D01*
X5774348Y-16516484D02*
X5793396Y-16526008D01*
X5793396Y-16526008D02*
X5802920Y-16535531D01*
X5802920Y-16535531D02*
X5812444Y-16554579D01*
X5812444Y-16554579D02*
X5812444Y-16573627D01*
X5812444Y-16573627D02*
X5802920Y-16602198D01*
X5802920Y-16602198D02*
X5688634Y-16716484D01*
X5688634Y-16716484D02*
X5812444Y-16716484D01*
X5888634Y-16516484D02*
X5888634Y-16554579D01*
X5964825Y-16516484D02*
X5964825Y-16554579D01*
X6260063Y-16792674D02*
X6250539Y-16783150D01*
X6250539Y-16783150D02*
X6231491Y-16754579D01*
X6231491Y-16754579D02*
X6221968Y-16735531D01*
X6221968Y-16735531D02*
X6212444Y-16706960D01*
X6212444Y-16706960D02*
X6202920Y-16659341D01*
X6202920Y-16659341D02*
X6202920Y-16621246D01*
X6202920Y-16621246D02*
X6212444Y-16573627D01*
X6212444Y-16573627D02*
X6221968Y-16545055D01*
X6221968Y-16545055D02*
X6231491Y-16526008D01*
X6231491Y-16526008D02*
X6250539Y-16497436D01*
X6250539Y-16497436D02*
X6260063Y-16487912D01*
X6364825Y-16602198D02*
X6345777Y-16592674D01*
X6345777Y-16592674D02*
X6336253Y-16583150D01*
X6336253Y-16583150D02*
X6326729Y-16564103D01*
X6326729Y-16564103D02*
X6326729Y-16554579D01*
X6326729Y-16554579D02*
X6336253Y-16535531D01*
X6336253Y-16535531D02*
X6345777Y-16526008D01*
X6345777Y-16526008D02*
X6364825Y-16516484D01*
X6364825Y-16516484D02*
X6402920Y-16516484D01*
X6402920Y-16516484D02*
X6421968Y-16526008D01*
X6421968Y-16526008D02*
X6431491Y-16535531D01*
X6431491Y-16535531D02*
X6441015Y-16554579D01*
X6441015Y-16554579D02*
X6441015Y-16564103D01*
X6441015Y-16564103D02*
X6431491Y-16583150D01*
X6431491Y-16583150D02*
X6421968Y-16592674D01*
X6421968Y-16592674D02*
X6402920Y-16602198D01*
X6402920Y-16602198D02*
X6364825Y-16602198D01*
X6364825Y-16602198D02*
X6345777Y-16611722D01*
X6345777Y-16611722D02*
X6336253Y-16621246D01*
X6336253Y-16621246D02*
X6326729Y-16640293D01*
X6326729Y-16640293D02*
X6326729Y-16678388D01*
X6326729Y-16678388D02*
X6336253Y-16697436D01*
X6336253Y-16697436D02*
X6345777Y-16706960D01*
X6345777Y-16706960D02*
X6364825Y-16716484D01*
X6364825Y-16716484D02*
X6402920Y-16716484D01*
X6402920Y-16716484D02*
X6421968Y-16706960D01*
X6421968Y-16706960D02*
X6431491Y-16697436D01*
X6431491Y-16697436D02*
X6441015Y-16678388D01*
X6441015Y-16678388D02*
X6441015Y-16640293D01*
X6441015Y-16640293D02*
X6431491Y-16621246D01*
X6431491Y-16621246D02*
X6421968Y-16611722D01*
X6421968Y-16611722D02*
X6402920Y-16602198D01*
X6679110Y-16716484D02*
X6679110Y-16516484D01*
X6764825Y-16716484D02*
X6764825Y-16611722D01*
X6764825Y-16611722D02*
X6755301Y-16592674D01*
X6755301Y-16592674D02*
X6736253Y-16583150D01*
X6736253Y-16583150D02*
X6707682Y-16583150D01*
X6707682Y-16583150D02*
X6688634Y-16592674D01*
X6688634Y-16592674D02*
X6679110Y-16602198D01*
X6888634Y-16716484D02*
X6869587Y-16706960D01*
X6869587Y-16706960D02*
X6860063Y-16697436D01*
X6860063Y-16697436D02*
X6850539Y-16678388D01*
X6850539Y-16678388D02*
X6850539Y-16621246D01*
X6850539Y-16621246D02*
X6860063Y-16602198D01*
X6860063Y-16602198D02*
X6869587Y-16592674D01*
X6869587Y-16592674D02*
X6888634Y-16583150D01*
X6888634Y-16583150D02*
X6917206Y-16583150D01*
X6917206Y-16583150D02*
X6936253Y-16592674D01*
X6936253Y-16592674D02*
X6945777Y-16602198D01*
X6945777Y-16602198D02*
X6955301Y-16621246D01*
X6955301Y-16621246D02*
X6955301Y-16678388D01*
X6955301Y-16678388D02*
X6945777Y-16697436D01*
X6945777Y-16697436D02*
X6936253Y-16706960D01*
X6936253Y-16706960D02*
X6917206Y-16716484D01*
X6917206Y-16716484D02*
X6888634Y-16716484D01*
X7069587Y-16716484D02*
X7050539Y-16706960D01*
X7050539Y-16706960D02*
X7041015Y-16687912D01*
X7041015Y-16687912D02*
X7041015Y-16516484D01*
X7221968Y-16706960D02*
X7202920Y-16716484D01*
X7202920Y-16716484D02*
X7164825Y-16716484D01*
X7164825Y-16716484D02*
X7145777Y-16706960D01*
X7145777Y-16706960D02*
X7136253Y-16687912D01*
X7136253Y-16687912D02*
X7136253Y-16611722D01*
X7136253Y-16611722D02*
X7145777Y-16592674D01*
X7145777Y-16592674D02*
X7164825Y-16583150D01*
X7164825Y-16583150D02*
X7202920Y-16583150D01*
X7202920Y-16583150D02*
X7221968Y-16592674D01*
X7221968Y-16592674D02*
X7231491Y-16611722D01*
X7231491Y-16611722D02*
X7231491Y-16630769D01*
X7231491Y-16630769D02*
X7136253Y-16649817D01*
X7307682Y-16706960D02*
X7326730Y-16716484D01*
X7326730Y-16716484D02*
X7364825Y-16716484D01*
X7364825Y-16716484D02*
X7383872Y-16706960D01*
X7383872Y-16706960D02*
X7393396Y-16687912D01*
X7393396Y-16687912D02*
X7393396Y-16678388D01*
X7393396Y-16678388D02*
X7383872Y-16659341D01*
X7383872Y-16659341D02*
X7364825Y-16649817D01*
X7364825Y-16649817D02*
X7336253Y-16649817D01*
X7336253Y-16649817D02*
X7317206Y-16640293D01*
X7317206Y-16640293D02*
X7307682Y-16621246D01*
X7307682Y-16621246D02*
X7307682Y-16611722D01*
X7307682Y-16611722D02*
X7317206Y-16592674D01*
X7317206Y-16592674D02*
X7336253Y-16583150D01*
X7336253Y-16583150D02*
X7364825Y-16583150D01*
X7364825Y-16583150D02*
X7383872Y-16592674D01*
X7460063Y-16792674D02*
X7469587Y-16783150D01*
X7469587Y-16783150D02*
X7488634Y-16754579D01*
X7488634Y-16754579D02*
X7498158Y-16735531D01*
X7498158Y-16735531D02*
X7507682Y-16706960D01*
X7507682Y-16706960D02*
X7517206Y-16659341D01*
X7517206Y-16659341D02*
X7517206Y-16621246D01*
X7517206Y-16621246D02*
X7507682Y-16573627D01*
X7507682Y-16573627D02*
X7498158Y-16545055D01*
X7498158Y-16545055D02*
X7488634Y-16526008D01*
X7488634Y-16526008D02*
X7469587Y-16497436D01*
X7469587Y-16497436D02*
X7460063Y-16487912D01*
D16*
X2555000Y-16824000D02*
X2685000Y-16954000D01*
X2685000Y-16824000D02*
X2555000Y-16954000D01*
X2620000Y-16824000D02*
X2620000Y-16954000D01*
X2555000Y-16889000D02*
X2685000Y-16889000D01*
D11*
X3050539Y-16980484D02*
X2936253Y-16980484D01*
X2993396Y-16980484D02*
X2993396Y-16780484D01*
X2993396Y-16780484D02*
X2974348Y-16809055D01*
X2974348Y-16809055D02*
X2955301Y-16828103D01*
X2955301Y-16828103D02*
X2936253Y-16837627D01*
X3136253Y-16961436D02*
X3145777Y-16970960D01*
X3145777Y-16970960D02*
X3136253Y-16980484D01*
X3136253Y-16980484D02*
X3126729Y-16970960D01*
X3126729Y-16970960D02*
X3136253Y-16961436D01*
X3136253Y-16961436D02*
X3136253Y-16980484D01*
X3212443Y-16780484D02*
X3336253Y-16780484D01*
X3336253Y-16780484D02*
X3269586Y-16856674D01*
X3269586Y-16856674D02*
X3298158Y-16856674D01*
X3298158Y-16856674D02*
X3317205Y-16866198D01*
X3317205Y-16866198D02*
X3326729Y-16875722D01*
X3326729Y-16875722D02*
X3336253Y-16894770D01*
X3336253Y-16894770D02*
X3336253Y-16942389D01*
X3336253Y-16942389D02*
X3326729Y-16961436D01*
X3326729Y-16961436D02*
X3317205Y-16970960D01*
X3317205Y-16970960D02*
X3298158Y-16980484D01*
X3298158Y-16980484D02*
X3241015Y-16980484D01*
X3241015Y-16980484D02*
X3221967Y-16970960D01*
X3221967Y-16970960D02*
X3212443Y-16961436D01*
X3460062Y-16780484D02*
X3479110Y-16780484D01*
X3479110Y-16780484D02*
X3498158Y-16790008D01*
X3498158Y-16790008D02*
X3507682Y-16799531D01*
X3507682Y-16799531D02*
X3517205Y-16818579D01*
X3517205Y-16818579D02*
X3526729Y-16856674D01*
X3526729Y-16856674D02*
X3526729Y-16904293D01*
X3526729Y-16904293D02*
X3517205Y-16942389D01*
X3517205Y-16942389D02*
X3507682Y-16961436D01*
X3507682Y-16961436D02*
X3498158Y-16970960D01*
X3498158Y-16970960D02*
X3479110Y-16980484D01*
X3479110Y-16980484D02*
X3460062Y-16980484D01*
X3460062Y-16980484D02*
X3441015Y-16970960D01*
X3441015Y-16970960D02*
X3431491Y-16961436D01*
X3431491Y-16961436D02*
X3421967Y-16942389D01*
X3421967Y-16942389D02*
X3412443Y-16904293D01*
X3412443Y-16904293D02*
X3412443Y-16856674D01*
X3412443Y-16856674D02*
X3421967Y-16818579D01*
X3421967Y-16818579D02*
X3431491Y-16799531D01*
X3431491Y-16799531D02*
X3441015Y-16790008D01*
X3441015Y-16790008D02*
X3460062Y-16780484D01*
X3650539Y-16780484D02*
X3669586Y-16780484D01*
X3669586Y-16780484D02*
X3688634Y-16790008D01*
X3688634Y-16790008D02*
X3698158Y-16799531D01*
X3698158Y-16799531D02*
X3707682Y-16818579D01*
X3707682Y-16818579D02*
X3717205Y-16856674D01*
X3717205Y-16856674D02*
X3717205Y-16904293D01*
X3717205Y-16904293D02*
X3707682Y-16942389D01*
X3707682Y-16942389D02*
X3698158Y-16961436D01*
X3698158Y-16961436D02*
X3688634Y-16970960D01*
X3688634Y-16970960D02*
X3669586Y-16980484D01*
X3669586Y-16980484D02*
X3650539Y-16980484D01*
X3650539Y-16980484D02*
X3631491Y-16970960D01*
X3631491Y-16970960D02*
X3621967Y-16961436D01*
X3621967Y-16961436D02*
X3612443Y-16942389D01*
X3612443Y-16942389D02*
X3602920Y-16904293D01*
X3602920Y-16904293D02*
X3602920Y-16856674D01*
X3602920Y-16856674D02*
X3612443Y-16818579D01*
X3612443Y-16818579D02*
X3621967Y-16799531D01*
X3621967Y-16799531D02*
X3631491Y-16790008D01*
X3631491Y-16790008D02*
X3650539Y-16780484D01*
X3802920Y-16980484D02*
X3802920Y-16847150D01*
X3802920Y-16866198D02*
X3812443Y-16856674D01*
X3812443Y-16856674D02*
X3831491Y-16847150D01*
X3831491Y-16847150D02*
X3860063Y-16847150D01*
X3860063Y-16847150D02*
X3879110Y-16856674D01*
X3879110Y-16856674D02*
X3888634Y-16875722D01*
X3888634Y-16875722D02*
X3888634Y-16980484D01*
X3888634Y-16875722D02*
X3898158Y-16856674D01*
X3898158Y-16856674D02*
X3917205Y-16847150D01*
X3917205Y-16847150D02*
X3945777Y-16847150D01*
X3945777Y-16847150D02*
X3964824Y-16856674D01*
X3964824Y-16856674D02*
X3974348Y-16875722D01*
X3974348Y-16875722D02*
X3974348Y-16980484D01*
X4069586Y-16980484D02*
X4069586Y-16847150D01*
X4069586Y-16866198D02*
X4079110Y-16856674D01*
X4079110Y-16856674D02*
X4098158Y-16847150D01*
X4098158Y-16847150D02*
X4126729Y-16847150D01*
X4126729Y-16847150D02*
X4145777Y-16856674D01*
X4145777Y-16856674D02*
X4155301Y-16875722D01*
X4155301Y-16875722D02*
X4155301Y-16980484D01*
X4155301Y-16875722D02*
X4164824Y-16856674D01*
X4164824Y-16856674D02*
X4183872Y-16847150D01*
X4183872Y-16847150D02*
X4212444Y-16847150D01*
X4212444Y-16847150D02*
X4231491Y-16856674D01*
X4231491Y-16856674D02*
X4241015Y-16875722D01*
X4241015Y-16875722D02*
X4241015Y-16980484D01*
X4631491Y-16770960D02*
X4460063Y-17028103D01*
X4888634Y-16780484D02*
X4907682Y-16780484D01*
X4907682Y-16780484D02*
X4926729Y-16790008D01*
X4926729Y-16790008D02*
X4936253Y-16799531D01*
X4936253Y-16799531D02*
X4945777Y-16818579D01*
X4945777Y-16818579D02*
X4955301Y-16856674D01*
X4955301Y-16856674D02*
X4955301Y-16904293D01*
X4955301Y-16904293D02*
X4945777Y-16942389D01*
X4945777Y-16942389D02*
X4936253Y-16961436D01*
X4936253Y-16961436D02*
X4926729Y-16970960D01*
X4926729Y-16970960D02*
X4907682Y-16980484D01*
X4907682Y-16980484D02*
X4888634Y-16980484D01*
X4888634Y-16980484D02*
X4869587Y-16970960D01*
X4869587Y-16970960D02*
X4860063Y-16961436D01*
X4860063Y-16961436D02*
X4850539Y-16942389D01*
X4850539Y-16942389D02*
X4841015Y-16904293D01*
X4841015Y-16904293D02*
X4841015Y-16856674D01*
X4841015Y-16856674D02*
X4850539Y-16818579D01*
X4850539Y-16818579D02*
X4860063Y-16799531D01*
X4860063Y-16799531D02*
X4869587Y-16790008D01*
X4869587Y-16790008D02*
X4888634Y-16780484D01*
X5041015Y-16961436D02*
X5050539Y-16970960D01*
X5050539Y-16970960D02*
X5041015Y-16980484D01*
X5041015Y-16980484D02*
X5031491Y-16970960D01*
X5031491Y-16970960D02*
X5041015Y-16961436D01*
X5041015Y-16961436D02*
X5041015Y-16980484D01*
X5174348Y-16780484D02*
X5193396Y-16780484D01*
X5193396Y-16780484D02*
X5212444Y-16790008D01*
X5212444Y-16790008D02*
X5221968Y-16799531D01*
X5221968Y-16799531D02*
X5231491Y-16818579D01*
X5231491Y-16818579D02*
X5241015Y-16856674D01*
X5241015Y-16856674D02*
X5241015Y-16904293D01*
X5241015Y-16904293D02*
X5231491Y-16942389D01*
X5231491Y-16942389D02*
X5221968Y-16961436D01*
X5221968Y-16961436D02*
X5212444Y-16970960D01*
X5212444Y-16970960D02*
X5193396Y-16980484D01*
X5193396Y-16980484D02*
X5174348Y-16980484D01*
X5174348Y-16980484D02*
X5155301Y-16970960D01*
X5155301Y-16970960D02*
X5145777Y-16961436D01*
X5145777Y-16961436D02*
X5136253Y-16942389D01*
X5136253Y-16942389D02*
X5126729Y-16904293D01*
X5126729Y-16904293D02*
X5126729Y-16856674D01*
X5126729Y-16856674D02*
X5136253Y-16818579D01*
X5136253Y-16818579D02*
X5145777Y-16799531D01*
X5145777Y-16799531D02*
X5155301Y-16790008D01*
X5155301Y-16790008D02*
X5174348Y-16780484D01*
X5421968Y-16780484D02*
X5326729Y-16780484D01*
X5326729Y-16780484D02*
X5317206Y-16875722D01*
X5317206Y-16875722D02*
X5326729Y-16866198D01*
X5326729Y-16866198D02*
X5345777Y-16856674D01*
X5345777Y-16856674D02*
X5393396Y-16856674D01*
X5393396Y-16856674D02*
X5412444Y-16866198D01*
X5412444Y-16866198D02*
X5421968Y-16875722D01*
X5421968Y-16875722D02*
X5431491Y-16894770D01*
X5431491Y-16894770D02*
X5431491Y-16942389D01*
X5431491Y-16942389D02*
X5421968Y-16961436D01*
X5421968Y-16961436D02*
X5412444Y-16970960D01*
X5412444Y-16970960D02*
X5393396Y-16980484D01*
X5393396Y-16980484D02*
X5345777Y-16980484D01*
X5345777Y-16980484D02*
X5326729Y-16970960D01*
X5326729Y-16970960D02*
X5317206Y-16961436D01*
X5621967Y-16980484D02*
X5507682Y-16980484D01*
X5564825Y-16980484D02*
X5564825Y-16780484D01*
X5564825Y-16780484D02*
X5545777Y-16809055D01*
X5545777Y-16809055D02*
X5526729Y-16828103D01*
X5526729Y-16828103D02*
X5507682Y-16837627D01*
X5698158Y-16799531D02*
X5707682Y-16790008D01*
X5707682Y-16790008D02*
X5726729Y-16780484D01*
X5726729Y-16780484D02*
X5774348Y-16780484D01*
X5774348Y-16780484D02*
X5793396Y-16790008D01*
X5793396Y-16790008D02*
X5802920Y-16799531D01*
X5802920Y-16799531D02*
X5812444Y-16818579D01*
X5812444Y-16818579D02*
X5812444Y-16837627D01*
X5812444Y-16837627D02*
X5802920Y-16866198D01*
X5802920Y-16866198D02*
X5688634Y-16980484D01*
X5688634Y-16980484D02*
X5812444Y-16980484D01*
X5888634Y-16780484D02*
X5888634Y-16818579D01*
X5964825Y-16780484D02*
X5964825Y-16818579D01*
X6260063Y-17056674D02*
X6250539Y-17047150D01*
X6250539Y-17047150D02*
X6231491Y-17018579D01*
X6231491Y-17018579D02*
X6221968Y-16999531D01*
X6221968Y-16999531D02*
X6212444Y-16970960D01*
X6212444Y-16970960D02*
X6202920Y-16923341D01*
X6202920Y-16923341D02*
X6202920Y-16885246D01*
X6202920Y-16885246D02*
X6212444Y-16837627D01*
X6212444Y-16837627D02*
X6221968Y-16809055D01*
X6221968Y-16809055D02*
X6231491Y-16790008D01*
X6231491Y-16790008D02*
X6250539Y-16761436D01*
X6250539Y-16761436D02*
X6260063Y-16751912D01*
X6326729Y-16799531D02*
X6336253Y-16790008D01*
X6336253Y-16790008D02*
X6355301Y-16780484D01*
X6355301Y-16780484D02*
X6402920Y-16780484D01*
X6402920Y-16780484D02*
X6421968Y-16790008D01*
X6421968Y-16790008D02*
X6431491Y-16799531D01*
X6431491Y-16799531D02*
X6441015Y-16818579D01*
X6441015Y-16818579D02*
X6441015Y-16837627D01*
X6441015Y-16837627D02*
X6431491Y-16866198D01*
X6431491Y-16866198D02*
X6317206Y-16980484D01*
X6317206Y-16980484D02*
X6441015Y-16980484D01*
X6679110Y-16980484D02*
X6679110Y-16780484D01*
X6764825Y-16980484D02*
X6764825Y-16875722D01*
X6764825Y-16875722D02*
X6755301Y-16856674D01*
X6755301Y-16856674D02*
X6736253Y-16847150D01*
X6736253Y-16847150D02*
X6707682Y-16847150D01*
X6707682Y-16847150D02*
X6688634Y-16856674D01*
X6688634Y-16856674D02*
X6679110Y-16866198D01*
X6888634Y-16980484D02*
X6869587Y-16970960D01*
X6869587Y-16970960D02*
X6860063Y-16961436D01*
X6860063Y-16961436D02*
X6850539Y-16942389D01*
X6850539Y-16942389D02*
X6850539Y-16885246D01*
X6850539Y-16885246D02*
X6860063Y-16866198D01*
X6860063Y-16866198D02*
X6869587Y-16856674D01*
X6869587Y-16856674D02*
X6888634Y-16847150D01*
X6888634Y-16847150D02*
X6917206Y-16847150D01*
X6917206Y-16847150D02*
X6936253Y-16856674D01*
X6936253Y-16856674D02*
X6945777Y-16866198D01*
X6945777Y-16866198D02*
X6955301Y-16885246D01*
X6955301Y-16885246D02*
X6955301Y-16942389D01*
X6955301Y-16942389D02*
X6945777Y-16961436D01*
X6945777Y-16961436D02*
X6936253Y-16970960D01*
X6936253Y-16970960D02*
X6917206Y-16980484D01*
X6917206Y-16980484D02*
X6888634Y-16980484D01*
X7069587Y-16980484D02*
X7050539Y-16970960D01*
X7050539Y-16970960D02*
X7041015Y-16951912D01*
X7041015Y-16951912D02*
X7041015Y-16780484D01*
X7221968Y-16970960D02*
X7202920Y-16980484D01*
X7202920Y-16980484D02*
X7164825Y-16980484D01*
X7164825Y-16980484D02*
X7145777Y-16970960D01*
X7145777Y-16970960D02*
X7136253Y-16951912D01*
X7136253Y-16951912D02*
X7136253Y-16875722D01*
X7136253Y-16875722D02*
X7145777Y-16856674D01*
X7145777Y-16856674D02*
X7164825Y-16847150D01*
X7164825Y-16847150D02*
X7202920Y-16847150D01*
X7202920Y-16847150D02*
X7221968Y-16856674D01*
X7221968Y-16856674D02*
X7231491Y-16875722D01*
X7231491Y-16875722D02*
X7231491Y-16894770D01*
X7231491Y-16894770D02*
X7136253Y-16913817D01*
X7307682Y-16970960D02*
X7326730Y-16980484D01*
X7326730Y-16980484D02*
X7364825Y-16980484D01*
X7364825Y-16980484D02*
X7383872Y-16970960D01*
X7383872Y-16970960D02*
X7393396Y-16951912D01*
X7393396Y-16951912D02*
X7393396Y-16942389D01*
X7393396Y-16942389D02*
X7383872Y-16923341D01*
X7383872Y-16923341D02*
X7364825Y-16913817D01*
X7364825Y-16913817D02*
X7336253Y-16913817D01*
X7336253Y-16913817D02*
X7317206Y-16904293D01*
X7317206Y-16904293D02*
X7307682Y-16885246D01*
X7307682Y-16885246D02*
X7307682Y-16875722D01*
X7307682Y-16875722D02*
X7317206Y-16856674D01*
X7317206Y-16856674D02*
X7336253Y-16847150D01*
X7336253Y-16847150D02*
X7364825Y-16847150D01*
X7364825Y-16847150D02*
X7383872Y-16856674D01*
X7460063Y-17056674D02*
X7469587Y-17047150D01*
X7469587Y-17047150D02*
X7488634Y-17018579D01*
X7488634Y-17018579D02*
X7498158Y-16999531D01*
X7498158Y-16999531D02*
X7507682Y-16970960D01*
X7507682Y-16970960D02*
X7517206Y-16923341D01*
X7517206Y-16923341D02*
X7517206Y-16885246D01*
X7517206Y-16885246D02*
X7507682Y-16837627D01*
X7507682Y-16837627D02*
X7498158Y-16809055D01*
X7498158Y-16809055D02*
X7488634Y-16790008D01*
X7488634Y-16790008D02*
X7469587Y-16761436D01*
X7469587Y-16761436D02*
X7460063Y-16751912D01*
X2485000Y-17053000D02*
X2685000Y-17253000D01*
X2685000Y-17053000D02*
X2485000Y-17253000D01*
X2655711Y-17223711D02*
X2655711Y-17082289D01*
X2514289Y-17082289D01*
X2514289Y-17223711D01*
X2655711Y-17223711D01*
X2936253Y-17063531D02*
X2945777Y-17054008D01*
X2945777Y-17054008D02*
X2964824Y-17044484D01*
X2964824Y-17044484D02*
X3012443Y-17044484D01*
X3012443Y-17044484D02*
X3031491Y-17054008D01*
X3031491Y-17054008D02*
X3041015Y-17063531D01*
X3041015Y-17063531D02*
X3050539Y-17082579D01*
X3050539Y-17082579D02*
X3050539Y-17101627D01*
X3050539Y-17101627D02*
X3041015Y-17130198D01*
X3041015Y-17130198D02*
X2926729Y-17244484D01*
X2926729Y-17244484D02*
X3050539Y-17244484D01*
X3136253Y-17225436D02*
X3145777Y-17234960D01*
X3145777Y-17234960D02*
X3136253Y-17244484D01*
X3136253Y-17244484D02*
X3126729Y-17234960D01*
X3126729Y-17234960D02*
X3136253Y-17225436D01*
X3136253Y-17225436D02*
X3136253Y-17244484D01*
X3326729Y-17044484D02*
X3231491Y-17044484D01*
X3231491Y-17044484D02*
X3221967Y-17139722D01*
X3221967Y-17139722D02*
X3231491Y-17130198D01*
X3231491Y-17130198D02*
X3250539Y-17120674D01*
X3250539Y-17120674D02*
X3298158Y-17120674D01*
X3298158Y-17120674D02*
X3317205Y-17130198D01*
X3317205Y-17130198D02*
X3326729Y-17139722D01*
X3326729Y-17139722D02*
X3336253Y-17158770D01*
X3336253Y-17158770D02*
X3336253Y-17206389D01*
X3336253Y-17206389D02*
X3326729Y-17225436D01*
X3326729Y-17225436D02*
X3317205Y-17234960D01*
X3317205Y-17234960D02*
X3298158Y-17244484D01*
X3298158Y-17244484D02*
X3250539Y-17244484D01*
X3250539Y-17244484D02*
X3231491Y-17234960D01*
X3231491Y-17234960D02*
X3221967Y-17225436D01*
X3460062Y-17044484D02*
X3479110Y-17044484D01*
X3479110Y-17044484D02*
X3498158Y-17054008D01*
X3498158Y-17054008D02*
X3507682Y-17063531D01*
X3507682Y-17063531D02*
X3517205Y-17082579D01*
X3517205Y-17082579D02*
X3526729Y-17120674D01*
X3526729Y-17120674D02*
X3526729Y-17168293D01*
X3526729Y-17168293D02*
X3517205Y-17206389D01*
X3517205Y-17206389D02*
X3507682Y-17225436D01*
X3507682Y-17225436D02*
X3498158Y-17234960D01*
X3498158Y-17234960D02*
X3479110Y-17244484D01*
X3479110Y-17244484D02*
X3460062Y-17244484D01*
X3460062Y-17244484D02*
X3441015Y-17234960D01*
X3441015Y-17234960D02*
X3431491Y-17225436D01*
X3431491Y-17225436D02*
X3421967Y-17206389D01*
X3421967Y-17206389D02*
X3412443Y-17168293D01*
X3412443Y-17168293D02*
X3412443Y-17120674D01*
X3412443Y-17120674D02*
X3421967Y-17082579D01*
X3421967Y-17082579D02*
X3431491Y-17063531D01*
X3431491Y-17063531D02*
X3441015Y-17054008D01*
X3441015Y-17054008D02*
X3460062Y-17044484D01*
X3650539Y-17044484D02*
X3669586Y-17044484D01*
X3669586Y-17044484D02*
X3688634Y-17054008D01*
X3688634Y-17054008D02*
X3698158Y-17063531D01*
X3698158Y-17063531D02*
X3707682Y-17082579D01*
X3707682Y-17082579D02*
X3717205Y-17120674D01*
X3717205Y-17120674D02*
X3717205Y-17168293D01*
X3717205Y-17168293D02*
X3707682Y-17206389D01*
X3707682Y-17206389D02*
X3698158Y-17225436D01*
X3698158Y-17225436D02*
X3688634Y-17234960D01*
X3688634Y-17234960D02*
X3669586Y-17244484D01*
X3669586Y-17244484D02*
X3650539Y-17244484D01*
X3650539Y-17244484D02*
X3631491Y-17234960D01*
X3631491Y-17234960D02*
X3621967Y-17225436D01*
X3621967Y-17225436D02*
X3612443Y-17206389D01*
X3612443Y-17206389D02*
X3602920Y-17168293D01*
X3602920Y-17168293D02*
X3602920Y-17120674D01*
X3602920Y-17120674D02*
X3612443Y-17082579D01*
X3612443Y-17082579D02*
X3621967Y-17063531D01*
X3621967Y-17063531D02*
X3631491Y-17054008D01*
X3631491Y-17054008D02*
X3650539Y-17044484D01*
X3802920Y-17244484D02*
X3802920Y-17111150D01*
X3802920Y-17130198D02*
X3812443Y-17120674D01*
X3812443Y-17120674D02*
X3831491Y-17111150D01*
X3831491Y-17111150D02*
X3860063Y-17111150D01*
X3860063Y-17111150D02*
X3879110Y-17120674D01*
X3879110Y-17120674D02*
X3888634Y-17139722D01*
X3888634Y-17139722D02*
X3888634Y-17244484D01*
X3888634Y-17139722D02*
X3898158Y-17120674D01*
X3898158Y-17120674D02*
X3917205Y-17111150D01*
X3917205Y-17111150D02*
X3945777Y-17111150D01*
X3945777Y-17111150D02*
X3964824Y-17120674D01*
X3964824Y-17120674D02*
X3974348Y-17139722D01*
X3974348Y-17139722D02*
X3974348Y-17244484D01*
X4069586Y-17244484D02*
X4069586Y-17111150D01*
X4069586Y-17130198D02*
X4079110Y-17120674D01*
X4079110Y-17120674D02*
X4098158Y-17111150D01*
X4098158Y-17111150D02*
X4126729Y-17111150D01*
X4126729Y-17111150D02*
X4145777Y-17120674D01*
X4145777Y-17120674D02*
X4155301Y-17139722D01*
X4155301Y-17139722D02*
X4155301Y-17244484D01*
X4155301Y-17139722D02*
X4164824Y-17120674D01*
X4164824Y-17120674D02*
X4183872Y-17111150D01*
X4183872Y-17111150D02*
X4212444Y-17111150D01*
X4212444Y-17111150D02*
X4231491Y-17120674D01*
X4231491Y-17120674D02*
X4241015Y-17139722D01*
X4241015Y-17139722D02*
X4241015Y-17244484D01*
X4631491Y-17034960D02*
X4460063Y-17292103D01*
X4888634Y-17044484D02*
X4907682Y-17044484D01*
X4907682Y-17044484D02*
X4926729Y-17054008D01*
X4926729Y-17054008D02*
X4936253Y-17063531D01*
X4936253Y-17063531D02*
X4945777Y-17082579D01*
X4945777Y-17082579D02*
X4955301Y-17120674D01*
X4955301Y-17120674D02*
X4955301Y-17168293D01*
X4955301Y-17168293D02*
X4945777Y-17206389D01*
X4945777Y-17206389D02*
X4936253Y-17225436D01*
X4936253Y-17225436D02*
X4926729Y-17234960D01*
X4926729Y-17234960D02*
X4907682Y-17244484D01*
X4907682Y-17244484D02*
X4888634Y-17244484D01*
X4888634Y-17244484D02*
X4869587Y-17234960D01*
X4869587Y-17234960D02*
X4860063Y-17225436D01*
X4860063Y-17225436D02*
X4850539Y-17206389D01*
X4850539Y-17206389D02*
X4841015Y-17168293D01*
X4841015Y-17168293D02*
X4841015Y-17120674D01*
X4841015Y-17120674D02*
X4850539Y-17082579D01*
X4850539Y-17082579D02*
X4860063Y-17063531D01*
X4860063Y-17063531D02*
X4869587Y-17054008D01*
X4869587Y-17054008D02*
X4888634Y-17044484D01*
X5041015Y-17225436D02*
X5050539Y-17234960D01*
X5050539Y-17234960D02*
X5041015Y-17244484D01*
X5041015Y-17244484D02*
X5031491Y-17234960D01*
X5031491Y-17234960D02*
X5041015Y-17225436D01*
X5041015Y-17225436D02*
X5041015Y-17244484D01*
X5174348Y-17044484D02*
X5193396Y-17044484D01*
X5193396Y-17044484D02*
X5212444Y-17054008D01*
X5212444Y-17054008D02*
X5221968Y-17063531D01*
X5221968Y-17063531D02*
X5231491Y-17082579D01*
X5231491Y-17082579D02*
X5241015Y-17120674D01*
X5241015Y-17120674D02*
X5241015Y-17168293D01*
X5241015Y-17168293D02*
X5231491Y-17206389D01*
X5231491Y-17206389D02*
X5221968Y-17225436D01*
X5221968Y-17225436D02*
X5212444Y-17234960D01*
X5212444Y-17234960D02*
X5193396Y-17244484D01*
X5193396Y-17244484D02*
X5174348Y-17244484D01*
X5174348Y-17244484D02*
X5155301Y-17234960D01*
X5155301Y-17234960D02*
X5145777Y-17225436D01*
X5145777Y-17225436D02*
X5136253Y-17206389D01*
X5136253Y-17206389D02*
X5126729Y-17168293D01*
X5126729Y-17168293D02*
X5126729Y-17120674D01*
X5126729Y-17120674D02*
X5136253Y-17082579D01*
X5136253Y-17082579D02*
X5145777Y-17063531D01*
X5145777Y-17063531D02*
X5155301Y-17054008D01*
X5155301Y-17054008D02*
X5174348Y-17044484D01*
X5336253Y-17244484D02*
X5374348Y-17244484D01*
X5374348Y-17244484D02*
X5393396Y-17234960D01*
X5393396Y-17234960D02*
X5402920Y-17225436D01*
X5402920Y-17225436D02*
X5421968Y-17196865D01*
X5421968Y-17196865D02*
X5431491Y-17158770D01*
X5431491Y-17158770D02*
X5431491Y-17082579D01*
X5431491Y-17082579D02*
X5421968Y-17063531D01*
X5421968Y-17063531D02*
X5412444Y-17054008D01*
X5412444Y-17054008D02*
X5393396Y-17044484D01*
X5393396Y-17044484D02*
X5355301Y-17044484D01*
X5355301Y-17044484D02*
X5336253Y-17054008D01*
X5336253Y-17054008D02*
X5326729Y-17063531D01*
X5326729Y-17063531D02*
X5317206Y-17082579D01*
X5317206Y-17082579D02*
X5317206Y-17130198D01*
X5317206Y-17130198D02*
X5326729Y-17149246D01*
X5326729Y-17149246D02*
X5336253Y-17158770D01*
X5336253Y-17158770D02*
X5355301Y-17168293D01*
X5355301Y-17168293D02*
X5393396Y-17168293D01*
X5393396Y-17168293D02*
X5412444Y-17158770D01*
X5412444Y-17158770D02*
X5421968Y-17149246D01*
X5421968Y-17149246D02*
X5431491Y-17130198D01*
X5545777Y-17130198D02*
X5526729Y-17120674D01*
X5526729Y-17120674D02*
X5517206Y-17111150D01*
X5517206Y-17111150D02*
X5507682Y-17092103D01*
X5507682Y-17092103D02*
X5507682Y-17082579D01*
X5507682Y-17082579D02*
X5517206Y-17063531D01*
X5517206Y-17063531D02*
X5526729Y-17054008D01*
X5526729Y-17054008D02*
X5545777Y-17044484D01*
X5545777Y-17044484D02*
X5583872Y-17044484D01*
X5583872Y-17044484D02*
X5602920Y-17054008D01*
X5602920Y-17054008D02*
X5612444Y-17063531D01*
X5612444Y-17063531D02*
X5621967Y-17082579D01*
X5621967Y-17082579D02*
X5621967Y-17092103D01*
X5621967Y-17092103D02*
X5612444Y-17111150D01*
X5612444Y-17111150D02*
X5602920Y-17120674D01*
X5602920Y-17120674D02*
X5583872Y-17130198D01*
X5583872Y-17130198D02*
X5545777Y-17130198D01*
X5545777Y-17130198D02*
X5526729Y-17139722D01*
X5526729Y-17139722D02*
X5517206Y-17149246D01*
X5517206Y-17149246D02*
X5507682Y-17168293D01*
X5507682Y-17168293D02*
X5507682Y-17206389D01*
X5507682Y-17206389D02*
X5517206Y-17225436D01*
X5517206Y-17225436D02*
X5526729Y-17234960D01*
X5526729Y-17234960D02*
X5545777Y-17244484D01*
X5545777Y-17244484D02*
X5583872Y-17244484D01*
X5583872Y-17244484D02*
X5602920Y-17234960D01*
X5602920Y-17234960D02*
X5612444Y-17225436D01*
X5612444Y-17225436D02*
X5621967Y-17206389D01*
X5621967Y-17206389D02*
X5621967Y-17168293D01*
X5621967Y-17168293D02*
X5612444Y-17149246D01*
X5612444Y-17149246D02*
X5602920Y-17139722D01*
X5602920Y-17139722D02*
X5583872Y-17130198D01*
X5793396Y-17111150D02*
X5793396Y-17244484D01*
X5745777Y-17034960D02*
X5698158Y-17177817D01*
X5698158Y-17177817D02*
X5821967Y-17177817D01*
X5888634Y-17044484D02*
X5888634Y-17082579D01*
X5964825Y-17044484D02*
X5964825Y-17082579D01*
X6260063Y-17320674D02*
X6250539Y-17311150D01*
X6250539Y-17311150D02*
X6231491Y-17282579D01*
X6231491Y-17282579D02*
X6221968Y-17263531D01*
X6221968Y-17263531D02*
X6212444Y-17234960D01*
X6212444Y-17234960D02*
X6202920Y-17187341D01*
X6202920Y-17187341D02*
X6202920Y-17149246D01*
X6202920Y-17149246D02*
X6212444Y-17101627D01*
X6212444Y-17101627D02*
X6221968Y-17073055D01*
X6221968Y-17073055D02*
X6231491Y-17054008D01*
X6231491Y-17054008D02*
X6250539Y-17025436D01*
X6250539Y-17025436D02*
X6260063Y-17015912D01*
X6317206Y-17044484D02*
X6441015Y-17044484D01*
X6441015Y-17044484D02*
X6374348Y-17120674D01*
X6374348Y-17120674D02*
X6402920Y-17120674D01*
X6402920Y-17120674D02*
X6421968Y-17130198D01*
X6421968Y-17130198D02*
X6431491Y-17139722D01*
X6431491Y-17139722D02*
X6441015Y-17158770D01*
X6441015Y-17158770D02*
X6441015Y-17206389D01*
X6441015Y-17206389D02*
X6431491Y-17225436D01*
X6431491Y-17225436D02*
X6421968Y-17234960D01*
X6421968Y-17234960D02*
X6402920Y-17244484D01*
X6402920Y-17244484D02*
X6345777Y-17244484D01*
X6345777Y-17244484D02*
X6326729Y-17234960D01*
X6326729Y-17234960D02*
X6317206Y-17225436D01*
X6679110Y-17244484D02*
X6679110Y-17044484D01*
X6764825Y-17244484D02*
X6764825Y-17139722D01*
X6764825Y-17139722D02*
X6755301Y-17120674D01*
X6755301Y-17120674D02*
X6736253Y-17111150D01*
X6736253Y-17111150D02*
X6707682Y-17111150D01*
X6707682Y-17111150D02*
X6688634Y-17120674D01*
X6688634Y-17120674D02*
X6679110Y-17130198D01*
X6888634Y-17244484D02*
X6869587Y-17234960D01*
X6869587Y-17234960D02*
X6860063Y-17225436D01*
X6860063Y-17225436D02*
X6850539Y-17206389D01*
X6850539Y-17206389D02*
X6850539Y-17149246D01*
X6850539Y-17149246D02*
X6860063Y-17130198D01*
X6860063Y-17130198D02*
X6869587Y-17120674D01*
X6869587Y-17120674D02*
X6888634Y-17111150D01*
X6888634Y-17111150D02*
X6917206Y-17111150D01*
X6917206Y-17111150D02*
X6936253Y-17120674D01*
X6936253Y-17120674D02*
X6945777Y-17130198D01*
X6945777Y-17130198D02*
X6955301Y-17149246D01*
X6955301Y-17149246D02*
X6955301Y-17206389D01*
X6955301Y-17206389D02*
X6945777Y-17225436D01*
X6945777Y-17225436D02*
X6936253Y-17234960D01*
X6936253Y-17234960D02*
X6917206Y-17244484D01*
X6917206Y-17244484D02*
X6888634Y-17244484D01*
X7069587Y-17244484D02*
X7050539Y-17234960D01*
X7050539Y-17234960D02*
X7041015Y-17215912D01*
X7041015Y-17215912D02*
X7041015Y-17044484D01*
X7221968Y-17234960D02*
X7202920Y-17244484D01*
X7202920Y-17244484D02*
X7164825Y-17244484D01*
X7164825Y-17244484D02*
X7145777Y-17234960D01*
X7145777Y-17234960D02*
X7136253Y-17215912D01*
X7136253Y-17215912D02*
X7136253Y-17139722D01*
X7136253Y-17139722D02*
X7145777Y-17120674D01*
X7145777Y-17120674D02*
X7164825Y-17111150D01*
X7164825Y-17111150D02*
X7202920Y-17111150D01*
X7202920Y-17111150D02*
X7221968Y-17120674D01*
X7221968Y-17120674D02*
X7231491Y-17139722D01*
X7231491Y-17139722D02*
X7231491Y-17158770D01*
X7231491Y-17158770D02*
X7136253Y-17177817D01*
X7307682Y-17234960D02*
X7326730Y-17244484D01*
X7326730Y-17244484D02*
X7364825Y-17244484D01*
X7364825Y-17244484D02*
X7383872Y-17234960D01*
X7383872Y-17234960D02*
X7393396Y-17215912D01*
X7393396Y-17215912D02*
X7393396Y-17206389D01*
X7393396Y-17206389D02*
X7383872Y-17187341D01*
X7383872Y-17187341D02*
X7364825Y-17177817D01*
X7364825Y-17177817D02*
X7336253Y-17177817D01*
X7336253Y-17177817D02*
X7317206Y-17168293D01*
X7317206Y-17168293D02*
X7307682Y-17149246D01*
X7307682Y-17149246D02*
X7307682Y-17139722D01*
X7307682Y-17139722D02*
X7317206Y-17120674D01*
X7317206Y-17120674D02*
X7336253Y-17111150D01*
X7336253Y-17111150D02*
X7364825Y-17111150D01*
X7364825Y-17111150D02*
X7383872Y-17120674D01*
X7460063Y-17320674D02*
X7469587Y-17311150D01*
X7469587Y-17311150D02*
X7488634Y-17282579D01*
X7488634Y-17282579D02*
X7498158Y-17263531D01*
X7498158Y-17263531D02*
X7507682Y-17234960D01*
X7507682Y-17234960D02*
X7517206Y-17187341D01*
X7517206Y-17187341D02*
X7517206Y-17149246D01*
X7517206Y-17149246D02*
X7507682Y-17101627D01*
X7507682Y-17101627D02*
X7498158Y-17073055D01*
X7498158Y-17073055D02*
X7488634Y-17054008D01*
X7488634Y-17054008D02*
X7469587Y-17025436D01*
X7469587Y-17025436D02*
X7460063Y-17015912D01*
M02*
